<svg width="169" height="140" viewBox="0 0 169 140" fill="none" xmlns="http://www.w3.org/2000/svg">
<g id="Frame 1114">
<g id="Group 2074">
<g id="Group 2015">
<circle id="Ellipse 202" cx="67.5" cy="67.5" r="66.9328" transform="matrix(-1 0 0 1 143 2)" stroke="#22D7FF" stroke-width="1.13445" stroke-dasharray="5.67 5.67"/>
<path id="Ellipse 206" d="M38.7637 69.5C38.7637 88.0629 42.892 104.84 49.5382 116.957C56.1958 129.094 65.3007 136.433 75.2218 136.433C85.1428 136.433 94.2477 129.094 100.905 116.957C107.551 104.84 111.68 88.0629 111.68 69.5C111.68 50.9371 107.551 34.1596 100.905 22.0431C94.2477 9.90581 85.1428 2.56723 75.2218 2.56723C65.3007 2.56723 56.1958 9.90581 49.5382 22.0431C42.892 34.1596 38.7637 50.9371 38.7637 69.5Z" stroke="#22D7FF" stroke-width="1.13445"/>
<line id="Line 172" y1="-0.567227" x2="135" y2="-0.567227" transform="matrix(4.37114e-08 1 1 -4.37114e-08 75.209 2)" stroke="#40D8BD" stroke-width="1.13445" stroke-dasharray="2.27 2.27"/>
<ellipse id="Ellipse 204" cx="9.0879" cy="9.08789" rx="9.0879" ry="9.08789" transform="matrix(-0.980981 -0.194104 -0.194104 0.980981 154.147 63.3848)" fill="#40D8BD"/>
<path id="Vector 79" d="M132.317 84.1071C132.275 84.3541 132.041 84.5203 131.794 84.4783L127.768 83.793C127.521 83.7509 127.355 83.5165 127.397 83.2695C127.439 83.0224 127.673 82.8562 127.92 82.8983L131.499 83.5074L132.108 79.9286C132.15 79.6816 132.384 79.5154 132.632 79.5574C132.879 79.5995 133.045 79.8339 133.003 80.0809L132.317 84.1071ZM131.87 56.805C132.121 56.805 132.324 57.0082 132.324 57.2588L132.324 61.3428C132.324 61.5934 132.121 61.7966 131.87 61.7966C131.619 61.7966 131.416 61.5934 131.416 61.3428L131.416 57.7126L127.786 57.7126C127.535 57.7126 127.332 57.5094 127.332 57.2588C127.332 57.0082 127.535 56.805 127.786 56.805L131.87 56.805ZM131.5 84.2934C129.615 81.6356 127.359 77.0956 126.699 72.0782C126.038 67.0469 126.982 61.5051 131.549 56.9379L132.191 57.5797C127.872 61.8986 126.965 67.132 127.599 71.9599C128.236 76.8016 130.422 81.2047 132.24 83.7684L131.5 84.2934Z" fill="#22D7FF"/>
<path id="Vector 80" d="M154.178 84.1071C154.22 84.3541 154.454 84.5203 154.701 84.4783L158.727 83.793C158.974 83.7509 159.141 83.5165 159.098 83.2695C159.056 83.0224 158.822 82.8562 158.575 82.8983L154.996 83.5074L154.387 79.9286C154.345 79.6816 154.111 79.5154 153.864 79.5574C153.616 79.5995 153.45 79.8339 153.492 80.0809L154.178 84.1071ZM154.625 56.805C154.374 56.805 154.171 57.0082 154.171 57.2588L154.171 61.3428C154.171 61.5934 154.374 61.7966 154.625 61.7966C154.876 61.7966 155.079 61.5934 155.079 61.3428L155.079 57.7126L158.709 57.7126C158.96 57.7126 159.163 57.5094 159.163 57.2588C159.163 57.0082 158.96 56.805 158.709 56.805L154.625 56.805ZM154.995 84.2934C156.88 81.6356 159.136 77.0956 159.796 72.0782C160.457 67.0469 159.513 61.5051 154.946 56.9379L154.304 57.5797C158.623 61.8986 159.53 67.132 158.896 71.9599C158.259 76.8016 156.073 81.2047 154.255 83.7684L154.995 84.2934Z" fill="#22D7FF"/>
<ellipse id="Ellipse 205" cx="10.538" cy="10.538" rx="10.538" ry="10.538" transform="matrix(-1 0 0 1 86.0332 58.9648)" fill="#22D7FF"/>
</g>
</g>
</g>
</svg>
