<svg width="85" height="60" viewBox="0 0 85 60" fill="none" xmlns="http://www.w3.org/2000/svg">
<g id="Group 1774">
<g id="Group 1742">
<path id="Vector 123" d="M28.905 7.44531C28.905 7.79568 32.1167 10.803 33.7225 12.2628H49.051L53.8685 7.44531" stroke="#22D7FF"/>
<path id="Vector 126" d="M55.1824 52.5547C55.1824 52.2043 51.9707 49.197 50.3649 47.7372L35.0364 47.7372L30.2189 52.5547" stroke="#22D7FF"/>
<path id="Vector 124" d="M8.32104 14.4521H19.27L26.2772 21.4594H56.0583L63.0656 14.4521H75.7663" stroke="#22D7FF"/>
<path id="Vector 127" d="M75.7661 45.5479L64.8172 45.5479L57.8099 38.5406L28.0289 38.5405L21.0216 45.5478L8.32086 45.5478" stroke="#22D7FF"/>
<path id="Vector 125" d="M23.2114 31.5332H59.9997" stroke="#22D7FF"/>
</g>
<path id="Ellipse 964" d="M30.1573 4.37956C30.1573 6.52218 28.4204 8.25912 26.2778 8.25912C24.1351 8.25912 22.3982 6.52218 22.3982 4.37956C22.3982 2.23694 24.1351 0.5 26.2778 0.5C28.4204 0.5 30.1573 2.23694 30.1573 4.37956Z" stroke="#40D8BD"/>
<path id="Ellipse 970" d="M53.9301 55.6204C53.9301 53.4778 55.667 51.7409 57.8096 51.7409C59.9523 51.7409 61.6892 53.4778 61.6892 55.6204C61.6892 57.7631 59.9523 59.5 57.8096 59.5C55.667 59.5 53.9301 57.7631 53.9301 55.6204Z" stroke="#40D8BD"/>
<path id="Ellipse 965" d="M60.8138 4.37956C60.8138 6.52218 59.0769 8.25912 56.9342 8.25912C54.7916 8.25912 53.0547 6.52218 53.0547 4.37956C53.0547 2.23694 54.7916 0.5 56.9342 0.5C59.0769 0.5 60.8138 2.23694 60.8138 4.37956Z" stroke="#40D8BD"/>
<path id="Ellipse 971" d="M23.2746 55.6204C23.2746 53.4778 25.0115 51.7409 27.1541 51.7409C29.2968 51.7409 31.0337 53.4778 31.0337 55.6204C31.0337 57.7631 29.2968 59.5 27.1541 59.5C25.0115 59.5 23.2746 57.7631 23.2746 55.6204Z" stroke="#40D8BD"/>
<path id="Ellipse 966" d="M83.5875 14.0143C83.5875 16.1569 81.8506 17.8939 79.7079 17.8939C77.5653 17.8939 75.8284 16.1569 75.8284 14.0143C75.8284 11.8717 77.5653 10.1348 79.7079 10.1348C81.8506 10.1348 83.5875 11.8717 83.5875 14.0143Z" stroke="#40D8BD"/>
<path id="Ellipse 972" d="M0.499909 45.9857C0.499909 43.843 2.23685 42.1061 4.37947 42.1061C6.52209 42.1061 8.25903 43.843 8.25903 45.9857C8.25903 48.1283 6.52209 49.8652 4.37947 49.8652C2.23685 49.8652 0.499909 48.1283 0.499909 45.9857Z" stroke="#40D8BD"/>
<path id="Ellipse 967" d="M8.25912 14.0143C8.25912 16.1569 6.52219 17.8939 4.37956 17.8939C2.23694 17.8939 0.5 16.1569 0.5 14.0143C0.5 11.8717 2.23694 10.1348 4.37956 10.1348C6.52219 10.1348 8.25912 11.8717 8.25912 14.0143Z" stroke="#40D8BD"/>
<path id="Ellipse 973" d="M75.8295 45.9857C75.8295 43.843 77.5664 42.1061 79.7091 42.1061C81.8517 42.1061 83.5886 43.843 83.5886 45.9857C83.5886 48.1283 81.8517 49.8652 79.7091 49.8652C77.5664 49.8652 75.8295 48.1283 75.8295 45.9857Z" stroke="#40D8BD"/>
<path id="Ellipse 968" d="M23.1493 31.5329C23.1493 33.6755 21.4123 35.4124 19.2697 35.4124C17.1271 35.4124 15.3901 33.6755 15.3901 31.5329C15.3901 29.3903 17.1271 27.6533 19.2697 27.6533C21.4123 27.6533 23.1493 29.3903 23.1493 31.5329Z" stroke="#40D8BD"/>
<path id="Ellipse 969" d="M67.8219 31.5329C67.8219 33.6755 66.0849 35.4124 63.9423 35.4124C61.7997 35.4124 60.0627 33.6755 60.0627 31.5329C60.0627 29.3903 61.7997 27.6533 63.9423 27.6533C66.0849 27.6533 67.8219 29.3903 67.8219 31.5329Z" stroke="#40D8BD"/>
</g>
</svg>
