<svg width="71" height="71" viewBox="0 0 71 71" fill="none" xmlns="http://www.w3.org/2000/svg">
<g id="Group 1925">
<path id="Ellipse 168" d="M35.5003 6.82227C29.1873 6.82227 23.0508 8.90536 18.0423 12.7485C13.0339 16.5916 9.43353 21.9799 7.79961 28.0778" stroke="#40D8BD"/>
<path id="Ellipse 169" d="M6.82178 35.5002C6.82178 41.8131 8.90487 47.9497 12.748 52.9582C16.5911 57.9666 21.9794 61.567 28.0773 63.2009" stroke="#40D8BD"/>
<path id="Ellipse 168_2" d="M41.9591 7.55898C48.1099 8.98088 53.6196 12.3926 57.6337 17.265C61.6479 22.1374 63.9421 28.1983 64.1606 34.5075" stroke="#40D8BD"/>
<path id="Ellipse 169_2" d="M63.441 41.9591C62.0191 48.1099 58.6074 53.6196 53.735 57.6337C48.8626 61.6479 42.8017 63.9421 36.4925 64.1606" stroke="#40D8BD"/>
<circle id="Ellipse 170" cx="17.3237" cy="12.5405" r="5.71824" fill="#515B6A" stroke="#22D7FF"/>
<circle id="Ellipse 171" cx="56.5464" cy="16.3667" r="5.71824" fill="#515B6A" stroke="#22D7FF"/>
<circle id="Ellipse 172" cx="54.6333" cy="56.5464" r="5.71824" fill="#515B6A" stroke="#22D7FF"/>
<circle id="Ellipse 173" cx="13.497" cy="52.7202" r="5.71824" fill="#515B6A" stroke="#22D7FF"/>
</g>
</svg>
