<svg width="73" height="62" viewBox="0 0 73 62" fill="none" xmlns="http://www.w3.org/2000/svg">
<g id="Group 2007">
<g id="Group 2004">
<circle id="Ellipse 1064" cx="35.7965" cy="30.9256" r="5.66682" stroke="#22D7FF"/>
<path id="Vector 154" d="M21.7285 33.4304V28.5162L25.5828 28.4199L26.5463 25.3365L24.0411 22.7348L27.4136 19.3624L30.2079 21.8676L33.1949 20.5186V17.0498H38.1091V20.615L41.2889 21.8676L43.8905 19.3624L47.3594 22.7348L44.7577 25.2401L46.1067 28.4199H49.8646V33.4304H46.1067L44.7577 36.3211L47.3594 39.0191L43.8905 42.3916L41.3852 39.9827L38.1091 41.428V44.7041H33.2913V41.428L30.2079 39.9827L27.6063 42.3916L24.3301 39.0191L26.6427 36.3211L25.5828 33.4304H21.7285Z" stroke="#40D8BD"/>
</g>
<g id="Group 2005">
<path id="Vector 155" d="M36.2962 15V1H9.13574V10.2593" stroke="#22D7FF"/>
<rect id="Rectangle 365" x="0.5" y="10.6357" width="17.2716" height="17.2716" stroke="#22D7FF"/>
<rect id="Rectangle 366" x="0.5" y="37.5498" width="17.2716" height="17.2716" stroke="#22D7FF"/>
<path id="Vector 156" d="M9.13574 28.4072V37.0492" stroke="#22D7FF"/>
</g>
<g id="Group 2006">
<path id="Vector 155_2" d="M35.8026 47.7901V61H62.9631V51.7407" stroke="#22D7FF"/>
<rect id="Rectangle 365_2" x="71.5989" y="51.3643" width="17.2716" height="17.2716" transform="rotate(180 71.5989 51.3643)" stroke="#22D7FF"/>
<rect id="Rectangle 366_2" x="71.5989" y="24.4502" width="17.2716" height="17.2716" transform="rotate(180 71.5989 24.4502)" stroke="#22D7FF"/>
<path id="Vector 156_2" d="M62.9631 33.5928V24.9508" stroke="#22D7FF"/>
</g>
</g>
</svg>
