<svg width="709" height="274" viewBox="0 0 709 274" fill="none" xmlns="http://www.w3.org/2000/svg">
<path d="M707.847 270.723C673.152 207.923 622.215 155.604 560.366 119.241C498.517 82.8781 428.03 63.8091 356.284 64.0297C284.538 64.2504 214.171 83.7525 152.546 120.495C90.9223 157.237 40.3076 209.869 6 272.881" stroke="#22D7FF" stroke-dasharray="2 2"/>
<path d="M538.949 271.787C520.99 239.305 494.621 212.244 462.605 193.436C430.588 174.628 394.1 164.765 356.96 164.879C319.82 164.994 283.394 175.081 251.494 194.085C219.594 213.089 193.392 240.311 175.633 272.903" stroke="#40D8BD"/>
<path d="M460.398 38.2658C460.657 38.1713 460.791 37.8843 460.696 37.6249L459.156 33.3968C459.061 33.1374 458.774 33.0037 458.515 33.0982C458.255 33.1928 458.122 33.4797 458.216 33.7392L459.586 37.4975L455.827 38.8669C455.568 38.9615 455.434 39.2484 455.529 39.5079C455.623 39.7673 455.91 39.901 456.17 39.8065L460.398 38.2658ZM385.957 22.5447L385.934 23.0441L385.957 22.5447ZM288.257 29.6748L288.346 30.1668L288.257 29.6748ZM194.386 57.197L194.584 57.6564L194.386 57.197ZM130.538 97.4319L136.128 95.9862L132.081 91.8683L130.538 97.4319ZM460.438 37.3428C441.993 28.7502 416.27 23.4756 385.981 22.0452L385.934 23.0441C416.152 24.4711 441.732 29.7317 460.015 38.2493L460.438 37.3428ZM385.981 22.0452C355.684 20.6145 321.902 23.0807 288.168 29.1828L288.346 30.1668C322.016 24.0764 355.722 21.6173 385.934 23.0441L385.981 22.0452ZM288.168 29.1828C254.433 35.2849 221.975 44.8006 194.189 56.7376L194.584 57.6564C222.291 45.7529 254.676 36.2572 288.346 30.1668L288.168 29.1828ZM194.189 56.7376C168.438 67.8003 147.556 80.5753 133.403 93.9152L134.089 94.6429C148.128 81.4101 168.897 68.6915 194.584 57.6564L194.189 56.7376Z" fill="#40D8BD"/>
<path d="M487.423 95.4823L503.258 71.9718L505.198 71.9983L504.233 67.0524L515.158 66.8559L516.19 72.1485L531.062 72.3518L548.302 49.4273L556.447 76.8581L540.356 98.9138L524.265 120.969L507.26 144.278L499.564 118.049L495.215 118.898L487.423 95.4823Z" fill="#515B6A"/>
<path d="M487.423 95.4823L503.258 71.9718L505.198 71.9983M487.423 95.4823L514.48 96.438M487.423 95.4823L495.215 118.898L499.564 118.049M514.48 96.438L531.062 72.3518M514.48 96.438L499.564 118.049M514.48 96.438L524.265 120.969M531.062 72.3518L548.302 49.4273L556.447 76.8581L540.356 98.9138M531.062 72.3518L540.356 98.9138M531.062 72.3518L516.19 72.1485M499.564 118.049L507.26 144.278L524.265 120.969M524.265 120.969L540.356 98.9138M505.198 71.9983L504.233 67.0524L515.158 66.8559L516.19 72.1485M505.198 71.9983L516.19 72.1485" stroke="#22D7FF"/>
<path d="M69.614 142.837L64.7305 96.2539L70.9578 98.9953L75.7314 144.53" stroke="#22D7FF"/>
<path d="M107.684 188.274L145.37 201.719L144.534 193.745L106.936 181.139" stroke="#22D7FF"/>
<path d="M63.2403 144.778L61.1909 146.913C56.9461 151.333 54.0439 157.159 55.3577 163.145C57.6981 173.809 65.5211 187.681 84.8036 196.516C92.1198 199.868 101.121 197.332 106.522 191.367V191.367" stroke="#22D7FF"/>
<path d="M94.2689 160.083C100.004 166.822 104.081 173.841 106.048 179.727C107.032 182.671 107.48 185.306 107.36 187.469C107.241 189.629 106.559 191.27 105.334 192.313C104.109 193.356 102.38 193.766 100.228 193.538C98.0742 193.311 95.5443 192.447 92.7955 191.005C87.3003 188.122 81.0239 182.974 75.2891 176.235C69.5544 169.497 65.4772 162.478 63.5099 156.592C62.5258 153.648 62.0782 151.013 62.1979 148.85C62.3175 146.69 62.9988 145.049 64.224 144.006C65.4492 142.963 67.1783 142.553 69.3303 142.781C71.4838 143.008 74.0137 143.872 76.7626 145.314C82.2577 148.197 88.5342 153.345 94.2689 160.083Z" fill="#515B6A" stroke="#22D7FF"/>
<path d="M6.33084 154.349L7.34958 147.878L64.071 168.874L67.381 176.164L6.33084 154.349Z" stroke="#22D7FF"/>
<path d="M80.6011 249.665L78.6063 188.141L85.2194 192.539L87.2481 252.362L80.6011 249.665Z" stroke="#22D7FF"/>
<path d="M91.1214 163.587C93.5762 166.175 95.4923 168.782 96.6104 170.896C97.1711 171.957 97.5171 172.867 97.6419 173.573C97.7708 174.302 97.6432 174.674 97.4659 174.843C97.2887 175.011 96.9104 175.119 96.1888 174.952C95.4903 174.79 94.5994 174.397 93.57 173.781C91.5175 172.554 89.0139 170.503 86.5591 167.916C84.1043 165.329 82.1882 162.721 81.0701 160.607C80.5094 159.547 80.1634 158.637 80.0386 157.93C79.9097 157.201 80.0373 156.829 80.2146 156.661C80.3919 156.493 80.7701 156.385 81.4917 156.552C82.1902 156.713 83.0811 157.107 84.1105 157.722C86.1631 158.95 88.6666 161 91.1214 163.587Z" stroke="#22D7FF"/>
<path d="M71.3469 171.505L77.9094 165.301M77.9094 165.301L83.4835 171.929M77.9094 165.301L75.7096 144.317M83.4835 171.929L76.7332 178.365M83.4835 171.929L91.288 179.597L106.958 181.348M94.5 159.902L104.364 152.557L106 154.902L96.5 162.402" stroke="#22D7FF"/>
<rect x="104.532" y="154.419" width="7" height="7" transform="rotate(-86.2274 104.532 154.419)" stroke="#22D7FF"/>
</svg>
