<svg width="719" height="385" viewBox="0 0 719 385" fill="none" xmlns="http://www.w3.org/2000/svg">
<path d="M496.5 314.5L506.5 324.5L516.5 314.5" stroke="#22D7FF"/>
<path d="M492.479 377.14C479.662 332.636 452.786 293.476 415.868 265.513C378.95 237.549 333.974 222.286 287.662 222.004C241.35 221.722 196.19 236.437 158.935 263.948C121.679 291.46 94.328 330.29 80.9707 374.635" stroke="#40D8BD"/>
<path d="M595.47 374.573C581.219 306.2 543.823 244.835 489.589 200.827C435.356 156.82 367.603 132.864 297.761 133.001C227.919 133.137 160.261 157.358 106.2 201.577C52.1389 245.797 14.9831 307.308 1 375.736" stroke="#22D7FF"/>
<path d="M506.965 384.903C513.584 309.323 494.381 237.276 451.775 174.5" stroke="#22D7FF" stroke-dasharray="2 2"/>
<path d="M612.292 95.4478L591.736 109.139L604.021 127.195L624.085 113.49M612.292 95.4478L624.085 113.49M612.292 95.4478C612.666 93.8183 613.905 90.5731 615.871 90.6282L630.026 112.181C628.856 112.968 626.03 114.332 624.085 113.49" stroke="#22D7FF"/>
<path d="M608.377 129.776L622.417 120.331L636.108 140.886L622.559 150.346L608.377 129.776Z" stroke="#22D7FF"/>
<path d="M577.691 83.6534L591.732 74.2075L605.423 94.7632L591.874 104.223L577.691 83.6534Z" stroke="#22D7FF"/>
<path d="M591.735 109.139C589.3 108.25 582.534 107.405 576.918 111.183L596.301 139.278C598.632 138.032 603.45 133.476 604.02 127.195" stroke="#22D7FF"/>
<circle cx="585.846" cy="126.193" r="1.96719" transform="rotate(91.607 585.846 126.193)" fill="#22D7FF"/>
<path d="M588.001 137.077C587.509 137.063 575.793 133.783 576.685 119.54" stroke="#22D7FF"/>
<path d="M586.359 142.936C585.376 142.908 570.106 138.432 571.309 118.898" stroke="#22D7FF"/>
<path d="M561.899 40.3574L655.85 186.049" stroke="#22D7FF"/>
<circle cx="451.774" cy="174.5" r="9" fill="#515B6A" stroke="#22D7FF"/>
<circle cx="474.274" cy="216" r="9.5" fill="#515B6A" stroke="#22D7FF"/>
<circle cx="492.274" cy="254" r="9.5" fill="#515B6A" stroke="#22D7FF"/>
<path d="M460.836 168.661C460.703 168.903 460.792 169.207 461.034 169.34L464.981 171.501C465.223 171.634 465.527 171.545 465.66 171.303C465.792 171.061 465.704 170.757 465.461 170.624L461.953 168.703L463.874 165.195C464.007 164.952 463.918 164.649 463.676 164.516C463.434 164.383 463.13 164.472 462.997 164.714L460.836 168.661ZM461.415 169.381L567.14 138.48L566.86 137.52L461.134 168.421L461.415 169.381Z" fill="#40D8BD"/>
<path d="M501.791 247.124C501.859 247.391 502.131 247.553 502.399 247.485L506.759 246.373C507.027 246.305 507.188 246.033 507.12 245.765C507.052 245.498 506.78 245.336 506.512 245.404L502.636 246.392L501.648 242.516C501.58 242.248 501.308 242.087 501.04 242.155C500.773 242.223 500.611 242.495 500.679 242.763L501.791 247.124ZM502.705 247.255L567.43 138.256L566.57 137.745L501.845 246.745L502.705 247.255Z" fill="#40D8BD"/>
<path d="M482.502 209.46C482.479 209.735 482.685 209.976 482.96 209.998L487.445 210.359C487.721 210.381 487.962 210.176 487.984 209.901C488.006 209.625 487.801 209.384 487.526 209.362L483.538 209.042L483.859 205.055C483.881 204.779 483.676 204.538 483.401 204.516C483.125 204.494 482.884 204.699 482.862 204.974L482.502 209.46ZM483.324 209.881L567.324 138.381L566.676 137.619L482.676 209.119L483.324 209.881Z" fill="#40D8BD"/>
</svg>
