<svg width="76" height="70" viewBox="0 0 76 70" fill="none" xmlns="http://www.w3.org/2000/svg">
<g id="Group 1471">
<path id="Ellipse 174" d="M51.8384 35C51.8384 44.6157 50.2401 53.2976 47.6749 59.5567C46.3918 62.6874 44.8767 65.1876 43.2203 66.897C41.5654 68.605 39.8016 69.4935 38.0006 69.4935C36.1996 69.4935 34.4359 68.605 32.781 66.897C31.1245 65.1876 29.6095 62.6874 28.3264 59.5567C25.7612 53.2976 24.1629 44.6157 24.1629 35C24.1629 25.3843 25.7612 16.7024 28.3264 10.4433C29.6095 7.31258 31.1245 4.81244 32.781 3.10295C34.4359 1.39499 36.1996 0.506527 38.0006 0.506527C39.8016 0.506527 41.5654 1.39499 43.2203 3.10295C44.8767 4.81244 46.3918 7.31258 47.6749 10.4433C50.2401 16.7024 51.8384 25.3843 51.8384 35Z" stroke="#22D7FF" stroke-width="1.01305"/>
<path id="Ellipse 175" d="M44.919 46.9835C36.5916 51.7913 28.2737 54.7481 21.5706 55.6561C18.2177 56.1103 15.295 56.0483 12.9863 55.4685C10.6797 54.8893 9.02843 53.8061 8.12793 52.2464C7.22744 50.6867 7.115 48.715 7.76667 46.4278C8.41892 44.1386 9.82658 41.5764 11.8964 38.8998C16.0343 33.5488 22.7538 27.8237 31.0813 23.0158C39.4088 18.2079 47.7266 15.2512 54.4297 14.3432C57.7826 13.889 60.7053 13.951 63.014 14.5308C65.3206 15.11 66.9719 16.1932 67.8724 17.7529C68.7729 19.3126 68.8853 21.2843 68.2336 23.5715C67.5814 25.8607 66.1737 28.4229 64.104 31.0995C59.966 36.4505 53.2465 42.1756 44.919 46.9835Z" stroke="#22D7FF" stroke-width="1.01305"/>
<path id="Ellipse 176" d="M31.0814 46.9835C22.7539 42.1756 16.0344 36.4505 11.8965 31.0994C9.82668 28.4229 8.41902 25.8607 7.76677 23.5715C7.1151 21.2843 7.22754 19.3126 8.12804 17.7529C9.02853 16.1932 10.6798 15.11 12.9864 14.5308C15.2951 13.951 18.2178 13.889 21.5707 14.3432C28.2738 15.2512 36.5917 18.2079 44.9191 23.0158C53.2466 27.8237 59.9661 33.5488 64.1041 38.8998C66.1738 41.5764 67.5815 44.1386 68.2337 46.4278C68.8854 48.715 68.773 50.6867 67.8725 52.2464C66.972 53.8061 65.3207 54.8893 63.0141 55.4685C60.7054 56.0483 57.7827 56.1103 54.4298 55.6561C47.7267 54.7481 39.4089 51.7913 31.0814 46.9835Z" stroke="#22D7FF" stroke-width="1.01305"/>
<path id="Vector" d="M38.2434 41.3113C38.1939 41.3114 38.1448 41.3016 38.0991 41.2826C38.0534 41.2636 38.0118 41.2358 37.9769 41.2006L32.6135 35.8278C32.2714 35.5125 31.9966 35.1313 31.8055 34.707C31.6144 34.2828 31.511 33.8243 31.5016 33.3592C31.4921 32.894 31.5768 32.4317 31.7504 32C31.9241 31.5684 32.1832 31.1763 32.5122 30.8473C32.8412 30.5183 33.2333 30.2592 33.665 30.0855C34.0966 29.9118 34.5589 29.8272 35.0241 29.8367C35.4893 29.8461 35.9477 29.9495 36.372 30.1406C36.7962 30.3317 37.1774 30.6065 37.4928 30.9486L38.2434 31.6993L38.9941 30.9486C39.6417 30.3027 40.519 29.9401 41.4337 29.9401C42.3483 29.9401 43.2257 30.3027 43.8733 30.9486C44.5196 31.596 44.8826 32.4734 44.8826 33.3882C44.8826 34.303 44.5196 35.1804 43.8733 35.8278L38.508 41.2006C38.4632 41.2457 38.4077 41.2786 38.3466 41.2963C38.313 41.3059 38.2783 41.311 38.2434 41.3113ZM35.0531 30.684C34.5182 30.6827 33.9948 30.8402 33.5494 31.1366C33.1041 31.433 32.7567 31.8549 32.5513 32.3489C32.3459 32.8428 32.2917 33.3867 32.3957 33.9115C32.4996 34.4363 32.757 34.9184 33.1352 35.2968L38.2434 40.4049L43.3497 35.2968C43.8566 34.7901 44.1415 34.1028 44.1417 33.3861C44.1419 32.6694 43.8573 31.9819 43.3507 31.475C43.0998 31.224 42.8019 31.0249 42.4741 30.889C42.1462 30.7531 41.7949 30.6831 41.44 30.683C40.7233 30.6829 40.0358 30.9674 39.5289 31.4741L38.508 32.495C38.4362 32.5628 38.3412 32.6006 38.2425 32.6006C38.1437 32.6006 38.0487 32.5628 37.9769 32.495L36.956 31.4759C36.7067 31.225 36.4102 31.0259 36.0837 30.89C35.7571 30.7541 35.4069 30.6841 35.0531 30.684Z" fill="#40D8BD"/>
</g>
</svg>
