<svg width="70" height="71" viewBox="0 0 70 71" fill="none" xmlns="http://www.w3.org/2000/svg">
<g id="Group 1465">
<g id="Group 1464">
<circle id="Ellipse 159" cx="34.3315" cy="4.90446" r="4.40446" stroke="#22D7FF"/>
<circle id="Ellipse 160" cx="59.2996" cy="20.0636" r="4.40446" stroke="#22D7FF"/>
<circle id="Ellipse 161" cx="10.255" cy="20.0636" r="4.40446" stroke="#22D7FF"/>
<circle id="Ellipse 162" cx="10.255" cy="48.5988" r="4.40446" stroke="#22D7FF"/>
<circle id="Ellipse 163" cx="58.4079" cy="47.7072" r="4.40446" stroke="#22D7FF"/>
<path id="Vector 38" d="M13.376 17.3886L30.3187 7.57965M38.3442 7.13379L55.7327 17.3886M58.8537 24.9682V43.6943M9.80914 44.586V24.9682M13.376 45.9236L25.8601 36.5605M14.7136 21.8472L27.6435 27.1975M34.7773 10.2548V24.0765M54.841 21.8472L42.3569 27.1975M43.6945 37.0064L54.841 45.0319" stroke="#22D7FF"/>
<path id="Vector 40" d="M14.2678 50.8282L17.3888 52.6117M51.72 51.72L54.3952 49.9365" stroke="#22D7FF"/>
</g>
<circle id="Ellipse 164" cx="34.7771" cy="32.9935" r="9.30892" stroke="#40D8BD"/>
<path id="Vector 39" d="M0 69.5537H70" stroke="#40D8BD"/>
<path id="Vector 41" d="M16.051 70V55.2866C17.0913 51.8684 21.3121 45.5669 29.8726 47.707L34.3312 53.0573L38.344 47.707C41.7622 46.8153 49.9363 47.2611 53.0573 55.2866C53.0573 55.7325 52.9087 65.0955 53.0573 70" stroke="#40D8BD"/>
</g>
</svg>
