<svg width="74" height="56" viewBox="0 0 74 56" fill="none" xmlns="http://www.w3.org/2000/svg">
<g id="Group 2058">
<path id="Vector 166" d="M22.2612 5.69565V1H51.6091V5.69565H22.2612Z" stroke="#40D8BD"/>
<path id="Vector 171" d="M2.15667 22L11.3211 22C11.9601 22 12.478 22.518 12.478 23.1569L12.478 53.1909C12.478 53.8299 11.9601 54.3478 11.3211 54.3478L2.15667 54.3478C1.51773 54.3478 0.999767 53.8299 0.999767 53.1909L0.999768 23.1569C0.999768 22.518 1.51773 22 2.15667 22Z" stroke="#22D7FF"/>
<path id="Vector 172" d="M62.6786 22L71.8431 22C72.482 22 73 22.518 73 23.1569L73 53.1909C73 53.8299 72.482 54.3478 71.8431 54.3478L62.6786 54.3478C62.0397 54.3478 61.5217 53.8299 61.5217 53.1909L61.5217 23.1569C61.5217 22.518 62.0397 22 62.6786 22Z" stroke="#22D7FF"/>
<path id="Vector 167" d="M26.5654 15.7399V12.3486H47.6959V15.7399H26.5654Z" stroke="#22D7FF"/>
<path id="Vector 168" d="M40.7826 12.4789V5.69629M32.9565 12.3485V5.69629" stroke="#40D8BD"/>
<path id="Vector 169" d="M28.6519 15.7393C29.3041 25.1306 26.8259 29.0436 12.478 28.0001" stroke="#22D7FF"/>
<path id="Vector 170" d="M45.4418 15.7393C44.7896 25.1306 47.2679 29.0436 61.6157 28.0001" stroke="#22D7FF"/>
<path id="Vector 173" d="M12.478 48.0869H26.4345C28.6519 53.6956 39.8693 60.6087 47.1737 48.0869C47.278 48.0869 56.7824 48.0869 61.5215 48.0869" stroke="#22D7FF"/>
</g>
</svg>
