<svg width="169" height="140" viewBox="0 0 169 140" fill="none" xmlns="http://www.w3.org/2000/svg">
<g id="Frame 1113" clip-path="url(#clip0_1592_1158)">
<g id="Group 2073">
<path id="Line 169" d="M74.4146 99.8335C74.4146 99.5573 74.1907 99.3335 73.9146 99.3335L69.4146 99.3335C69.1384 99.3335 68.9146 99.5573 68.9146 99.8335C68.9146 100.11 69.1384 100.333 69.4146 100.333L73.4146 100.333L73.4146 104.333C73.4146 104.61 73.6384 104.833 73.9146 104.833C74.1907 104.833 74.4146 104.61 74.4146 104.333L74.4146 99.8335ZM46.3164 128.139L47.0152 127.44L46.3081 126.733L45.6093 127.432L46.3164 128.139ZM48.4128 126.042L49.8104 124.645L49.1033 123.938L47.7057 125.335L48.4128 126.042ZM51.208 123.247L52.6056 121.85L51.8985 121.142L50.5009 122.54L51.208 123.247ZM54.0032 120.452L55.4007 119.054L54.6936 118.347L53.2961 119.745L54.0032 120.452ZM56.7983 117.657L58.1959 116.259L57.4888 115.552L56.0912 116.95L56.7983 117.657ZM59.5935 114.862L60.9911 113.464L60.284 112.757L58.8864 114.155L59.5935 114.862ZM62.3887 112.066L63.7862 110.669L63.0791 109.962L61.6816 111.359L62.3887 112.066ZM65.1838 109.271L66.5814 107.874L65.8743 107.167L64.4767 108.564L65.1838 109.271ZM67.979 106.476L69.3766 105.079L68.6695 104.371L67.2719 105.769L67.979 106.476ZM70.7742 103.681L72.1718 102.283L71.4646 101.576L70.0671 102.974L70.7742 103.681ZM73.5693 100.886L74.2681 100.187L73.561 99.4799L72.8622 100.179L73.5693 100.886Z" fill="#22D7FF"/>
<ellipse id="Ellipse 201" cx="92.7228" cy="59.7228" rx="15.7228" ry="15.7228" fill="#40D8BD"/>
<path id="Line 167" d="M66.2509 73.043C66.2509 72.7669 66.027 72.543 65.7509 72.543L61.2509 72.543C60.9748 72.543 60.7509 72.7669 60.7509 73.043C60.7509 73.3192 60.9748 73.543 61.2509 73.543L65.2509 73.543L65.2509 77.543C65.2509 77.8192 65.4748 78.043 65.7509 78.043C66.027 78.043 66.2509 77.8192 66.2509 77.543L66.2509 73.043ZM33.4942 106.007L34.1736 105.327L33.4665 104.62L32.7871 105.3L33.4942 106.007ZM35.5323 103.969L36.8911 102.61L36.184 101.903L34.8252 103.262L35.5323 103.969ZM38.2498 101.251L39.6086 99.8924L38.9015 99.1853L37.5427 100.544L38.2498 101.251ZM40.9674 98.5337L42.3261 97.1749L41.619 96.4678L40.2603 97.8266L40.9674 98.5337ZM43.6849 95.8162L45.0437 94.4574L44.3365 93.7503L42.9778 95.1091L43.6849 95.8162ZM46.4024 93.0986L47.7612 91.7399L47.0541 91.0328L45.6953 92.3915L46.4024 93.0986ZM49.1199 90.3811L50.4787 89.0224L49.7716 88.3152L48.4128 89.674L49.1199 90.3811ZM51.8375 87.6636L53.1962 86.3048L52.4891 85.5977L51.1304 86.9565L51.8375 87.6636ZM54.555 84.9461L55.9137 83.5873L55.2066 82.8802L53.8479 84.239L54.555 84.9461ZM57.2725 82.2285L58.6313 80.8698L57.9242 80.1627L56.5654 81.5214L57.2725 82.2285ZM59.99 79.511L61.3488 78.1523L60.6417 77.4452L59.2829 78.8039L59.99 79.511ZM62.7075 76.7935L64.0663 75.4347L63.3592 74.7276L62.0004 76.0864L62.7075 76.7935ZM65.4251 74.076L66.1045 73.3966L65.3974 72.6895L64.718 73.3689L65.4251 74.076Z" fill="#22D7FF"/>
<line id="Line 171" x1="49.0869" y1="107.63" x2="121.295" y2="35.4214" stroke="#40D8BD"/>
<path id="Ellipse 199" d="M150.265 60.2326C150.265 92.1175 124.417 117.965 92.5325 117.965C60.6476 117.965 34.7998 92.1175 34.7998 60.2326C34.7998 28.3478 60.6476 2.5 92.5325 2.5C124.417 2.5 150.265 28.3478 150.265 60.2326Z" stroke="#22D7FF"/>
<path id="Vector 78" d="M18.4768 122.807C18.3019 122.594 17.9869 122.562 17.7732 122.737L14.2904 125.587C14.0767 125.761 14.0452 126.076 14.22 126.29C14.3949 126.504 14.7099 126.535 14.9236 126.361L18.0195 123.828L20.5524 126.923C20.7273 127.137 21.0423 127.169 21.256 126.994C21.4697 126.819 21.5012 126.504 21.3264 126.29L18.4768 122.807ZM32.4777 137.965C32.6341 137.738 32.5765 137.427 32.3489 137.27L28.6407 134.721C28.4132 134.564 28.1019 134.622 27.9455 134.85C27.789 135.077 27.8467 135.388 28.0742 135.545L31.3704 137.811L29.1043 141.107C28.9478 141.335 29.0055 141.646 29.233 141.802C29.4606 141.959 29.7719 141.901 29.9283 141.674L32.4777 137.965ZM17.5923 123.074C17.2951 126.046 17.6433 130.393 19.7181 133.725C20.7622 135.401 22.2472 136.825 24.3033 137.671C26.3567 138.517 28.9401 138.769 32.1567 138.174L31.9746 137.191C28.9021 137.76 26.5211 137.503 24.6839 136.747C22.8493 135.992 21.5173 134.722 20.567 133.196C18.6528 130.122 18.3022 126.025 18.5873 123.174L17.5923 123.074Z" fill="#40D8BD"/>
<path id="Ellipse 200" d="M130.468 60.2343C130.468 81.1844 113.484 98.1679 92.5341 98.1679C71.584 98.1679 54.6006 81.1844 54.6006 60.2343C54.6006 39.2842 71.584 22.3008 92.5341 22.3008C113.484 22.3008 130.468 39.2842 130.468 60.2343Z" stroke="#22D7FF"/>
<g id="Group 1555">
<g id="Group 1553">
<g id="Group 1549">
<g id="Group 1554">
<g id="Ellipse 193" filter="url(#filter0_f_1592_1158)">
<path d="M126.045 36.2747C126.045 39.1209 123.738 41.4283 120.892 41.4283C118.046 41.4283 115.738 39.1209 115.738 36.2747C115.738 33.4284 118.046 31.1211 120.892 31.1211C123.738 31.1211 126.045 33.4284 126.045 36.2747Z" fill="#40D8BD"/>
</g>
</g>
</g>
</g>
</g>
<g id="Ellipse 193_2" filter="url(#filter1_f_1592_1158)">
<path d="M144 95C144 97.7614 141.761 100 139 100C136.239 100 134 97.7614 134 95C134 92.2386 136.239 90 139 90C141.761 90 144 92.2386 144 95Z" fill="url(#paint0_radial_1592_1158)"/>
<path d="M144 95C144 97.7614 141.761 100 139 100C136.239 100 134 97.7614 134 95C134 92.2386 136.239 90 139 90C141.761 90 144 92.2386 144 95Z" fill="url(#paint1_radial_1592_1158)"/>
</g>
</g>
</g>
<defs>
<filter id="filter0_f_1592_1158" x="113.843" y="29.2255" width="14.0987" height="14.0987" filterUnits="userSpaceOnUse" color-interpolation-filters="sRGB">
<feFlood flood-opacity="0" result="BackgroundImageFix"/>
<feBlend mode="normal" in="SourceGraphic" in2="BackgroundImageFix" result="shape"/>
<feGaussianBlur stdDeviation="0.947778" result="effect1_foregroundBlur_1592_1158"/>
</filter>
<filter id="filter1_f_1592_1158" x="132.104" y="88.1044" width="13.7911" height="13.7911" filterUnits="userSpaceOnUse" color-interpolation-filters="sRGB">
<feFlood flood-opacity="0" result="BackgroundImageFix"/>
<feBlend mode="normal" in="SourceGraphic" in2="BackgroundImageFix" result="shape"/>
<feGaussianBlur stdDeviation="0.947778" result="effect1_foregroundBlur_1592_1158"/>
</filter>
<radialGradient id="paint0_radial_1592_1158" cx="0" cy="0" r="1" gradientUnits="userSpaceOnUse" gradientTransform="translate(139 95) rotate(90) scale(25.625 25.625)">
<stop stop-color="white"/>
<stop offset="1" stop-color="#FFEDCA" stop-opacity="0"/>
</radialGradient>
<radialGradient id="paint1_radial_1592_1158" cx="0" cy="0" r="1" gradientUnits="userSpaceOnUse" gradientTransform="translate(139 95) rotate(90) scale(25.625 25.625)">
<stop stop-color="white"/>
<stop offset="1" stop-color="#FFEDCA" stop-opacity="0"/>
</radialGradient>
<clipPath id="clip0_1592_1158">
<rect width="169" height="140" fill="white"/>
</clipPath>
</defs>
</svg>
