<svg width="80" height="70" viewBox="0 0 80 70" fill="none" xmlns="http://www.w3.org/2000/svg">
<g id="Group 1462">
<path id="Ellipse 153" d="M5.85653 19.2266C6.41429 18.0195 7.8084 17.1568 10.0717 16.7392C12.319 16.3246 15.3066 16.374 18.8421 16.8807C25.9065 17.893 35.0418 20.7134 44.5625 25.1126C54.0833 29.5118 62.1518 34.6408 67.5013 39.3644C70.1786 41.7285 72.1525 43.9716 73.2933 45.9518C74.4422 47.946 74.6887 49.5668 74.131 50.7739C73.5732 51.981 72.1791 52.8437 69.9158 53.2613C67.6685 53.6759 64.6809 53.6265 61.1454 53.1199C54.081 52.1075 44.9457 49.2871 35.425 44.8879C25.9043 40.4887 17.8357 35.3598 12.4862 30.6361C9.80895 28.2721 7.83499 26.0289 6.69423 24.0488C5.54536 22.0545 5.29877 20.4337 5.85653 19.2266Z" stroke="#22D7FF"/>
<path id="Ellipse 158" d="M66.5848 8.40867C67.5251 9.34893 67.8533 10.9552 67.4637 13.2235C67.0769 15.4757 65.9989 18.2625 64.3026 21.4056C60.9132 27.6859 55.1119 35.2854 47.6958 42.7016C40.2797 50.1177 32.6802 55.919 26.3999 59.3084C23.2568 61.0046 20.47 62.0826 18.2177 62.4695C15.9494 62.8591 14.3432 62.5309 13.4029 61.5906C12.4627 60.6503 12.1344 59.0441 12.524 56.7758C12.9109 54.5235 13.9889 51.7368 15.6852 48.5937C19.0746 42.3134 24.8758 34.7138 32.292 27.2977C39.7081 19.8816 47.3076 14.0803 53.5879 10.6909C56.731 8.99463 59.5178 7.91663 61.77 7.52978C64.0383 7.14018 65.6446 7.46841 66.5848 8.40867Z" stroke="#22D7FF"/>
<path id="Ellipse 154" d="M15.8005 53.4839C15.8005 55.0434 14.5363 56.3076 12.9768 56.3076C11.4173 56.3076 10.1531 55.0434 10.1531 53.4839C10.1531 51.9244 11.4173 50.6602 12.9768 50.6602C14.5363 50.6602 15.8005 51.9244 15.8005 53.4839Z" fill="#515B6A" stroke="#22D7FF"/>
<g id="Group 1460">
<g id="Group">
<path id="Vector" d="M41.5646 38.9944L37.451 38.9385V38.68C37.451 37.5425 37.1203 36.6011 36.3455 35.5307C35.8629 34.8641 35.6165 34.0772 35.6328 33.2557C35.6754 31.1621 37.3774 29.5293 39.5121 29.5293C39.5192 29.5293 39.5263 29.5293 39.5334 29.5293C41.6616 29.54 43.3935 31.2464 43.3935 33.3329C43.3935 34.129 43.1445 34.8916 42.6746 35.5378C41.9385 36.5503 41.5646 37.6243 41.5646 38.7282V38.9944ZM37.9692 38.4219L41.0474 38.4635C41.1022 37.3403 41.5066 36.2541 42.2509 35.2304C42.6558 34.6741 42.8697 34.0183 42.8697 33.3334C42.8697 31.535 41.372 30.0632 39.5309 30.0541C39.5248 30.0541 39.5187 30.0541 39.5126 30.0541C37.6659 30.0541 36.1936 31.4618 36.1571 33.2669C36.1428 33.9741 36.3552 34.6508 36.7708 35.2248C37.545 36.2942 37.9204 37.2905 37.9692 38.4219Z" fill="#40D8BD"/>
<path id="Vector_2" d="M39.5441 42.2051H39.5223C39.347 42.2051 37.4495 41.98 37.4495 41.2652V39.5049H41.5951V41.2642C41.5951 41.4115 41.5951 41.8606 39.566 42.2015L39.5441 42.2051ZM37.9733 40.0287V41.2652C38.0851 41.4059 39.1108 41.6716 39.502 41.6808C40.2112 41.5599 40.9158 41.3495 41.0708 41.2154V40.0287H37.9733Z" fill="#40D8BD"/>
</g>
<path id="Vector_3" d="M45.5795 33.4817H44.624C44.4672 33.4817 44.3397 33.3681 44.3397 33.2276C44.3397 33.0872 44.4668 32.9736 44.624 32.9736H45.5795C45.7363 32.9736 45.8638 33.0872 45.8638 33.2276C45.8638 33.3681 45.7367 33.4817 45.5795 33.4817Z" fill="#40D8BD"/>
<path id="Vector_4" d="M44.5756 29.812L43.8874 30.5001C43.7745 30.6131 43.6024 30.6246 43.503 30.5253C43.4037 30.426 43.415 30.2542 43.5282 30.1409L44.2164 29.4527C44.3294 29.3397 44.5015 29.3282 44.6008 29.4276C44.7001 29.5269 44.6889 29.6987 44.5756 29.812Z" fill="#40D8BD"/>
<path id="Vector_5" d="M39.767 27.6694L39.767 28.6249C39.767 28.7817 39.6535 28.9092 39.513 28.9092C39.3725 28.9092 39.259 28.7821 39.259 28.6249L39.259 27.6694C39.259 27.5126 39.3725 27.3851 39.513 27.3851C39.6535 27.3851 39.767 27.5122 39.767 27.6694Z" fill="#40D8BD"/>
<path id="Vector_6" d="M35.0692 29.44L35.7674 30.1381C35.882 30.2527 35.8948 30.4261 35.7955 30.5255C35.6962 30.6248 35.523 30.6122 35.4082 30.4973L34.71 29.7992C34.5954 29.6846 34.5826 29.5111 34.6819 29.4118C34.7812 29.3125 34.9544 29.3251 35.0692 29.44Z" fill="#40D8BD"/>
<path id="Vector_7" d="M33.4474 32.9734L34.4029 32.9734C34.5597 32.9734 34.6872 33.087 34.6872 33.2274C34.6872 33.3679 34.5601 33.4814 34.4029 33.4814L33.4474 33.4814C33.2906 33.4814 33.1631 33.3679 33.1631 33.2274C33.1631 33.087 33.2902 32.9734 33.4474 32.9734Z" fill="#40D8BD"/>
</g>
</g>
</svg>
