<svg width="177" height="40" viewBox="0 0 177 40" fill="none" xmlns="http://www.w3.org/2000/svg">
<path d="M79.51 23.09H68.4302V3.60999H72.7402V18.7799H79.5701C83.6201 18.7799 87.0402 15.4699 86.9702 11.4199C86.9002 7.48992 83.6802 4.30994 79.7302 4.30994H68.4302V0H79.7302C86.1902 0 91.43 5.32996 91.27 11.83C91.11 18.33 85.81 23.1 79.51 23.1V23.09Z" fill="white"/>
<path d="M109.19 17.1899H104.88V22.99H109.19V17.1899Z" fill="white"/>
<path d="M117.61 23.1399H122.41L131.18 5.33997C131.64 4.40997 132.49 4.30994 132.84 4.30994C133.19 4.30994 134.04 4.40997 134.5 5.33997L143.28 23.1399H148.08L138.37 3.42993C137.33 1.30993 135.21 0 132.85 0C130.49 0 128.37 1.31993 127.33 3.42993L117.62 23.1399H117.61Z" fill="white"/>
<path d="M108.57 9.86987C108.08 10.6199 107.33 10.6998 107.03 10.6998C106.73 10.6998 105.98 10.6199 105.49 9.86987L99.0203 0.0698242H93.8604L101.89 12.2399C103.03 13.9699 104.95 15.0098 107.03 15.0098C109.1 15.0098 111.02 13.9799 112.17 12.2399L120.2 0.0698242H115.04L108.57 9.86987Z" fill="white"/>
<path d="M157.89 0.219727H153.58V23.1396H157.89V0.219727Z" fill="white"/>
<path d="M176.43 0.219727H172.12V23.1396H176.43V0.219727Z" fill="white"/>
<path d="M174.28 9.52979H155.74V13.8398H174.28V9.52979Z" fill="white"/>
<path d="M32.8701 23.1399H37.6702L46.4402 5.33997C46.9002 4.40997 47.7501 4.30994 48.1001 4.30994C48.4501 4.30994 49.3 4.40997 49.76 5.33997L58.54 23.1399H63.3401L53.6301 3.42993C52.5901 1.30993 50.4701 0 48.1101 0C45.7501 0 43.6301 1.31993 42.5901 3.42993L32.8801 23.1399H32.8701Z" fill="white"/>
<path d="M0 23.1399H4.80005L13.5701 5.33997C14.0301 4.40997 14.8802 4.30994 15.2302 4.30994C15.5802 4.30994 16.4301 4.40997 16.8901 5.33997L25.6702 23.1399H30.4702L20.76 3.42993C19.72 1.30993 17.6002 0 15.2402 0C12.8802 0 10.7602 1.31993 9.72021 3.42993L0.0100098 23.1399H0Z" fill="white"/>
<path d="M37.1742 37.7338C36.5502 37.7338 35.9662 37.6938 35.4222 37.6138C34.8782 37.5418 34.4022 37.4098 33.9942 37.2178C33.5862 37.0178 33.2662 36.7418 33.0342 36.3898C32.8102 36.0378 32.6982 35.5858 32.6982 35.0338C32.6982 35.0178 32.6982 34.9978 32.6982 34.9738C32.6982 34.9498 32.7022 34.9298 32.7102 34.9138H34.5102C34.5022 34.9458 34.4942 34.9858 34.4862 35.0338C34.4862 35.0738 34.4862 35.1218 34.4862 35.1778C34.4862 35.4258 34.5942 35.6298 34.8102 35.7898C35.0262 35.9418 35.3342 36.0538 35.7342 36.1258C36.1342 36.1978 36.6022 36.2338 37.1382 36.2338C37.3702 36.2338 37.6022 36.2258 37.8342 36.2098C38.0742 36.1858 38.3022 36.1538 38.5182 36.1138C38.7342 36.0738 38.9262 36.0178 39.0942 35.9458C39.2702 35.8738 39.4062 35.7858 39.5022 35.6818C39.6062 35.5698 39.6582 35.4418 39.6582 35.2978C39.6582 35.0898 39.5622 34.9258 39.3702 34.8058C39.1862 34.6778 38.9342 34.5738 38.6142 34.4938C38.2942 34.4138 37.9342 34.3458 37.5342 34.2898C37.1342 34.2338 36.7182 34.1738 36.2862 34.1098C35.8622 34.0378 35.4502 33.9458 35.0502 33.8338C34.6502 33.7138 34.2902 33.5618 33.9702 33.3778C33.6502 33.1938 33.3942 32.9578 33.2022 32.6698C33.0182 32.3738 32.9262 32.0138 32.9262 31.5898C32.9262 31.2058 33.0182 30.8658 33.2022 30.5698C33.3862 30.2738 33.6582 30.0258 34.0182 29.8258C34.3782 29.6178 34.8182 29.4618 35.3382 29.3578C35.8662 29.2538 36.4702 29.2018 37.1502 29.2018C37.8382 29.2018 38.4382 29.2578 38.9502 29.3698C39.4622 29.4818 39.8862 29.6418 40.2222 29.8498C40.5582 30.0578 40.8062 30.3098 40.9662 30.6058C41.1342 30.8938 41.2182 31.2178 41.2182 31.5778V31.7698H39.4422V31.6138C39.4422 31.4378 39.3462 31.2818 39.1542 31.1458C38.9622 31.0098 38.7022 30.9018 38.3742 30.8218C38.0462 30.7418 37.6742 30.7018 37.2582 30.7018C36.6822 30.7018 36.2142 30.7378 35.8542 30.8098C35.4942 30.8818 35.2302 30.9818 35.0622 31.1098C34.8942 31.2298 34.8102 31.3658 34.8102 31.5178C34.8102 31.7018 34.9022 31.8498 35.0862 31.9618C35.2782 32.0738 35.5342 32.1658 35.8542 32.2378C36.1742 32.3018 36.5342 32.3618 36.9342 32.4178C37.3342 32.4738 37.7462 32.5378 38.1702 32.6098C38.6022 32.6818 39.0182 32.7738 39.4182 32.8858C39.8182 32.9978 40.1782 33.1498 40.4982 33.3418C40.8182 33.5258 41.0702 33.7618 41.2542 34.0498C41.4462 34.3298 41.5422 34.6778 41.5422 35.0938C41.5422 35.7338 41.3582 36.2498 40.9902 36.6418C40.6222 37.0258 40.1102 37.3058 39.4542 37.4818C38.7982 37.6498 38.0382 37.7338 37.1742 37.7338ZM59.5495 37.5898V29.3458H65.5975C66.1335 29.3458 66.5975 29.4618 66.9895 29.6938C67.3895 29.9258 67.6975 30.2458 67.9135 30.6538C68.1375 31.0538 68.2495 31.5178 68.2495 32.0458C68.2495 32.5658 68.1375 33.0338 67.9135 33.4498C67.6895 33.8578 67.3735 34.1778 66.9655 34.4098C66.5655 34.6418 66.0935 34.7578 65.5495 34.7578H61.3735V37.5898H59.5495ZM61.3735 33.2338H65.0455C65.4695 33.2338 65.7975 33.1298 66.0295 32.9218C66.2695 32.7138 66.3895 32.4258 66.3895 32.0578C66.3895 31.8098 66.3375 31.5978 66.2335 31.4218C66.1295 31.2458 65.9775 31.1098 65.7775 31.0138C65.5775 30.9178 65.3335 30.8698 65.0455 30.8698H61.3735V33.2338ZM84.3071 37.5898L88.4351 29.3458H90.4991L94.6271 37.5898H92.6231L91.8431 35.9938H86.9591L86.1791 37.5898H84.3071ZM87.6791 34.5178H91.1231L90.1631 32.5018C90.1231 32.4138 90.0631 32.2858 89.9831 32.1178C89.9111 31.9418 89.8351 31.7658 89.7551 31.5898C89.6831 31.4058 89.6151 31.2498 89.5511 31.1218C89.4951 30.9858 89.4631 30.9138 89.4551 30.9058H89.3591C89.2871 31.0658 89.2031 31.2498 89.1071 31.4578C89.0191 31.6658 88.9311 31.8658 88.8431 32.0578C88.7631 32.2498 88.6951 32.4018 88.6391 32.5138L87.6791 34.5178ZM116.493 37.7338C115.381 37.7338 114.449 37.5738 113.697 37.2538C112.945 36.9258 112.381 36.4458 112.005 35.8138C111.629 35.1738 111.441 34.3898 111.441 33.4618C111.441 32.1018 111.873 31.0538 112.737 30.3178C113.601 29.5738 114.849 29.2018 116.481 29.2018C117.409 29.2018 118.225 29.3338 118.929 29.5978C119.641 29.8618 120.193 30.2418 120.585 30.7378C120.985 31.2338 121.185 31.8338 121.185 32.5378H119.397C119.397 32.1378 119.273 31.8058 119.025 31.5418C118.777 31.2698 118.433 31.0658 117.993 30.9298C117.553 30.7938 117.037 30.7258 116.445 30.7258C115.805 30.7258 115.249 30.8298 114.777 31.0378C114.313 31.2378 113.953 31.5298 113.697 31.9138C113.441 32.2978 113.313 32.7618 113.313 33.3058V33.6058C113.313 34.1578 113.441 34.6298 113.697 35.0218C113.953 35.4058 114.317 35.7018 114.789 35.9098C115.261 36.1098 115.817 36.2098 116.457 36.2098C117.073 36.2098 117.601 36.1458 118.041 36.0178C118.489 35.8818 118.833 35.6818 119.073 35.4178C119.321 35.1458 119.445 34.8138 119.445 34.4218H121.197C121.197 35.1098 121.001 35.7018 120.609 36.1978C120.217 36.6938 119.669 37.0738 118.965 37.3378C118.261 37.6018 117.437 37.7338 116.493 37.7338ZM139.357 37.5898V29.3458H147.697V30.8698H141.181V32.6338H146.977V34.1578H141.181V36.0658H147.793V37.5898H139.357Z" fill="white"/>
</svg>
