<svg width="82" height="82" viewBox="0 0 82 82" fill="none" xmlns="http://www.w3.org/2000/svg">
<g id="Group 2056">
<path id="Vector 158" d="M55.8664 13.4399L58.6273 16.2008M68.7333 26.3068L65.3473 22.9208M58.6273 16.2008L50.8655 23.9626L48.4693 21.5663L25.2359 39.5904L21.8499 36.9337L24.142 22.6603L21.9541 20.4724L12.317 30.1095C10.4764 32.0891 7.26399 39.1424 9.13933 51.5196C9.0143 51.4779 23.2564 65.6714 30.3931 72.7734C35.1683 73.659 46.1355 74.2424 51.8032 69.4916C51.7615 69.5332 58.2106 63.0842 61.4403 59.8544L59.4087 57.8228L45.1874 60.2712L41.8014 56.1558L60.2943 33.3914L57.5855 30.6826L65.3473 22.9208M58.6273 16.2008L65.3473 22.9208" stroke="black"/>
<path id="Vector 159" d="M25.1838 39.6426L41.9056 56.3643" stroke="#40D8BD"/>
<path id="Vector 160" d="M21.8499 36.9338L17.5 46.4307M45.2395 60.3233L35 64.4307M50.9176 24.0148L57.5334 30.6305" stroke="#40D8BD"/>
<circle id="Ellipse 2543" cx="57.8459" cy="23.9626" r="1.00239" transform="rotate(45 57.8459 23.9626)" stroke="#40D8BD" stroke-width="0.5"/>
</g>
</svg>
