<svg width="100" height="62" viewBox="0 0 100 62" fill="none" xmlns="http://www.w3.org/2000/svg">
<g id="Group 2009">
<circle id="Ellipse 963" cx="10" cy="31" r="9.5" stroke="black"/>
<path id="Vector 117" d="M17.3333 5C25.3826 12.9805 36.6516 35.0866 17.3333 59.6667" stroke="#40D8BD"/>
<path id="Vector 122" d="M26.6672 1C34.7166 9.75912 45.9856 34.0219 26.6672 61" stroke="#40D8BD"/>
<path id="Vector 120" d="M50.3132 31.313C50.1179 31.5082 50.1179 31.8248 50.3132 32.0201L53.4952 35.202C53.6904 35.3973 54.007 35.3973 54.2023 35.202C54.3975 35.0068 54.3975 34.6902 54.2023 34.4949L51.3739 31.6665L54.2023 28.8381C54.3975 28.6428 54.3975 28.3262 54.2023 28.131C54.007 27.9357 53.6904 27.9357 53.4952 28.131L50.3132 31.313ZM50.6667 32.1665H51.5477V31.1665H50.6667V32.1665ZM53.3096 32.1665H55.0715V31.1665H53.3096V32.1665ZM56.8334 32.1665H58.5953V31.1665H56.8334V32.1665ZM60.3572 32.1665H62.1191V31.1665H60.3572V32.1665ZM63.881 32.1665H65.6429V31.1665H63.881V32.1665ZM67.4048 32.1665H69.1667V31.1665H67.4048V32.1665ZM70.9286 32.1665H72.6906V31.1665H70.9286V32.1665ZM74.4525 32.1665H76.2144V31.1665H74.4525V32.1665ZM77.9763 32.1665H79.7382V31.1665H77.9763V32.1665ZM81.5001 32.1665H83.262V31.1665H81.5001V32.1665ZM85.0239 32.1665H86.7858V31.1665H85.0239V32.1665ZM88.5477 32.1665H90.3096V31.1665H88.5477V32.1665ZM92.0715 32.1665H93.8334V31.1665H92.0715V32.1665ZM95.5953 32.1665H97.3572V31.1665H95.5953V32.1665ZM99.1191 32.1665H100V31.1665H99.1191V32.1665Z" fill="black"/>
<g id="Group 1740">
<rect id="Rectangle 329" x="68.2246" y="8.1665" width="13.3448" height="6.17241" stroke="black"/>
<path id="Vector 121" d="M65.3337 23.207C65.8119 22.7288 67.5253 19.0231 68.3222 17.23M74.897 17.23V24.4024M80.874 17.23L82.6671 23.207" stroke="black"/>
</g>
</g>
</svg>
