<svg width="85" height="60" viewBox="0 0 85 60" fill="none" xmlns="http://www.w3.org/2000/svg">
<g id="Group 2008">
<g id="Group 1742">
<path id="Vector 123" d="M28.9053 7.44531C28.9053 7.79568 32.117 10.803 33.7228 12.2628H49.0513L53.8688 7.44531" stroke="black"/>
<path id="Vector 126" d="M55.1826 52.5547C55.1826 52.2043 51.9709 49.197 50.3651 47.7372L35.0366 47.7372L30.2191 52.5547" stroke="black"/>
<path id="Vector 124" d="M8.32129 14.4526H19.2702L26.2775 21.4599H56.0585L63.0658 14.4526H75.7665" stroke="black"/>
<path id="Vector 127" d="M75.7666 45.5474L64.8177 45.5474L57.8104 38.5401L28.0294 38.5401L21.0221 45.5474L8.32134 45.5474" stroke="black"/>
<path id="Vector 125" d="M23.2119 31.5327H60.0002" stroke="black"/>
</g>
<path id="Ellipse 964" d="M30.1571 4.37956C30.1571 6.52218 28.4201 8.25912 26.2775 8.25912C24.1349 8.25912 22.3979 6.52218 22.3979 4.37956C22.3979 2.23694 24.1349 0.5 26.2775 0.5C28.4201 0.5 30.1571 2.23694 30.1571 4.37956Z" stroke="#40D8BD"/>
<path id="Ellipse 970" d="M53.9303 55.6204C53.9303 53.4778 55.6673 51.7409 57.8099 51.7409C59.9525 51.7409 61.6895 53.4778 61.6895 55.6204C61.6895 57.7631 59.9525 59.5 57.8099 59.5C55.6673 59.5 53.9303 57.7631 53.9303 55.6204Z" stroke="#40D8BD"/>
<path id="Ellipse 965" d="M60.8138 4.37956C60.8138 6.52218 59.0769 8.25912 56.9342 8.25912C54.7916 8.25912 53.0547 6.52218 53.0547 4.37956C53.0547 2.23694 54.7916 0.5 56.9342 0.5C59.0769 0.5 60.8138 2.23694 60.8138 4.37956Z" stroke="#40D8BD"/>
<path id="Ellipse 971" d="M23.2746 55.6204C23.2746 53.4778 25.0115 51.7409 27.1541 51.7409C29.2968 51.7409 31.0337 53.4778 31.0337 55.6204C31.0337 57.7631 29.2968 59.5 27.1541 59.5C25.0115 59.5 23.2746 57.7631 23.2746 55.6204Z" stroke="#40D8BD"/>
<path id="Ellipse 966" d="M83.5877 14.0148C83.5877 16.1574 81.8508 17.8944 79.7082 17.8944C77.5656 17.8944 75.8286 16.1574 75.8286 14.0148C75.8286 11.8722 77.5656 10.1353 79.7082 10.1353C81.8508 10.1353 83.5877 11.8722 83.5877 14.0148Z" stroke="#40D8BD"/>
<path id="Ellipse 972" d="M0.500153 45.9852C0.500153 43.8426 2.23709 42.1056 4.37972 42.1056C6.52234 42.1056 8.25928 43.8426 8.25928 45.9852C8.25928 48.1278 6.52234 49.8647 4.37972 49.8647C2.23709 49.8647 0.500153 48.1278 0.500153 45.9852Z" stroke="#40D8BD"/>
<path id="Ellipse 967" d="M8.25912 14.0148C8.25912 16.1574 6.52219 17.8944 4.37956 17.8944C2.23694 17.8944 0.5 16.1574 0.5 14.0148C0.5 11.8722 2.23694 10.1353 4.37956 10.1353C6.52219 10.1353 8.25912 11.8722 8.25912 14.0148Z" stroke="#40D8BD"/>
<path id="Ellipse 973" d="M75.8293 45.9852C75.8293 43.8426 77.5662 42.1056 79.7088 42.1056C81.8514 42.1056 83.5884 43.8426 83.5884 45.9852C83.5884 48.1278 81.8514 49.8647 79.7088 49.8647C77.5662 49.8647 75.8293 48.1278 75.8293 45.9852Z" stroke="#40D8BD"/>
<path id="Ellipse 968" d="M23.1493 31.5329C23.1493 33.6755 21.4123 35.4124 19.2697 35.4124C17.1271 35.4124 15.3901 33.6755 15.3901 31.5329C15.3901 29.3903 17.1271 27.6533 19.2697 27.6533C21.4123 27.6533 23.1493 29.3903 23.1493 31.5329Z" stroke="#40D8BD"/>
<path id="Ellipse 969" d="M67.8221 31.5329C67.8221 33.6755 66.0852 35.4124 63.9426 35.4124C61.7999 35.4124 60.063 33.6755 60.063 31.5329C60.063 29.3903 61.7999 27.6533 63.9426 27.6533C66.0852 27.6533 67.8221 29.3903 67.8221 31.5329Z" stroke="#40D8BD"/>
</g>
</svg>
