<svg width="74" height="56" viewBox="0 0 74 56" fill="none" xmlns="http://www.w3.org/2000/svg">
<g id="Group 2058">
<path id="Vector 168" d="M40.7826 12.4789V5.69629M32.9565 12.3485V5.69629" stroke="#40D8BD"/>
<path id="Vector 166" d="M22.261 5.69565V1H51.6088V5.69565H22.261Z" stroke="#40D8BD"/>
<path id="Vector 171" d="M2.15692 22.0005L11.3214 22.0005C11.9603 22.0005 12.4783 22.5185 12.4783 23.1574L12.4783 53.1914C12.4783 53.8304 11.9603 54.3483 11.3214 54.3483L2.15692 54.3483C1.51797 54.3483 1.00001 53.8304 1.00001 53.1914L1.00001 23.1574C1.00001 22.5185 1.51797 22.0005 2.15692 22.0005Z" stroke="black"/>
<path id="Vector 172" d="M62.6789 22.0005L71.8433 22.0005C72.4823 22.0005 73.0002 22.5185 73.0002 23.1574L73.0002 53.1914C73.0002 53.8304 72.4823 54.3483 71.8433 54.3483L62.6789 54.3483C62.0399 54.3483 61.522 53.8304 61.522 53.1914L61.522 23.1574C61.522 22.5185 62.0399 22.0005 62.6789 22.0005Z" stroke="black"/>
<path id="Vector 167" d="M26.5654 15.7399V12.3486H47.6959V15.7399H26.5654Z" stroke="black"/>
<path id="Vector 169" d="M28.6522 15.7397C29.3044 25.1311 26.8261 29.0441 12.4783 28.0006" stroke="black"/>
<path id="Vector 170" d="M45.4416 15.7397C44.7894 25.1311 47.2677 29.0441 61.6155 28.0006" stroke="black"/>
<path id="Vector 173" d="M12.4783 48.0869H26.4348C28.6522 53.6956 39.8696 60.6087 47.1739 48.0869C47.2783 48.0869 56.7826 48.0869 61.5217 48.0869" stroke="black"/>
</g>
</svg>
