<svg width="73" height="62" viewBox="0 0 73 62" fill="none" xmlns="http://www.w3.org/2000/svg">
<g id="Group 2011">
<g id="Group 2004">
<circle id="Ellipse 1064" cx="35.7965" cy="30.9246" r="5.66682" stroke="black"/>
<path id="Vector 154" d="M21.7285 33.4299V28.5157L25.5828 28.4194L26.5463 25.336L24.0411 22.7344L27.4136 19.3619L30.2079 21.8671L33.1949 20.5182V17.0493H38.1091V20.6145L41.2889 21.8671L43.8905 19.3619L47.3594 22.7344L44.7577 25.2396L46.1067 28.4194H49.8646V33.4299H46.1067L44.7577 36.3206L47.3594 39.0186L43.8905 42.3911L41.3852 39.9822L38.1091 41.4275V44.7036H33.2913V41.4275L30.2079 39.9822L27.6063 42.3911L24.3301 39.0186L26.6427 36.3206L25.5828 33.4299H21.7285Z" stroke="#40D8BD"/>
</g>
<g id="Group 2005">
<path id="Vector 155" d="M36.2962 15V1H9.13574V10.2593" stroke="black"/>
<rect id="Rectangle 365" x="0.5" y="10.6357" width="17.2716" height="17.2716" stroke="black"/>
<rect id="Rectangle 366" x="0.5" y="37.5493" width="17.2716" height="17.2716" stroke="black"/>
<path id="Vector 156" d="M9.13574 28.4072V37.0492" stroke="black"/>
</g>
<g id="Group 2006">
<path id="Vector 155_2" d="M35.8026 47.7901V61H62.9631V51.7407" stroke="black"/>
<rect id="Rectangle 365_2" x="71.5989" y="51.3643" width="17.2716" height="17.2716" transform="rotate(180 71.5989 51.3643)" stroke="black"/>
<rect id="Rectangle 366_2" x="71.5989" y="24.4507" width="17.2716" height="17.2716" transform="rotate(180 71.5989 24.4507)" stroke="black"/>
<path id="Vector 156_2" d="M62.9631 33.5928V24.9508" stroke="black"/>
</g>
</g>
</svg>
