<svg width="45" height="67" viewBox="0 0 45 67" fill="none" xmlns="http://www.w3.org/2000/svg">
<g id="Group 2010">
<g id="Group 1735">
<g id="Group 1734">
<path id="Vector 112" d="M1 59.5L20.0988 5.85145L14.6935 49.8913M22.6213 7.4529L23.5222 54.0951M22.6213 4.25L44.0625 58.4991M25.8645 16.6612L33.0716 54.0951" stroke="#40D8BD" stroke-dasharray="1 1"/>
<path id="Vector 111" d="M27.8679 15.357L36.0929 33.9775H7.08789L15.2274 15.357M27.8679 15.357L23.2018 4.79342V1.03351C26.611 0.794785 32.317 3.32527 27.8679 15.357ZM15.2274 15.357L20.1581 4.07725V1.03351C16.2741 0.675418 9.85052 3.03879 15.2274 15.357Z" stroke="black"/>
<path id="Vector 113" d="M4.81254 61.2451C4.5453 61.3147 4.38504 61.5877 4.4546 61.8549L5.58807 66.2099C5.65762 66.4771 5.93065 66.6373 6.19789 66.5678C6.46513 66.4982 6.62538 66.2252 6.55582 65.958L5.5483 62.0869L9.41933 61.0794C9.68657 61.0099 9.84682 60.7368 9.77727 60.4696C9.70771 60.2024 9.43469 60.0421 9.16745 60.1117L4.81254 61.2451ZM39.437 61.868C39.5138 61.6028 39.361 61.3255 39.0958 61.2487L34.7732 59.9975C34.508 59.9207 34.2307 60.0735 34.1539 60.3387C34.0771 60.604 34.2299 60.8812 34.4952 60.958L38.3374 62.0703L37.2252 65.9125C37.1484 66.1778 37.3012 66.455 37.5665 66.5318C37.8317 66.6086 38.109 66.4558 38.1858 66.1906L39.437 61.868ZM4.68538 62.1602C10.2722 65.4394 24.9572 70.0139 39.198 62.1669L38.7154 61.2911C24.8823 68.9134 10.5861 64.4642 5.19158 61.2978L4.68538 62.1602Z" fill="black"/>
</g>
</g>
<circle id="Ellipse 962" cx="21.0312" cy="3" r="2.5" fill="white" stroke="black"/>
</g>
</svg>
