<svg width="53" height="72" viewBox="0 0 53 72" fill="none" xmlns="http://www.w3.org/2000/svg">
<g id="Group 2061">
<g id="Group 1765">
<path id="Vector 123" d="M44.6222 57.7716L44.6845 57.8502C45.8172 59.2778 46.8468 61.1113 46.0706 62.7601C45.5525 63.8607 44.4187 64.7703 42.0834 64.6653C41.8605 64.652 40.2862 62.6188 39.5269 61.604" stroke="#40D8BD"/>
<path id="Ellipse 1077" d="M7.96 14.7018C6.47506 14.841 5.08327 13.6463 4.92358 11.9427C4.76389 10.239 5.90943 8.80652 7.39437 8.66733C8.8793 8.52814 10.2711 9.72283 10.4308 11.4265C10.5905 13.1301 9.44494 14.5626 7.96 14.7018Z" stroke="#40D8BD"/>
<path id="Ellipse 1078" d="M8.29855 13.0254C7.61692 13.208 6.82522 12.7563 6.59518 11.8978C6.36515 11.0393 6.82493 10.2523 7.50656 10.0696C8.18819 9.88697 8.97989 10.3387 9.20992 11.1972C9.43996 12.0557 8.98018 12.8427 8.29855 13.0254Z" stroke="#40D8BD"/>
<path id="Vector 118" d="M10.1805 13.544L11.81 15.1166L12.7548 15.1166L19.8406 24.0917L18.2334 25.0401L17.0063 26.4538L9.60669 16.7047L9.83307 16.2826L8.65734 14.5624" stroke="#40D8BD"/>
<path id="Vector 119" d="M24.8328 20.4025C24.9193 20.4524 29.7344 19.4851 32.0855 18.8246L39.5463 29.6177L38.6954 31.2164L47.5174 44.0207L38.935 55.6406L35.0667 58.596L25.5183 61.1545L16.6963 48.3504L15.1845 48.8465L7.66128 38.1613L13.0046 32.5266" stroke="black"/>
<path id="Ellipse 1079" d="M20.9116 28.4918C19.2588 30.1429 17.4982 31.3398 16.0042 31.9509C15.2561 32.2569 14.5986 32.4063 14.0683 32.4087C13.5406 32.411 13.1791 32.2696 12.9484 32.0387C12.7177 31.8078 12.5766 31.4461 12.5795 30.9184C12.5824 30.3881 12.7324 29.7307 13.0392 28.983C13.6518 27.4896 14.8505 25.7301 16.5033 24.079C18.156 22.4279 19.9167 21.231 21.4107 20.6199C22.1587 20.3139 22.8163 20.1645 23.3466 20.1621C23.8743 20.1598 24.2358 20.3012 24.4665 20.5321C24.6972 20.763 24.8382 21.1247 24.8354 21.6524C24.8325 22.1827 24.6824 22.8401 24.3757 23.5879C23.7631 25.0812 22.5644 26.8407 20.9116 28.4918Z" stroke="black"/>
<path id="Ellipse 1080" d="M19.5673 26.6995C18.4431 27.8226 17.2506 28.6312 16.2479 29.0413C15.7455 29.2468 15.3144 29.3426 14.9768 29.3441C14.6417 29.3456 14.4391 29.2561 14.319 29.1359C14.1989 29.0156 14.1096 28.8129 14.1114 28.4778C14.1132 28.1402 14.2094 27.7092 14.4154 27.207C14.8266 26.2048 15.6364 25.0131 16.7606 23.89C17.8848 22.7669 19.0773 21.9583 20.08 21.5482C20.5824 21.3426 21.0135 21.2469 21.3511 21.2454C21.6862 21.2439 21.8888 21.3334 22.0089 21.4536C22.129 21.5739 22.2183 21.7766 22.2165 22.1116C22.2147 22.4493 22.1185 22.8803 21.9125 23.3825C21.5013 24.3847 20.6915 25.5764 19.5673 26.6995Z" stroke="black"/>
<path id="Vector 120" d="M32.1076 18.9098L21.5476 31.3337L17.8103 34.4367M17.8103 34.4367L7.68346 38.2467M17.8103 34.4367L25.3625 45.5711M25.3625 45.5711L25.7888 45.4568M25.3625 45.5711L15.1838 48.8467M25.7888 45.4568L35.0661 58.5961M25.7888 45.4568L29.5093 42.6324M21.9739 31.2195L29.5093 42.6324M29.5093 42.6324L38.9343 55.6407M29.5093 42.6324L38.6947 31.2165" stroke="black"/>
<path id="Vector 121" d="M44.8621 47.7473C46.8961 48.177 49.5241 50.4821 43.7637 56.2654C43.8489 56.2425 38.0627 62.2703 32.8043 62.7655C32.5652 62.5555 29.6315 62.5192 31.0608 59.6691" stroke="black"/>
<path id="Vector 122" d="M46.1988 48.3033C47.9346 49.6657 49.5285 51.523 45.1414 57.1759C45.1414 57.1759 38.3155 64.5787 32.8894 62.7431" stroke="black"/>
<path id="Ellipse 1081" d="M26.8341 57.5427C25.9708 57.774 25.0834 57.2617 24.8521 56.3984C24.6208 55.5351 25.1331 54.6478 25.9964 54.4165C26.8597 54.1851 27.7471 54.6975 27.9784 55.5608C28.2097 56.424 27.6974 57.3114 26.8341 57.5427Z" stroke="#40D8BD"/>
</g>
</g>
</svg>
