<svg width="106" height="66" viewBox="0 0 106 66" fill="none" xmlns="http://www.w3.org/2000/svg">
<g id="Frame 1122">
<g id="Group 2017">
<g id="Group 1851">
<path id="Vector 137" d="M47.123 38.5666V27.4326H58.2571V38.5666H47.123Z" stroke="black"/>
<path id="Vector 138" d="M52.9993 22.4843V14.1338M52.9993 14.1338L50.2158 16.9173M52.9993 14.1338L55.7828 16.9173" stroke="#40D8BD"/>
<path id="Vector 140" d="M42.4843 32.9997L34.1338 32.9997M34.1338 32.9997L36.9173 35.7832M34.1338 32.9997L36.9173 30.2162" stroke="#40D8BD"/>
<path id="Vector 139" d="M52.9997 43.5157L52.9997 51.8662M52.9997 51.8662L55.7832 49.0827M52.9997 51.8662L50.2162 49.0827" stroke="#40D8BD"/>
<path id="Vector 141" d="M63.5157 32.9993L71.8662 32.9993M71.8662 32.9993L69.0827 30.2158M71.8662 32.9993L69.0827 35.7828" stroke="#40D8BD"/>
</g>
<g id="Group 1850">
<path id="Ellipse 1049" d="M78.1218 17.2542C78.3917 17.3128 78.6579 17.1414 78.7165 16.8716L79.6704 12.4738C79.7289 12.204 79.5576 11.9377 79.2877 11.8792C79.0178 11.8207 78.7516 11.992 78.6931 12.2619L77.8452 16.171L73.9361 15.3231C73.6662 15.2645 73.4 15.4358 73.3414 15.7057C73.2829 15.9756 73.4542 16.2418 73.7241 16.3003L78.1218 17.2542ZM63.3143 4.82884L63.1424 5.29836L63.3143 4.82884ZM44.219 4.31388L44.0726 3.83578L44.219 4.31388ZM28.6838 15.4295L29.0891 15.7223L28.6838 15.4295ZM23.5073 33.6578C23.5029 33.4586 23.5005 33.2594 23.5001 33.0605L22.5001 33.0625C22.5005 33.2682 22.503 33.4741 22.5076 33.6801L23.5073 33.6578ZM23.5218 31.8659C23.5371 31.4675 23.5605 31.0698 23.5919 30.6733L22.595 30.5944C22.5625 31.0044 22.5384 31.4155 22.5225 31.8275L23.5218 31.8659ZM23.7102 29.4844C23.7577 29.0887 23.8132 28.6943 23.8766 28.3014L22.8893 28.1421C22.8238 28.5483 22.7664 28.9561 22.7173 29.3653L23.7102 29.4844ZM24.0907 27.126C24.17 26.7356 24.2573 26.3469 24.3523 25.9603L23.3812 25.7217C23.2829 26.1214 23.1928 26.5232 23.1107 26.9269L24.0907 27.126ZM24.6608 24.8061C24.7714 24.4235 24.8898 24.0432 25.0158 23.6654L24.0672 23.3489C23.9369 23.7396 23.8145 24.1328 23.7002 24.5284L24.6608 24.8061ZM25.4167 22.5399C25.5579 22.1677 25.7066 21.7982 25.8629 21.4316L24.943 21.0395C24.7814 21.4185 24.6276 21.8005 24.4817 22.1854L25.4167 22.5399ZM26.3535 20.3423C26.5243 19.9829 26.7024 19.6266 26.8879 19.2738L26.0027 18.8085C25.811 19.1733 25.6268 19.5416 25.4502 19.9133L26.3535 20.3423ZM27.4651 18.2278C27.6643 17.8834 27.8706 17.5428 28.0841 17.206L27.2395 16.6706C27.0188 17.0188 26.8054 17.371 26.5995 17.727L27.4651 18.2278ZM28.7441 16.2101C28.8573 16.0465 28.9723 15.8839 29.0891 15.7223L28.2785 15.1367C28.1578 15.3037 28.039 15.4718 27.9219 15.6409L28.7441 16.2101ZM29.0891 15.7223C29.2058 15.5608 29.3241 15.4006 29.4438 15.2417L28.6453 14.6397C28.5215 14.804 28.3992 14.9696 28.2785 15.1367L29.0891 15.7223ZM30.1822 14.3024C30.4349 13.994 30.6936 13.6911 30.958 13.3939L30.2108 12.7293C29.9374 13.0366 29.67 13.3497 29.4087 13.6686L30.1822 14.3024ZM31.7699 12.5175C32.0466 12.2306 32.329 11.9496 32.6166 11.6747L31.9257 10.9518C31.6282 11.236 31.3364 11.5266 31.0502 11.8231L31.7699 12.5175ZM33.4968 10.8668C33.7958 10.6034 34.0999 10.3462 34.409 10.0953L33.7788 9.31886C33.4592 9.57825 33.1448 9.8442 32.8357 10.1165L33.4968 10.8668ZM35.3517 9.36133C35.6708 9.12306 35.9948 8.89127 36.3233 8.66612L35.758 7.84125C35.4183 8.07403 35.0834 8.31367 34.7534 8.56001L35.3517 9.36133ZM37.3223 8.01082C37.6595 7.79924 38.0011 7.59442 38.3469 7.39651L37.8502 6.5286C37.4927 6.73322 37.1395 6.94498 36.7908 7.16374L37.3223 8.01082ZM39.3956 6.82419C39.7487 6.64066 40.1058 6.46415 40.4666 6.29481L40.0418 5.38955C39.6687 5.56464 39.2995 5.74713 38.9345 5.93688L39.3956 6.82419ZM41.5582 5.80923C41.9249 5.65495 42.2951 5.50792 42.6686 5.36826L42.3184 4.43159C41.9322 4.57598 41.5495 4.728 41.1704 4.88751L41.5582 5.80923ZM43.7959 4.97261C43.9849 4.91054 44.1747 4.85032 44.3653 4.79198L44.0726 3.83578C43.8756 3.89609 43.6793 3.95835 43.4839 4.02253L43.7959 4.97261ZM44.3653 4.79198C44.5559 4.73365 44.7469 4.67729 44.9383 4.62292L44.665 3.66098C44.4671 3.7172 44.2696 3.77547 44.0726 3.83578L44.3653 4.79198ZM46.0939 4.31975C46.4816 4.22639 46.8706 4.14101 47.2608 4.06362L47.0663 3.08273C46.6629 3.16275 46.2606 3.25101 45.8598 3.34754L46.0939 4.31975ZM48.4372 3.85497C48.831 3.79332 49.2257 3.7397 49.621 3.69413L49.5065 2.70071C49.0977 2.74783 48.6896 2.80326 48.2825 2.867L48.4372 3.85497ZM50.8104 3.58135C51.2077 3.55178 51.6054 3.53028 52.0033 3.51683L51.9696 2.5174C51.5582 2.53131 51.147 2.55354 50.7362 2.58411L50.8104 3.58135ZM53.1979 3.50066C53.5962 3.50334 53.9944 3.51408 54.3922 3.53287L54.4394 2.53399C54.0281 2.51455 53.6164 2.50345 53.2047 2.50069L53.1979 3.50066ZM55.5842 3.6134C55.9808 3.64827 56.3768 3.69118 56.772 3.74212L56.8998 2.75033C56.4913 2.69766 56.0818 2.6533 55.6718 2.61724L55.5842 3.6134ZM57.9535 3.91883C58.3458 3.98565 58.7371 4.06046 59.127 4.14325L59.3347 3.16505C58.9315 3.07946 58.5271 3.00212 58.1214 2.93303L57.9535 3.91883ZM60.2904 4.415C60.6758 4.51331 61.0597 4.61952 61.4418 4.73364L61.728 3.77547C61.3329 3.65748 60.936 3.54766 60.5375 3.44602L60.2904 4.415ZM62.5794 5.09865C62.7676 5.16327 62.9553 5.22984 63.1424 5.29836L63.4862 4.35932C63.2927 4.28848 63.0987 4.21965 62.9041 4.15285L62.5794 5.09865ZM63.1424 5.29836C63.3296 5.36688 63.5159 5.43724 63.7013 5.50942L64.064 4.57753C63.8723 4.5029 63.6797 4.43016 63.4862 4.35932L63.1424 5.29836ZM64.8056 5.96525C65.1711 6.12483 65.5328 6.2916 65.8906 6.46542L66.3276 5.56594C65.9576 5.38623 65.5836 5.2138 65.2058 5.04881L64.8056 5.96525ZM66.9544 7.00912C67.3056 7.19766 67.6526 7.39316 67.9953 7.59545L68.5037 6.73429C68.1493 6.52514 67.7905 6.32301 67.4275 6.12807L66.9544 7.00912ZM69.0117 8.22346C69.3463 8.43972 69.6764 8.66266 70.0018 8.89211L70.5781 8.0749C70.2417 7.83767 69.9004 7.60718 69.5545 7.38359L69.0117 8.22346ZM70.9639 9.6003C71.2799 9.84283 71.5908 10.0917 71.8967 10.3469L72.5372 9.57895C72.221 9.31518 71.8995 9.05784 71.5729 8.80709L70.9639 9.6003ZM72.7984 11.1306C73.0936 11.3978 73.3834 11.671 73.6677 11.9501L74.3683 11.2366C74.0743 10.948 73.7747 10.6655 73.4695 10.3892L72.7984 11.1306ZM74.5031 12.8042C74.7755 13.0943 75.0423 13.3901 75.3032 13.6914L76.0592 13.0369C75.7895 12.7253 75.5137 12.4195 75.232 12.1196L74.5031 12.8042ZM76.0667 14.6103C76.3146 14.9214 76.5566 15.2378 76.7924 15.5594L77.5989 14.9682C77.3551 14.6357 77.105 14.3086 76.8486 13.987L76.0667 14.6103ZM77.479 16.5371C77.59 16.7022 77.6995 16.8686 77.8074 17.0362L78.6483 16.495C78.5368 16.3217 78.4236 16.1497 78.3088 15.979L77.479 16.5371ZM78.1218 17.2542C78.3917 17.3128 78.6579 17.1414 78.7165 16.8716L79.6704 12.4738C79.7289 12.204 79.5576 11.9377 79.2877 11.8792C79.0178 11.8207 78.7516 11.992 78.6931 12.2619L77.8452 16.171L73.9361 15.3231C73.6662 15.2645 73.4 15.4358 73.3414 15.7057C73.2829 15.9756 73.4542 16.2418 73.7241 16.3003L78.1218 17.2542ZM63.3143 4.82884L63.1424 5.29836L63.3143 4.82884ZM44.219 4.31388L44.0726 3.83578L44.219 4.31388ZM28.6838 15.4295L29.0891 15.7223L28.6838 15.4295ZM23.5073 33.6578C23.5029 33.4586 23.5005 33.2594 23.5001 33.0605L22.5001 33.0625C22.5005 33.2682 22.503 33.4741 22.5076 33.6801L23.5073 33.6578ZM23.5218 31.8659C23.5371 31.4675 23.5605 31.0698 23.5919 30.6733L22.595 30.5944C22.5625 31.0044 22.5384 31.4155 22.5225 31.8275L23.5218 31.8659ZM23.7102 29.4844C23.7577 29.0887 23.8132 28.6943 23.8766 28.3014L22.8893 28.1421C22.8238 28.5483 22.7664 28.9561 22.7173 29.3653L23.7102 29.4844ZM24.0907 27.126C24.17 26.7356 24.2573 26.3469 24.3523 25.9603L23.3812 25.7217C23.2829 26.1214 23.1928 26.5232 23.1107 26.9269L24.0907 27.126ZM24.6608 24.8061C24.7714 24.4235 24.8898 24.0432 25.0158 23.6654L24.0672 23.3489C23.9369 23.7396 23.8145 24.1328 23.7002 24.5284L24.6608 24.8061ZM25.4167 22.5399C25.5579 22.1677 25.7066 21.7982 25.8629 21.4316L24.943 21.0395C24.7814 21.4185 24.6276 21.8005 24.4817 22.1854L25.4167 22.5399ZM26.3535 20.3423C26.5243 19.9829 26.7024 19.6266 26.8879 19.2738L26.0027 18.8085C25.811 19.1733 25.6268 19.5416 25.4502 19.9133L26.3535 20.3423ZM27.4651 18.2278C27.6643 17.8834 27.8706 17.5428 28.0841 17.206L27.2395 16.6706C27.0188 17.0188 26.8054 17.371 26.5995 17.727L27.4651 18.2278ZM28.7441 16.2101C28.8573 16.0465 28.9723 15.8839 29.0891 15.7223L28.2785 15.1367C28.1578 15.3037 28.039 15.4718 27.9219 15.6409L28.7441 16.2101ZM29.0891 15.7223C29.2058 15.5608 29.3241 15.4006 29.4438 15.2417L28.6453 14.6397C28.5215 14.804 28.3992 14.9696 28.2785 15.1367L29.0891 15.7223ZM30.1822 14.3024C30.4349 13.994 30.6936 13.6911 30.958 13.3939L30.2108 12.7293C29.9374 13.0366 29.67 13.3497 29.4087 13.6686L30.1822 14.3024ZM31.7699 12.5175C32.0466 12.2306 32.329 11.9496 32.6166 11.6747L31.9257 10.9518C31.6282 11.236 31.3364 11.5266 31.0502 11.8231L31.7699 12.5175ZM33.4968 10.8668C33.7958 10.6034 34.0999 10.3462 34.409 10.0953L33.7788 9.31886C33.4592 9.57825 33.1448 9.8442 32.8357 10.1165L33.4968 10.8668ZM35.3517 9.36133C35.6708 9.12306 35.9948 8.89127 36.3233 8.66612L35.758 7.84125C35.4183 8.07403 35.0834 8.31367 34.7534 8.56001L35.3517 9.36133ZM37.3223 8.01082C37.6595 7.79924 38.0011 7.59442 38.3469 7.39651L37.8502 6.5286C37.4927 6.73322 37.1395 6.94498 36.7908 7.16374L37.3223 8.01082ZM39.3956 6.82419C39.7487 6.64066 40.1058 6.46415 40.4666 6.29481L40.0418 5.38955C39.6687 5.56464 39.2995 5.74713 38.9345 5.93688L39.3956 6.82419ZM41.5582 5.80923C41.9249 5.65495 42.2951 5.50792 42.6686 5.36826L42.3184 4.43159C41.9322 4.57598 41.5495 4.728 41.1704 4.88751L41.5582 5.80923ZM43.7959 4.97261C43.9849 4.91054 44.1747 4.85032 44.3653 4.79198L44.0726 3.83578C43.8756 3.89609 43.6793 3.95835 43.4839 4.02253L43.7959 4.97261ZM44.3653 4.79198C44.5559 4.73365 44.7469 4.67729 44.9383 4.62292L44.665 3.66098C44.4671 3.7172 44.2696 3.77547 44.0726 3.83578L44.3653 4.79198ZM46.0939 4.31975C46.4816 4.22639 46.8706 4.14101 47.2608 4.06362L47.0663 3.08273C46.6629 3.16275 46.2606 3.25101 45.8598 3.34754L46.0939 4.31975ZM48.4372 3.85497C48.831 3.79332 49.2257 3.7397 49.621 3.69413L49.5065 2.70071C49.0977 2.74783 48.6896 2.80326 48.2825 2.867L48.4372 3.85497ZM50.8104 3.58135C51.2077 3.55178 51.6054 3.53028 52.0033 3.51683L51.9696 2.5174C51.5582 2.53131 51.147 2.55354 50.7362 2.58411L50.8104 3.58135ZM53.1979 3.50066C53.5962 3.50334 53.9944 3.51408 54.3922 3.53287L54.4394 2.53399C54.0281 2.51455 53.6164 2.50345 53.2047 2.50069L53.1979 3.50066ZM55.5842 3.6134C55.9808 3.64827 56.3768 3.69118 56.772 3.74212L56.8998 2.75033C56.4913 2.69766 56.0818 2.6533 55.6718 2.61724L55.5842 3.6134ZM57.9535 3.91883C58.3458 3.98565 58.7371 4.06046 59.127 4.14325L59.3347 3.16505C58.9315 3.07946 58.5271 3.00212 58.1214 2.93303L57.9535 3.91883ZM60.2904 4.415C60.6758 4.51331 61.0597 4.61952 61.4418 4.73364L61.728 3.77547C61.3329 3.65748 60.936 3.54766 60.5375 3.44602L60.2904 4.415ZM62.5794 5.09865C62.7676 5.16327 62.9553 5.22984 63.1424 5.29836L63.4862 4.35932C63.2927 4.28848 63.0987 4.21965 62.9041 4.15285L62.5794 5.09865ZM63.1424 5.29836C63.3296 5.36688 63.5159 5.43724 63.7013 5.50942L64.064 4.57753C63.8723 4.5029 63.6797 4.43016 63.4862 4.35932L63.1424 5.29836ZM64.8056 5.96525C65.1711 6.12483 65.5328 6.2916 65.8906 6.46542L66.3276 5.56594C65.9576 5.38623 65.5836 5.2138 65.2058 5.04881L64.8056 5.96525ZM66.9544 7.00912C67.3056 7.19766 67.6526 7.39316 67.9953 7.59545L68.5037 6.73429C68.1493 6.52514 67.7905 6.32301 67.4275 6.12807L66.9544 7.00912ZM69.0117 8.22346C69.3463 8.43972 69.6764 8.66266 70.0018 8.89211L70.5781 8.0749C70.2417 7.83767 69.9004 7.60718 69.5545 7.38359L69.0117 8.22346ZM70.9639 9.6003C71.2799 9.84283 71.5908 10.0917 71.8967 10.3469L72.5372 9.57895C72.221 9.31518 71.8995 9.05784 71.5729 8.80709L70.9639 9.6003ZM72.7984 11.1306C73.0936 11.3978 73.3834 11.671 73.6677 11.9501L74.3683 11.2366C74.0743 10.948 73.7747 10.6655 73.4695 10.3892L72.7984 11.1306ZM74.5031 12.8042C74.7755 13.0943 75.0423 13.3901 75.3032 13.6914L76.0592 13.0369C75.7895 12.7253 75.5137 12.4195 75.232 12.1196L74.5031 12.8042ZM76.0667 14.6103C76.3146 14.9214 76.5566 15.2378 76.7924 15.5594L77.5989 14.9682C77.3551 14.6357 77.105 14.3086 76.8486 13.987L76.0667 14.6103ZM77.479 16.5371C77.59 16.7022 77.6995 16.8686 77.8074 17.0362L78.6483 16.495C78.5368 16.3217 78.4236 16.1497 78.3088 15.979L77.479 16.5371Z" fill="black"/>
<path id="Ellipse 1050" d="M23.0615 34.9245C23.3469 39.3644 24.6162 43.6852 26.7775 47.574C28.9389 51.4627 31.938 54.8221 35.5578 57.4087C39.1777 59.9954 43.3275 61.7445 47.7067 62.5295C52.0859 63.3144 56.5849 63.1156 60.8778 61.9472C65.1707 60.7789 69.1499 58.6704 72.5274 55.7745C75.9048 52.8785 78.5959 49.2676 80.4056 45.2033C82.2153 41.139 83.0984 36.723 82.9909 32.2753C82.8835 27.8276 81.7881 23.4594 79.7841 19.4873" stroke="black"/>
</g>
</g>
</g>
</svg>
