<svg width="169" height="140" viewBox="0 0 169 140" fill="none" xmlns="http://www.w3.org/2000/svg">
<g id="Frame 1112">
<g id="Group 2072">
<path id="Ellipse 200" d="M111.79 54.356C106.341 63.7934 99.9517 71.4669 94.0459 76.2495C91.0913 78.6421 88.282 80.2915 85.7926 81.0896C83.3034 81.8876 81.1962 81.8176 79.564 80.8752C77.9318 79.9328 76.8175 78.143 76.264 75.5882C75.7105 73.0333 75.7342 69.7757 76.329 66.0207C77.5179 58.5147 80.9688 49.1448 86.4175 39.7074C91.8662 30.2699 98.2554 22.5965 104.161 17.8139C107.116 15.4213 109.925 13.7719 112.414 12.9738C114.904 12.1758 117.011 12.2458 118.643 13.1882C120.275 14.1306 121.39 15.9204 121.943 18.4752C122.497 21.03 122.473 24.2877 121.878 28.0427C120.689 35.5486 117.238 44.9186 111.79 54.356Z" stroke="#40D8BD" stroke-width="1.14183"/>
<path id="Vector 83" d="M108.918 50.7575L110.059 57.0376L115.769 56.4666M91.7901 30.7754L84.3682 33.63" stroke="#22D7FF" stroke-width="1.14183"/>
<path id="Vector 84" d="M91.2197 31.3467L92.9325 37.6268" stroke="#22D7FF" stroke-width="1.14183"/>
<circle id="Ellipse 201" cx="84.3682" cy="70.3682" r="66.7972" stroke="#22D7FF" stroke-width="1.14183"/>
<circle id="Ellipse 202" cx="84.3687" cy="70.3687" r="46.5868" stroke="#22D7FF" stroke-width="1.14183" stroke-dasharray="2.28 2.28"/>
<circle id="Ellipse 203" cx="84.3679" cy="70.3679" r="12.0606" fill="#40D8BD" stroke="#40D8BD" stroke-width="1.14183"/>
<g id="Group 1549">
<g id="Ellipse 193" filter="url(#filter0_f_1592_1148)">
<path d="M122.049 13.0761C122.049 15.5986 120.004 17.6435 117.481 17.6435C114.959 17.6435 112.914 15.5986 112.914 13.0761C112.914 10.5537 114.959 8.50879 117.481 8.50879C120.004 8.50879 122.049 10.5537 122.049 13.0761Z" fill="#40D8BD"/>
</g>
</g>
</g>
</g>
<defs>
<filter id="filter0_f_1592_1148" x="110.75" y="6.34438" width="13.4636" height="13.4636" filterUnits="userSpaceOnUse" color-interpolation-filters="sRGB">
<feFlood flood-opacity="0" result="BackgroundImageFix"/>
<feBlend mode="normal" in="SourceGraphic" in2="BackgroundImageFix" result="shape"/>
<feGaussianBlur stdDeviation="1.0822" result="effect1_foregroundBlur_1592_1148"/>
</filter>
</defs>
</svg>
