<svg width="64" height="65" viewBox="0 0 64 65" fill="none" xmlns="http://www.w3.org/2000/svg">
<g id="Group 1652">
<path id="Polygon 2" d="M53.0481 15.0992L58.5817 32.1299L53.0481 49.1605L38.561 59.686L20.6539 59.686L6.16675 49.1605L0.633151 32.1299L6.16675 15.0992L20.6539 4.57371L38.561 4.57371L53.0481 15.0992Z" stroke="#22D7FF"/>
<path id="Polygon 3" d="M54.5042 29.7872L51.7102 43.589L41.3373 53.1126L27.3476 54.7203L15.0847 47.798L9.23263 34.9898L12.0267 21.188L22.3996 11.6644L36.3893 10.0567L48.6522 16.979L54.5042 29.7872Z" stroke="#40D8BD"/>
<path id="Polygon 4" d="M40.2488 43.3124L33.0872 41.7902L28.1881 36.3492L27.4228 29.0677L31.0836 22.727L37.7722 19.7491L44.9338 21.2713L49.8329 26.7123L50.5982 33.9938L46.9374 40.3345L40.2488 43.3124Z" stroke="#22D7FF"/>
</g>
</svg>
