<svg width="70" height="70" viewBox="0 0 70 70" fill="none" xmlns="http://www.w3.org/2000/svg">
<g id="Frame 1132">
<g id="Group 1877">
<g id="Group">
<path id="Vector" d="M7.96289 25.5226C7.96289 29.3417 11.0705 32.4492 14.8903 32.4492C18.7094 32.4492 21.817 29.3417 21.817 25.5226C21.817 21.7028 18.7094 18.5952 14.8903 18.5952C11.0705 18.5952 7.96289 21.7028 7.96289 25.5226ZM14.8903 19.9797C17.946 19.9797 20.4318 22.4662 20.4318 25.5219C20.4318 28.5776 17.946 31.064 14.8903 31.064C11.8339 31.064 9.34739 28.5776 9.34739 25.5219C9.34739 22.4662 11.8339 19.9797 14.8903 19.9797Z" fill="#22D7FF"/>
<path id="Vector_2" d="M2 44.42V45.6118C2 46.5714 2.78093 47.3524 3.74062 47.3524H26.0384C26.9981 47.3524 27.7791 46.5714 27.7791 45.6118V44.42C27.7791 39.5011 23.777 35.499 18.858 35.499H10.9204C6.00208 35.499 2 39.5011 2 44.42ZM10.9204 36.8842H18.858C23.0136 36.8842 26.3939 40.2645 26.3939 44.42V45.6118C26.3939 45.808 26.234 45.9686 26.0377 45.9686H3.74062C3.54433 45.9686 3.3838 45.808 3.3838 45.6118V44.42C3.3838 40.2645 6.76479 36.8842 10.9204 36.8842Z" fill="#22D7FF"/>
<path id="Vector_3" d="M51.8864 37.2432C48.0666 37.2432 44.959 40.3507 44.959 44.1698C44.959 47.9889 48.0666 51.0965 51.8864 51.0965C55.7055 51.0965 58.8131 47.9889 58.8131 44.1698C58.8131 40.3507 55.7055 37.2432 51.8864 37.2432ZM51.8864 49.7127C48.83 49.7127 46.3435 47.2262 46.3435 44.1705C46.3435 41.1148 48.83 38.6284 51.8864 38.6284C54.9421 38.6284 57.4286 41.1148 57.4286 44.1705C57.4286 47.2262 54.9421 49.7127 51.8864 49.7127Z" fill="#22D7FF"/>
<path id="Vector_4" d="M64.7752 64.2602V63.0685C64.7752 58.1495 60.7731 54.1475 55.8541 54.1475H47.9172C42.9982 54.1475 38.9961 58.1495 38.9961 63.0685V64.2602C38.9961 65.2199 39.777 66.0001 40.7367 66.0001H63.0345C63.9942 66.0008 64.7752 65.2206 64.7752 64.2602ZM63.3914 64.2602C63.3914 64.4565 63.2308 64.6163 63.0345 64.6163H40.7367C40.5404 64.6163 40.3806 64.4565 40.3806 64.2602V63.0685C40.3806 58.9129 43.7609 55.5319 47.9165 55.5319H55.8548C60.0104 55.5319 63.3914 58.9129 63.3914 63.0685V64.2602Z" fill="#22D7FF"/>
<path id="Vector_5" d="M28.0661 24.9328L27.4681 25.2777C26.9115 25.5988 26.5141 26.1175 26.3465 26.7386C26.1804 27.3597 26.2659 28.0088 26.587 28.5654L27.5032 30.1518C27.8236 30.7077 28.3423 31.1052 28.9641 31.2727C29.5859 31.4382 30.235 31.3554 30.7909 31.0323L31.3945 30.6832C31.6146 30.5556 31.8607 30.4932 32.1046 30.4932C32.418 30.4932 32.7278 30.597 32.9753 30.8002C33.9784 31.6225 35.1043 32.2731 36.3219 32.7322C36.8519 32.9327 37.208 33.4585 37.208 34.041V34.7371C37.208 36.0648 38.2876 37.1451 39.6153 37.1451H41.4463C42.7741 37.1451 43.8543 36.0648 43.8543 34.7371V34.041C43.8543 33.4585 44.2097 32.9327 44.7397 32.7329C45.9574 32.2731 47.0839 31.6225 48.0863 30.8002C48.5273 30.4385 49.1624 30.3916 49.6664 30.6839L50.27 31.0316C50.8259 31.3519 51.4764 31.4375 52.0975 31.2734C52.7186 31.1066 53.2374 30.7077 53.5591 30.1511L54.4747 28.5654C54.7957 28.0081 54.8813 27.359 54.7151 26.7386C54.5483 26.1175 54.1501 25.5988 53.5935 25.2777L52.9955 24.9321C52.4901 24.6412 52.2139 24.0678 52.3071 23.5049C52.413 22.8655 52.4677 22.215 52.4677 21.5722C52.4677 20.9294 52.4137 20.2795 52.3071 19.6409C52.2139 19.078 52.4908 18.5039 52.9955 18.2122L53.5935 17.8674C54.1494 17.547 54.5476 17.0282 54.7151 16.4065C54.8813 15.7854 54.7957 15.1362 54.4747 14.5803L53.5591 12.9932C52.8953 11.8436 51.4204 11.4482 50.2707 12.1121L49.6664 12.4612C49.161 12.7521 48.5273 12.7058 48.0863 12.3448C47.0797 11.5197 45.9539 10.8699 44.7397 10.4128C44.2097 10.2124 43.8543 9.6873 43.8543 9.10476V8.40726C43.8543 7.07955 42.7741 6 41.4463 6H39.6153C38.2876 6 37.208 7.07955 37.208 8.40726V9.10476C37.208 9.6866 36.8519 10.2124 36.3219 10.4121C35.1078 10.8692 33.9813 11.5197 32.9753 12.3448C32.5365 12.7058 31.9013 12.7521 31.3945 12.4612L30.7916 12.1135C30.2343 11.7903 29.5852 11.7062 28.9648 11.8716C28.343 12.0385 27.8243 12.4374 27.5032 12.994L26.5877 14.5796C26.2666 15.1362 26.1811 15.7854 26.3472 16.4058C26.5141 17.0275 26.9129 17.5463 27.4688 17.866L28.0668 18.213C28.5722 18.5032 28.8484 19.0766 28.7552 19.6402C28.6493 20.276 28.5954 20.9258 28.5954 21.5715C28.5954 22.2171 28.6486 22.8676 28.7552 23.5042C28.8477 24.0671 28.5715 24.6412 28.0661 24.9328ZM28.7587 26.1308C29.7605 25.5525 30.3072 24.4057 30.1194 23.2777C30.0261 22.7148 29.9792 22.1414 29.9792 21.5722C29.9792 21.0037 30.0261 20.4302 30.1194 19.8673C30.3072 18.7387 29.7598 17.5926 28.7587 17.0149L28.1607 16.6679C27.9238 16.5326 27.7542 16.3118 27.6841 16.0475C27.6125 15.7833 27.649 15.5071 27.7864 15.2715L28.7012 13.6858C28.8372 13.4496 29.058 13.28 29.3216 13.2085C29.5852 13.1384 29.86 13.1748 30.0983 13.3108L30.7026 13.6592C31.7058 14.2375 32.9704 14.138 33.8523 13.4146C34.7397 12.6869 35.7352 12.1128 36.8105 11.7062C37.8761 11.3059 38.5918 10.2593 38.5918 9.10336V8.40586C38.5918 7.84225 39.0503 7.38379 39.6146 7.38379H41.4456C42.01 7.38379 42.4684 7.84225 42.4684 8.40586V9.10336C42.4684 10.2586 43.1842 11.3059 44.2497 11.7062C45.3251 12.1121 46.3205 12.6862 47.208 13.4146C48.0905 14.1387 49.3573 14.2354 50.3576 13.6592L50.9626 13.3101C51.1995 13.1741 51.475 13.1377 51.7393 13.2085C52.0036 13.2793 52.223 13.4489 52.359 13.6851L53.2745 15.2715C53.4112 15.5071 53.4477 15.7826 53.3769 16.0475C53.3068 16.3104 53.1378 16.5305 52.9002 16.6686L52.3029 17.0135C51.3005 17.5912 50.7537 18.7387 50.9416 19.8666C51.0348 20.4295 51.0818 21.003 51.0818 21.5715C51.0818 22.1407 51.0348 22.7141 50.9416 23.277C50.7537 24.4057 51.3012 25.5518 52.3022 26.1294L52.9212 26.4883C53.147 26.6257 53.3089 26.841 53.3762 27.0968C53.4477 27.3611 53.4112 27.6366 53.2738 27.8721L52.3583 29.4585C52.2223 29.6948 52.0015 29.8644 51.7379 29.9359C51.4708 30.0074 51.196 29.9709 50.9605 29.8329L50.3562 29.4845C49.3552 28.9061 48.0905 29.0064 47.2073 29.7298C46.3198 30.4574 45.3243 31.0316 44.249 31.4382C43.1835 31.8391 42.4677 32.8857 42.4677 34.0417V34.7378C42.4677 35.3021 42.0093 35.7606 41.4449 35.7606H39.6139C39.0496 35.7606 38.5911 35.3021 38.5911 34.7378V34.0417C38.5911 32.8864 37.8754 31.8391 36.8098 31.4382C35.7345 31.0323 34.739 30.4582 33.8516 29.7298C32.9914 29.0253 31.6742 28.9236 30.7019 29.4852L30.0976 29.8343C29.8621 29.9702 29.5866 30.0074 29.3223 29.9366C29.0573 29.8651 28.8372 29.6962 28.7005 29.4592L27.785 27.8721C27.6483 27.6366 27.6118 27.3611 27.6827 27.0961C27.7528 26.8332 27.9217 26.6131 28.1593 26.475L28.7587 26.1308Z" fill="#6EE1B8"/>
<path id="Vector_6" d="M40.533 26.8025C43.4163 26.8025 45.7626 24.4562 45.7626 21.5723C45.7626 18.689 43.4163 16.3428 40.533 16.3428C37.649 16.3428 35.3027 18.689 35.3027 21.5723C35.3027 24.4562 37.649 26.8025 40.533 26.8025ZM40.533 17.7273C42.6529 17.7273 44.3781 19.4524 44.3781 21.5723C44.3781 23.6928 42.6529 25.418 40.533 25.418C38.4124 25.418 36.6872 23.6928 36.6872 21.5723C36.6872 19.4524 38.4124 17.7273 40.533 17.7273Z" fill="#6EE1B8"/>
</g>
</g>
</g>
</svg>
