<svg width="63" height="60" viewBox="0 0 63 60" fill="none" xmlns="http://www.w3.org/2000/svg">
<g id="Group 1878">
<g id="Group">
<path id="Vector" d="M5.96289 19.5226C5.96289 23.3417 9.07048 26.4492 12.8903 26.4492C16.7094 26.4492 19.817 23.3417 19.817 19.5226C19.817 15.7028 16.7094 12.5952 12.8903 12.5952C9.07048 12.5952 5.96289 15.7028 5.96289 19.5226ZM12.8903 13.9797C15.946 13.9797 18.4318 16.4662 18.4318 19.5219C18.4318 22.5776 15.946 25.064 12.8903 25.064C9.83388 25.064 7.34739 22.5776 7.34739 19.5219C7.34739 16.4662 9.83388 13.9797 12.8903 13.9797Z" fill="#22D7FF"/>
<path id="Vector_2" d="M0 38.42V39.6118C0 40.5714 0.780929 41.3524 1.74062 41.3524H24.0384C24.9981 41.3524 25.7791 40.5714 25.7791 39.6118V38.42C25.7791 33.5011 21.777 29.499 16.858 29.499H8.92039C4.00208 29.499 0 33.5011 0 38.42ZM8.92039 30.8842H16.858C21.0136 30.8842 24.3939 34.2645 24.3939 38.42V39.6118C24.3939 39.808 24.234 39.9686 24.0377 39.9686H1.74062C1.54433 39.9686 1.3838 39.808 1.3838 39.6118V38.42C1.3838 34.2645 4.76479 30.8842 8.92039 30.8842Z" fill="#22D7FF"/>
<path id="Vector_3" d="M49.8864 31.2432C46.0666 31.2432 42.959 34.3507 42.959 38.1698C42.959 41.9889 46.0666 45.0965 49.8864 45.0965C53.7055 45.0965 56.8131 41.9889 56.8131 38.1698C56.8131 34.3507 53.7055 31.2432 49.8864 31.2432ZM49.8864 43.7127C46.83 43.7127 44.3435 41.2262 44.3435 38.1705C44.3435 35.1148 46.83 32.6284 49.8864 32.6284C52.9421 32.6284 55.4286 35.1148 55.4286 38.1705C55.4286 41.2262 52.9421 43.7127 49.8864 43.7127Z" fill="#22D7FF"/>
<path id="Vector_4" d="M62.7752 58.2602V57.0685C62.7752 52.1495 58.7731 48.1475 53.8541 48.1475H45.9172C40.9982 48.1475 36.9961 52.1495 36.9961 57.0685V58.2602C36.9961 59.2199 37.777 60.0001 38.7367 60.0001H61.0345C61.9942 60.0008 62.7752 59.2206 62.7752 58.2602ZM61.3914 58.2602C61.3914 58.4565 61.2308 58.6163 61.0345 58.6163H38.7367C38.5404 58.6163 38.3806 58.4565 38.3806 58.2602V57.0685C38.3806 52.9129 41.7609 49.5319 45.9165 49.5319H53.8548C58.0104 49.5319 61.3914 52.9129 61.3914 57.0685V58.2602Z" fill="#22D7FF"/>
<path id="Vector_5" d="M26.0671 18.9328L25.4691 19.2777C24.9125 19.5988 24.515 20.1175 24.3475 20.7386C24.1814 21.3597 24.2669 22.0088 24.5879 22.5654L25.5042 24.1518C25.8245 24.7077 26.3433 25.1052 26.9651 25.2727C27.5869 25.4382 28.236 25.3554 28.7919 25.0323L29.3955 24.6832C29.6156 24.5556 29.8617 24.4932 30.1056 24.4932C30.419 24.4932 30.7288 24.597 30.9763 24.8002C31.9794 25.6225 33.1053 26.2731 34.3229 26.7322C34.8529 26.9327 35.209 27.4585 35.209 28.041V28.7371C35.209 30.0648 36.2886 31.1451 37.6163 31.1451H39.4473C40.775 31.1451 41.8553 30.0648 41.8553 28.7371V28.041C41.8553 27.4585 42.2107 26.9327 42.7407 26.7329C43.9583 26.2731 45.0849 25.6225 46.0873 24.8002C46.5283 24.4385 47.1634 24.3916 47.6674 24.6839L48.271 25.0316C48.8269 25.3519 49.4774 25.4375 50.0985 25.2734C50.7196 25.1066 51.2384 24.7077 51.5601 24.1511L52.4756 22.5654C52.7967 22.0081 52.8822 21.359 52.7161 20.7386C52.5493 20.1175 52.1511 19.5988 51.5945 19.2777L50.9965 18.9321C50.4911 18.6412 50.2149 18.0678 50.3081 17.5049C50.414 16.8655 50.4686 16.215 50.4686 15.5722C50.4686 14.9294 50.4147 14.2795 50.3081 13.6409C50.2149 13.078 50.4918 12.5039 50.9965 12.2122L51.5945 11.8674C52.1504 11.547 52.5486 11.0282 52.7161 10.4065C52.8822 9.78536 52.7967 9.13623 52.4756 8.58033L51.5601 6.99325C50.8963 5.8436 49.4213 5.44823 48.2717 6.11208L47.6674 6.46118C47.162 6.7521 46.5283 6.70584 46.0873 6.34482C45.0807 5.51973 43.9548 4.8699 42.7407 4.41284C42.2107 4.21235 41.8553 3.6873 41.8553 3.10476V2.40726C41.8553 1.07955 40.775 0 39.4473 0H37.6163C36.2886 0 35.209 1.07955 35.209 2.40726V3.10476C35.209 3.6866 34.8529 4.21235 34.3229 4.41214C33.1088 4.8692 31.9822 5.51973 30.9763 6.34482C30.5374 6.70584 29.9023 6.7521 29.3955 6.46118L28.7926 6.11349C28.2353 5.79032 27.5862 5.7062 26.9658 5.87164C26.344 6.03848 25.8252 6.43735 25.5042 6.99395L24.5886 8.57963C24.2676 9.13623 24.1821 9.78536 24.3482 10.4058C24.515 11.0275 24.9139 11.5463 25.4698 11.866L26.0678 12.213C26.5732 12.5032 26.8494 13.0766 26.7562 13.6402C26.6503 14.276 26.5963 14.9258 26.5963 15.5715C26.5963 16.2171 26.6496 16.8676 26.7562 17.5042C26.8487 18.0671 26.5725 18.6412 26.0671 18.9328ZM26.7597 20.1308C27.7614 19.5525 28.3082 18.4057 28.1204 17.2777C28.0271 16.7148 27.9801 16.1414 27.9801 15.5722C27.9801 15.0037 28.0271 14.4302 28.1204 13.8673C28.3082 12.7387 27.7607 11.5926 26.7597 11.0149L26.1617 10.6679C25.9248 10.5326 25.7551 10.3118 25.685 10.0475C25.6135 9.78326 25.65 9.50706 25.7874 9.27152L26.7022 7.68584C26.8382 7.4496 27.059 7.27996 27.3226 7.20846C27.5862 7.13836 27.861 7.17481 28.0993 7.31081L28.7036 7.65921C29.7067 8.23754 30.9714 8.13799 31.8532 7.41456C32.7407 6.68691 33.7362 6.11278 34.8115 5.7062C35.8771 5.30592 36.5928 4.25932 36.5928 3.10336V2.40586C36.5928 1.84225 37.0513 1.38379 37.6156 1.38379H39.4466C40.0109 1.38379 40.4694 1.84225 40.4694 2.40586V3.10336C40.4694 4.25862 41.1851 5.30592 42.2507 5.7062C43.326 6.11208 44.3215 6.68621 45.2089 7.41456C46.0915 8.1387 47.3583 8.23543 48.3586 7.65921L48.9636 7.3101C49.2005 7.17411 49.476 7.13766 49.7403 7.20846C50.0046 7.27926 50.224 7.4489 50.36 7.68514L51.2755 9.27152C51.4122 9.50706 51.4487 9.78256 51.3779 10.0475C51.3078 10.3104 51.1388 10.5305 50.9012 10.6686L50.3039 11.0135C49.3015 11.5912 48.7547 12.7387 48.9425 13.8666C49.0358 14.4295 49.0827 15.003 49.0827 15.5715C49.0827 16.1407 49.0358 16.7141 48.9425 17.277C48.7547 18.4057 49.3022 19.5518 50.3032 20.1294L50.9222 20.4883C51.1479 20.6257 51.3099 20.841 51.3772 21.0968C51.4487 21.3611 51.4122 21.6366 51.2748 21.8721L50.3593 23.4585C50.2233 23.6948 50.0025 23.8644 49.7389 23.9359C49.4718 24.0074 49.197 23.9709 48.9615 23.8329L48.3572 23.4845C47.3562 22.9061 46.0915 23.0064 45.2082 23.7298C44.3208 24.4574 43.3253 25.0316 42.25 25.4382C41.1844 25.8391 40.4687 26.8857 40.4687 28.0417V28.7378C40.4687 29.3021 40.0102 29.7606 39.4459 29.7606H37.6149C37.0506 29.7606 36.5921 29.3021 36.5921 28.7378V28.0417C36.5921 26.8864 35.8764 25.8391 34.8108 25.4382C33.7355 25.0323 32.74 24.4582 31.8525 23.7298C30.9924 23.0253 29.6752 22.9236 28.7029 23.4852L28.0986 23.8343C27.8631 23.9702 27.5876 24.0074 27.3233 23.9366C27.0583 23.8651 26.8382 23.6962 26.7015 23.4592L25.786 21.8721C25.6493 21.6366 25.6128 21.3611 25.6836 21.0961C25.7537 20.8332 25.9227 20.6131 26.1603 20.475L26.7597 20.1308Z" fill="#6EE1B8"/>
<path id="Vector_6" d="M38.532 20.8025C41.4153 20.8025 43.7616 18.4562 43.7616 15.5723C43.7616 12.689 41.4153 10.3428 38.532 10.3428C35.6481 10.3428 33.3018 12.689 33.3018 15.5723C33.3018 18.4562 35.6481 20.8025 38.532 20.8025ZM38.532 11.7273C40.6519 11.7273 42.3771 13.4524 42.3771 15.5723C42.3771 17.6928 40.6519 19.418 38.532 19.418C36.4115 19.418 34.6863 17.6928 34.6863 15.5723C34.6863 13.4524 36.4115 11.7273 38.532 11.7273Z" fill="#6EE1B8"/>
</g>
</g>
</svg>
