<svg width="70" height="70" viewBox="0 0 70 70" fill="none" xmlns="http://www.w3.org/2000/svg">
<g id="Frame 1133">
<g id="Group 1864">
<g id="Group">
<g id="Group_2">
<path id="Vector" d="M7.18302 37.9309L7.17396 37.9399L7.16969 37.9446C7.16751 37.9452 7.16404 37.9458 7.15955 37.9458C7.15343 37.9458 7.14744 37.9447 7.14196 37.9424C7.13739 37.9406 7.13237 37.9377 7.12704 37.9328C7.12659 37.932 7.12592 37.9306 7.12515 37.9287C7.12258 37.9221 7.12109 37.9143 7.12109 37.9074C7.12109 37.9006 7.12255 37.8929 7.12509 37.8865C7.12568 37.885 7.12623 37.8838 7.12668 37.8829C7.12765 37.8824 7.12906 37.8817 7.13096 37.8809C7.13638 37.8788 7.1444 37.877 7.15403 37.877C7.16366 37.877 7.17168 37.8788 7.17709 37.8809C7.17965 37.8819 7.1813 37.8828 7.18222 37.8834L7.18324 37.8842C7.18483 37.8859 7.18681 37.8884 7.18891 37.8915C7.19157 37.8954 7.1938 37.8994 7.19548 37.9033C7.1962 37.9049 7.19673 37.9063 7.19713 37.9075C7.19671 37.9087 7.19615 37.9102 7.19541 37.9119C7.19373 37.9157 7.19154 37.9197 7.18903 37.9234C7.1865 37.9271 7.18429 37.9296 7.18302 37.9309Z" fill="#22D7FF" stroke="#6EE1B8"/>
</g>
<g id="Group_3">
<path id="Vector_2" d="M63.3534 37.9321C63.353 37.9314 63.3524 37.9301 63.3516 37.9283C63.3491 37.922 63.3477 37.9143 63.3477 37.9074C63.3477 37.9006 63.3491 37.8931 63.3516 37.8869C63.3516 37.8867 63.3517 37.8865 63.3518 37.8864C63.3606 37.8813 63.3733 37.877 63.3887 37.877C63.3969 37.877 63.4019 37.878 63.4045 37.8789L63.4086 37.883C63.4103 37.8847 63.4128 37.8875 63.4155 37.8915C63.4181 37.8954 63.4204 37.8994 63.422 37.9033C63.4228 37.9049 63.4233 37.9063 63.4237 37.9075C63.4233 37.9087 63.4227 37.9102 63.422 37.9119C63.4203 37.9157 63.4181 37.9197 63.4156 37.9234C63.4131 37.9271 63.4109 37.9296 63.4096 37.9309L63.4005 37.9399L63.3963 37.9446C63.3941 37.9452 63.3906 37.9458 63.3861 37.9458C63.38 37.9458 63.374 37.9447 63.3687 37.9425C63.3639 37.9405 63.3588 37.9375 63.3534 37.9321Z" fill="#22D7FF" stroke="#22D7FF"/>
</g>
<g id="Group_4">
<path id="Vector_3" d="M32.1994 25.5824L32.5409 25.2171C32.0728 24.7796 31.4593 24.5179 30.7518 24.4117C29.7355 24.2582 28.6397 24.4919 27.6638 25.0434C27.6638 25.0434 27.6637 25.0434 27.6637 25.0435L21.9864 28.2489L21.9854 28.2495C21.9814 28.2517 21.9753 28.2537 21.9677 28.2537C21.9621 28.2537 21.9564 28.2525 21.9501 28.2495C21.95 28.2494 21.9499 28.2494 21.9499 28.2494L18.2992 26.4538C18.2992 26.4537 18.2992 26.4537 18.2991 26.4537C18.2801 26.4443 18.2721 26.4214 18.2813 26.4019C18.2854 26.3938 18.2921 26.3875 18.3029 26.3839C18.3143 26.38 18.3251 26.3808 18.3347 26.3853L21.7297 28.0555L21.9664 28.172L22.1962 28.0422L27.6259 24.9761C28.6404 24.4035 29.758 24.1847 30.7637 24.3352C31.5303 24.451 32.1377 24.7351 32.5935 25.1603L32.9346 24.7947M32.1994 25.5824L32.54 25.2163C32.5566 25.2317 32.5804 25.2307 32.5953 25.2149C32.6097 25.1993 32.609 25.1747 32.5932 25.1599L32.9346 24.7947M32.1994 25.5824C32.4182 25.7859 32.7579 25.7732 32.9609 25.5561C33.1638 25.3384 33.1517 24.9976 32.9346 24.7947M32.1994 25.5824C31.8208 25.2285 31.3082 25.0008 30.6771 24.9061C29.7859 24.7715 28.802 24.9745 27.9097 25.4788L30.8381 23.8408C31.6878 23.9691 32.3935 24.2899 32.9346 24.7947" fill="#6EE1B8" stroke="#6EE1B8"/>
</g>
<g id="Group_5">
<path id="Vector_4" d="M15.2096 45.0176L15.209 45.0173L10.4675 42.0636L10.4675 42.0636C10.4492 42.0522 10.444 42.0287 10.4551 42.011L10.4556 42.0102C10.4669 41.9919 10.4901 41.9874 10.5063 41.9976L10.5077 41.9985L15.2492 44.9521L15.2492 44.9521C15.2675 44.9635 15.2727 44.9871 15.2616 45.0048L15.2614 45.0051C15.2573 45.0117 15.2528 45.0156 15.2478 45.0183C15.2422 45.0214 15.2354 45.0231 15.2286 45.0231C15.225 45.0231 15.2218 45.0227 15.2189 45.0219C15.2162 45.0211 15.2131 45.0198 15.2096 45.0176Z" fill="#6EE1B8" stroke="#6EE1B8"/>
</g>
<g id="Group_6">
<path id="Vector_5" d="M15.658 47.8784L15.6583 47.8786L16.4143 48.4248C16.4143 48.4249 16.4144 48.4249 16.4144 48.4249C16.7878 48.6945 17.2208 48.8245 17.6507 48.8245C18.3048 48.8245 18.9462 48.5252 19.3562 47.9665L19.3565 47.9661C19.6879 47.5153 19.8219 46.9668 19.7355 46.416C19.6485 45.8631 19.3512 45.3787 18.894 45.0484C18.894 45.0484 18.894 45.0484 18.894 45.0484C18.8939 45.0483 18.8939 45.0483 18.8939 45.0483L18.1379 44.5026L18.1378 44.5025C17.1971 43.8232 15.8768 44.031 15.1962 44.9604L15.1956 44.9612C14.8643 45.412 14.7301 45.9611 14.8166 46.5119L15.658 47.8784ZM15.658 47.8784C15.201 47.5486 14.9037 47.0649 14.8166 46.5121L15.658 47.8784ZM15.2572 45.0067L15.2576 45.0062C15.6558 44.4645 16.2754 44.1793 16.8993 44.1793C17.3131 44.1793 17.7323 44.3047 18.0926 44.5646L18.0927 44.5646L18.8488 45.1105L18.8491 45.1107C19.2865 45.4268 19.5755 45.8955 19.6595 46.4269L19.6596 46.4278C19.7423 46.9567 19.612 47.4889 19.2947 47.9209L15.2572 45.0067ZM15.2572 45.0067C14.9404 45.4387 14.8097 45.9704 14.893 46.4999L15.2572 45.0067ZM15.7027 47.8164L15.7026 47.8163C15.2656 47.5006 14.9765 47.0317 14.8931 46.5L15.7027 47.8164ZM15.7027 47.8164L16.4594 48.3627L16.4596 48.3629M15.7027 47.8164L16.4596 48.3629M16.4596 48.3629C17.3653 49.0161 18.6347 48.8199 19.2946 47.921L16.4596 48.3629Z" fill="#6EE1B8" stroke="#6EE1B8"/>
</g>
<g id="Group_7">
<path id="Vector_6" d="M19.7314 51.6412L19.7316 51.6413C20.1025 51.8784 20.5224 51.9923 20.9494 51.9923C21.7797 51.9923 22.6323 51.5587 23.1514 50.7596L23.7618 49.8201C24.1555 49.2136 24.2926 48.4799 24.1484 47.8141L19.7314 51.6412ZM19.7314 51.6412C19.226 51.3186 18.8721 50.8083 18.7395 50.1945L18.7395 50.1942M19.7314 51.6412L18.7395 50.1942M18.7395 50.1942C18.5953 49.529 18.7323 48.7952 19.1261 48.1887L19.1261 48.1887M18.7395 50.1942L19.1261 48.1887M19.1261 48.1887L19.7359 47.2493C19.7359 47.2493 19.7359 47.2492 19.7359 47.2492C20.5289 46.0297 22.0741 45.6762 23.1558 46.3674L23.1562 46.3677M19.1261 48.1887L23.1562 46.3677M23.1562 46.3677C23.6612 46.6897 24.0154 47.2004 24.1484 47.814L23.1562 46.3677ZM19.8007 47.2914L19.8008 47.2912C20.5285 46.1712 22.0005 45.7212 23.1145 46.4322L19.8007 47.2914ZM19.8007 47.2914L19.1908 48.2309C19.1908 48.2309 19.1907 48.231 19.1907 48.231C19.1907 48.231 19.1907 48.231 19.1907 48.231C18.8147 48.8099 18.6713 49.517 18.8143 50.1781L18.8144 50.1786M19.8007 47.2914L18.8144 50.1786M18.8144 50.1786C18.9406 50.7588 19.2777 51.2603 19.7726 51.5764L19.7727 51.5765M18.8144 50.1786L19.7727 51.5765M19.7727 51.5765C20.8886 52.2889 22.3596 51.8368 23.0866 50.7176C23.0866 50.7176 23.0866 50.7175 23.0866 50.7175L23.6971 49.7779L23.6971 49.7779M19.7727 51.5765L23.6971 49.7779M23.6971 49.7779C24.0731 49.1991 24.2166 48.4918 24.073 47.8305M23.6971 49.7779L24.073 47.8305M24.073 47.8305C23.9473 47.2493 23.6099 46.7483 23.1146 46.4323L24.073 47.8305Z" fill="#6EE1B8" stroke="#6EE1B8"/>
</g>
<g id="Group_8">
<path id="Vector_7" d="M22.7185 51.2394L22.7185 51.2395C22.3048 51.7805 22.1313 52.4318 22.2198 53.0765L22.7185 51.2394ZM22.7185 51.2394L24.7656 48.5619C24.7656 48.5619 24.7656 48.5619 24.7656 48.5619C25.5923 47.481 27.0836 47.264 28.0742 48.0089C28.5423 48.361 28.8473 48.881 28.93 49.4805C29.0186 50.125 28.8452 50.7765 28.4319 51.3182C28.4318 51.3183 28.4317 51.3185 28.4316 51.3186L26.3838 53.9958L26.3835 53.9961M22.7185 51.2394L26.3835 53.9961M26.3835 53.9961C25.8869 54.6465 25.1419 54.9885 24.4105 54.9885C23.9356 54.9885 23.4688 54.8443 23.0755 54.5487M26.3835 53.9961L23.0755 54.5487M24.8262 48.6087L24.8266 48.6081C25.5954 47.6055 27.0232 47.3155 28.0284 48.0709L28.0284 48.071C28.4841 48.4136 28.7752 48.9213 28.8537 49.4908L28.8538 49.4911C28.9406 50.1236 28.7639 50.7567 28.3709 51.2713L28.3707 51.2716L26.3228 53.9488L24.8262 48.6087ZM24.8262 48.6087L22.7791 51.2862L22.7789 51.2864M24.8262 48.6087L22.7789 51.2864M22.7789 51.2864C22.3864 51.8005 22.2086 52.4331 22.2961 53.0662M22.7789 51.2864L22.2961 53.0662M23.0755 54.5487C22.6071 54.1962 22.3025 53.6763 22.2198 53.0768L23.0755 54.5487ZM22.2961 53.0662C22.3741 53.6358 22.6651 54.1441 23.1214 54.4868L22.2961 53.0662ZM23.1217 54.487C24.1294 55.2443 25.5564 54.9522 26.3225 53.9492L23.1217 54.487Z" fill="#6EE1B8" stroke="#6EE1B8"/>
</g>
<g id="Group_9">
<path id="Vector_8" d="M28.2681 51.5313L28.2879 51.5054L28.2881 51.5051C28.6406 51.0449 29.1823 50.8354 29.7231 50.8354C30.2104 50.8354 30.7163 51.0027 31.1473 51.327C31.639 51.6967 31.9844 52.2368 32.0657 52.8285L32.0657 52.8286C32.1084 53.1397 32.0995 53.6429 31.7474 54.104L31.7472 54.1042L30.1224 56.229C29.445 57.1154 28.138 57.0643 27.2633 56.4078L27.263 56.4076C26.7713 56.0378 26.4259 55.4977 26.3446 54.906L26.3446 54.9059C26.3019 54.5948 26.3108 54.0916 26.6629 53.6306L26.6631 53.6303L28.2576 51.5451V51.4203C28.2473 51.433 28.2372 51.4458 28.2272 51.4588C28.2272 51.4588 28.2272 51.4588 28.2272 51.4588L26.6021 53.5834C26.602 53.5834 26.602 53.5835 26.602 53.5835C26.3234 53.9482 26.2003 54.4181 26.2684 54.9167C26.3488 55.5008 26.6882 56.0714 27.2168 56.4692L28.2681 51.5313ZM28.2681 51.5313V51.4075C28.8998 50.6473 30.1849 50.508 31.1937 51.2655C31.7222 51.6633 32.0615 52.2338 32.1419 52.8178C32.21 53.3163 32.0869 53.7861 31.8084 54.1508C31.8084 54.1509 31.8084 54.1509 31.8083 54.1509C31.8083 54.151 31.8083 54.1511 31.8082 54.1511L30.1831 56.2757L30.1829 56.2759C29.84 56.7247 29.292 56.9714 28.6826 56.9719C28.1908 56.9718 27.6695 56.8092 27.2168 56.4692L28.2681 51.5313Z" fill="#6EE1B8" stroke="#6EE1B8"/>
</g>
<g id="Group_10">
<path id="Vector_9" d="M31.3962 54.6147L31.3964 54.6149C31.4536 54.6718 32.2176 55.4239 33.3152 56.1584C34.4273 56.9027 35.8044 57.5758 37.1023 57.5758C37.323 57.5758 37.5406 57.5563 37.7534 57.5151C38.8826 57.2951 39.8031 56.4896 40.4542 54.9647C40.4542 54.9647 40.4542 54.9647 40.4542 54.9647L31.3962 54.6147ZM31.3962 54.6147C31.3811 54.5996 31.3811 54.576 31.3953 54.561L31.3962 54.6147Z" fill="#6EE1B8" stroke="#6EE1B8"/>
</g>
<g id="Group_11">
<path id="Vector_10" d="M35.8865 50.1372L35.8865 50.1372L35.8862 50.1365C35.8756 50.1183 35.8815 50.0952 35.8997 50.0843C35.908 50.0797 35.918 50.0781 35.9296 50.0811C35.9413 50.0843 35.9485 50.0906 35.9527 50.0979L35.9527 50.0979C35.994 50.1689 36.6929 51.3489 37.7549 52.5262C38.2937 53.1236 38.9385 53.7344 39.6511 54.1989C40.3615 54.662 41.1718 55.0006 42.0311 55.0006H42.0311H42.0311H42.0312H42.0312H42.0312H42.0312H42.0312H42.0313H42.0313H42.0313H42.0313H42.0314H42.0314H42.0314H42.0314H42.0314H42.0315H42.0315H42.0315H42.0315H42.0315H42.0316H42.0316H42.0316H42.0316H42.0317H42.0317H42.0317H42.0317H42.0317H42.0318H42.0318H42.0318H42.0318H42.0318H42.0319H42.0319H42.0319H42.0319H42.032H42.032H42.032H42.032H42.032H42.0321H42.0321H42.0321H42.0321H42.0321H42.0322H42.0322H42.0322H42.0322H42.0323H42.0323H42.0323H42.0323H42.0323H42.0324H42.0324H42.0324H42.0324H42.0325H42.0325H42.0325H42.0325H42.0325H42.0326H42.0326H42.0326H42.0326H42.0326H42.0327H42.0327H42.0327H42.0327H42.0328H42.0328H42.0328H42.0328H42.0328H42.0329H42.0329H42.0329H42.0329H42.0329H42.033H42.033H42.033H42.033H42.0331H42.0331H42.0331H42.0331H42.0331H42.0332H42.0332H42.0332H42.0332H42.0332H42.0333H42.0333H42.0333H42.0333H42.0334H42.0334H42.0334H42.0334H42.0334H42.0335H42.0335H42.0335H42.0335H42.0336H42.0336H42.0336H42.0336H42.0336H42.0337H42.0337H42.0337H42.0337H42.0337H42.0338H42.0338H42.0338H42.0338H42.0339H42.0339H42.0339H42.0339H42.0339H42.034H42.034H42.034H42.034H42.034H42.0341H42.0341H42.0341H42.0341H42.0342H42.0342H42.0342H42.0342H42.0342H42.0343H42.0343H42.0343H42.0343H42.0343H42.0344H42.0344H42.0344H42.0344H42.0345H42.0345H42.0345H42.0345H42.0345H42.0346H42.0346H42.0346H42.0346H42.0347H42.0347H42.0347H42.0347H42.0347H42.0348H42.0348H42.0348H42.0348H42.0348H42.0349H42.0349H42.0349H42.0349H42.035H42.035H42.035H42.035H42.035H42.0351H42.0351H42.0351H42.0351H42.0351H42.0352H42.0352H42.0352H42.0352H42.0353H42.0353H42.0353H42.0353H42.0353H42.0354H42.0354H42.0354H42.0354H42.0354H42.0355H42.0355H42.0355H42.0355H42.0356H42.0356H42.0356H42.0356H42.0356H42.0357H42.0357H42.0357H42.0357H42.0358H42.0358H42.0358H42.0358H42.0358H42.0359H42.0359H42.0359H42.0359H42.0359H42.036H42.036H42.036H42.036H42.0361H42.0361H42.0361H42.0361H42.0361H42.0362H42.0362H42.0362H42.0362H42.0362H42.0363H42.0363H42.0363H42.0363H42.0364H42.0364H42.0364H42.0364H42.0364H42.0365H42.0365H42.0365H42.0365H42.0365H42.0366H42.0366H42.0366H42.0366H42.0367H42.0367H42.0367H42.0367H42.0367H42.0368H42.0368H42.0368H42.0368H42.0369H42.0369H42.0369H42.0369H42.0369H42.037H42.037H42.037H42.037H42.037H42.0371H42.0371H42.0371H42.0371H42.0372H42.0372H42.0372H42.0372H42.0372H42.0373H42.0373H42.0373H42.0373H42.0373H42.0374H42.0374H42.0374H42.0374H42.0375H42.0375H42.0375H42.0375H42.0375H42.0376H42.0376H42.0376H42.0376H42.0376H42.0377H42.0377H42.0377H42.0377H42.0378H42.0378H42.0378H42.0378H42.0378H42.0379H42.0379H42.0379H42.0379H42.038H42.038H42.038H42.038H42.038H42.0381H42.0381H42.0381H42.0381H42.0381H42.0382H42.0382H42.0382H42.0382H42.0383H42.0383H42.0383H42.0383H42.0383H42.0384H42.0384H42.0384H42.0384H42.0384H42.0385H42.0385H42.0385H42.0385H42.0386H42.0386H42.0386H42.0386H42.0386H42.0387H42.0387H42.0387H42.0387H42.0387H42.0388H42.0388H42.0388H42.0388H42.0389H42.0389H42.0389H42.0389H42.0389H42.039H42.039H42.039H42.039H42.0391H42.0391H42.0391H42.0391H42.0391H42.0392H42.0392H42.0392H42.0392H42.0392H42.0393H42.0393H42.0393H42.0393H42.0394H42.0394H42.0394H42.0394H42.0394H42.0395H42.0395H42.0395H42.0395H42.0395H42.0396H42.0396H42.0396H42.0396H42.0397H42.0397H42.0397H42.0397H42.0397H42.0398H42.0398H42.0398H42.0398H42.0398H42.0399H42.0399H42.0399H42.0399H42.04H42.04H42.04H42.04H42.04H42.0401H42.0401H42.0401H42.0401H42.0402H42.0402H42.0402H42.0402H42.0402H42.0403H42.0403H42.0403H42.0403H42.0403H42.0404H42.0404H42.0404H42.0404H42.0405H42.0405H42.0405H42.0405H42.0405H42.0406H42.0406H42.0406H42.0406H42.0406H42.0407H42.0407H42.0407H42.0407H42.0408H42.0408H42.0408H42.0408H42.0408H42.0409H42.0409H42.0409H42.0409H42.0409H42.041H42.041H42.041H42.041H42.0411H42.0411H42.0411H42.0411H42.0411H42.0412H42.0412H42.0412H42.0412H42.0413H42.0413H42.0413H42.0413H42.0413H42.0414H42.0414H42.0414H42.0414H42.0414H42.0415H42.0415H42.0415H42.0415H42.0416H42.0416H42.0416H42.0416H42.0416H42.0417H42.0417H42.0417H42.0417H42.0417H42.0418H42.0418H42.0418H42.0418H42.0419H42.0419H42.0419H42.0419H42.0419H42.042H42.042H42.042H42.042H42.042H42.0421H42.0421H42.0421L42.0421 55.0006L42.0442 55.0006C43.6036 54.9942 44.9216 53.8431 46.0092 51.9332L46.0094 51.9328C46.0192 51.9155 46.0422 51.908 46.062 51.919C46.0804 51.9297 46.0866 51.9532 46.0761 51.9717C44.8506 54.1233 43.4814 55.0718 42.0438 55.0775H42.0316C40.4873 55.0775 39.0006 53.9743 37.8291 52.7206C36.6787 51.4894 35.9393 50.2288 35.8865 50.1372Z" fill="#6EE1B8" stroke="#6EE1B8"/>
</g>
<g id="Group_12">
<path id="Vector_11" d="M51.029 48.5634L51.4836 48.7717C51.493 48.7511 51.515 48.7436 51.5345 48.7526L51.5347 48.7526C51.5534 48.7612 51.5625 48.7836 51.5532 48.8039C50.5378 51.026 49.2772 52.0443 47.8691 52.1323L47.8691 52.1323L47.8661 52.1325C47.8029 52.1368 47.7377 52.1387 47.67 52.1387C46.8061 52.1387 45.9055 51.792 45.0144 51.2201C44.1264 50.6501 43.2824 49.8786 42.5419 49.0841C41.0633 47.4977 40.0467 45.8739 39.9648 45.7418C39.9538 45.7237 39.9591 45.7007 39.976 45.6892C39.9975 45.6772 40.0209 45.6857 40.0307 45.7016L40.4555 45.4379L40.0304 45.7011C40.591 46.6065 41.7408 48.2147 43.1245 49.581C43.8167 50.2644 44.5809 50.9008 45.3719 51.3571C46.1592 51.8113 47.0112 52.1089 47.8647 52.0555L47.8648 52.0555C49.3987 51.9592 50.5897 50.7276 51.4838 48.7713L51.029 48.5634ZM51.029 48.5634C51.1526 48.2937 51.4702 48.1733 51.7426 48.2979C52.0129 48.4215 52.1317 48.7406 52.0081 49.0114L47.8335 51.5565C49.0818 51.4781 50.1572 50.4712 51.029 48.5634Z" fill="#6EE1B8" stroke="#6EE1B8"/>
</g>
<g id="Group_13">
<path id="Vector_12" d="M44.1136 41.4053L44.1138 41.4055C44.216 41.5499 45.5327 43.3913 47.2881 45.2096C48.1661 46.1191 49.1421 47.0104 50.1204 47.6798C51.1088 48.3561 52.0455 48.7683 52.8544 48.7991C52.8919 48.8005 52.9268 48.8014 52.9595 48.8014C53.6752 48.8014 54.2764 48.5167 54.7733 47.9182L54.7734 47.9181C55.6907 46.8141 56.0518 45.7992 55.9663 44.889L55.9663 44.8889C55.8913 44.0871 55.4559 43.3047 54.6445 42.6343C53.4397 41.6401 52.298 40.5916 51.2512 39.5181L51.2511 39.5181C49.1124 37.3241 46.6333 35.5263 43.8826 34.1732L37.3341 30.9531C36.5854 30.5852 35.7223 30.5692 34.9614 30.9088C34.2778 31.214 33.7604 31.7598 33.498 32.4476L44.1136 41.4053ZM44.1136 41.4053C44.1012 41.3878 44.1056 41.3642 44.1221 41.3523C44.14 41.3396 44.1637 41.3437 44.1762 41.3609C44.883 42.3568 46.2969 44.1428 47.8832 45.6985C48.6761 46.4762 49.5237 47.2078 50.3572 47.7549C51.1795 48.2946 52.043 48.6916 52.8574 48.7225L52.8606 48.7226M44.1136 41.4053L52.8606 48.7226M52.8606 48.7226C53.6061 48.7461 54.225 48.4572 54.7137 47.8695L54.7139 47.8693M52.8606 48.7226L54.7139 47.8693M54.7139 47.8693C55.5337 46.8825 55.9816 45.8762 55.8898 44.8961L55.8898 44.8959M54.7139 47.8693L55.8898 44.8959M55.8898 44.8959C55.7917 43.8529 55.0965 43.1073 54.5956 42.6941L55.8898 44.8959ZM43.8486 34.2423L43.8486 34.2423C46.591 35.591 49.0636 37.3847 51.1962 39.5719C52.2437 40.6459 53.3872 41.6964 54.5953 42.6939L43.8486 34.2423ZM43.8486 34.2423L37.2999 31.0221L37.2998 31.0221M43.8486 34.2423L37.2998 31.0221M37.2998 31.0221C36.5726 30.6646 35.7322 30.65 34.993 30.9787L34.9926 30.9789M37.2998 31.0221L34.9926 30.9789M34.9926 30.9789C34.3331 31.273 33.8252 31.8049 33.57 32.4755M34.9926 30.9789L33.57 32.4755M31.9102 25.8321L31.9101 25.8321C29.9599 26.9783 28.4813 28.6784 27.7345 30.6064L31.9102 25.8321ZM31.9102 25.8321C34.6553 24.2187 37.9605 23.8756 40.9783 24.8901C40.9783 24.8901 40.9783 24.8901 40.9783 24.8901L47.19 26.9787L47.3333 27.0269M31.9102 25.8321L47.3333 27.0269M47.3333 27.0269L47.4793 26.9876M47.3333 27.0269L47.4793 26.9876M47.4793 26.9876L52.9159 25.5242L52.9159 25.5242M47.4793 26.9876L52.9159 25.5242M52.9159 25.5242L52.9197 25.5232M52.9159 25.5242L52.9197 25.5232M52.9197 25.5232C52.9271 25.5211 52.935 25.5216 52.9442 25.5269C52.9537 25.5324 52.9601 25.5406 52.963 25.5513L52.9631 25.5516M52.9197 25.5232L52.9631 25.5516M52.9631 25.5516C52.9685 25.5717 52.9565 25.5931 52.9357 25.5987M52.9631 25.5516L52.9357 25.5987M27.8062 30.6346L27.8063 30.6345C28.5542 28.7031 30.0303 27.0263 31.949 25.8988L27.8062 30.6346ZM27.8062 30.6346C27.1839 32.242 27.2841 33.3661 27.6305 34.123C27.971 34.8672 28.5094 35.1678 28.6029 35.2156L28.611 35.2198M27.8062 30.6346L28.611 35.2198M28.611 35.2198L28.6193 35.2236M28.611 35.2198L28.6193 35.2236M28.6193 35.2236C29.4838 35.6264 30.3185 35.7218 31.1041 35.4014M28.6193 35.2236L31.1041 35.4014M33.57 32.4755C33.1288 33.632 32.3578 34.9767 31.1326 35.4733L33.57 32.4755ZM52.9357 25.5987L52.9357 25.5987M52.9357 25.5987L52.9357 25.5987M52.9357 25.5987L47.3424 27.104C47.3424 27.104 47.3424 27.104 47.3424 27.104C47.3362 27.1057 47.3268 27.1058 47.3183 27.1031C47.3182 27.103 47.3181 27.103 47.3179 27.1029L40.9543 24.9635C40.9542 24.9635 40.9542 24.9634 40.9541 24.9634C37.9564 23.9545 34.6738 24.295 31.9491 25.8987L52.9357 25.5987ZM31.1041 35.4014C31.7977 35.1206 32.319 34.564 32.695 34.0152C33.0749 33.4607 33.3378 32.8681 33.498 32.4477L31.1041 35.4014ZM31.1325 35.4733C30.3873 35.775 29.5411 35.7376 28.5824 35.2913C28.5822 35.2911 28.5819 35.291 28.5816 35.2908C28.55 35.2737 28.0319 34.9939 27.6611 34.3311C27.281 33.652 27.0074 32.4853 27.7344 30.6066L31.1325 35.4733Z" fill="#22D7FF" stroke="#6EE1B8"/>
</g>
<g id="Group_14">
<path id="Vector_13" d="M59.4006 42.0363L59.4006 42.0363L59.4028 42.0356C59.4107 42.0332 59.4192 42.0335 59.429 42.0388C59.4388 42.0441 59.4455 42.0521 59.4488 42.0628C59.4544 42.0819 59.4438 42.104 59.4221 42.1106C59.422 42.1106 59.422 42.1107 59.4219 42.1107L55.2786 43.3581C55.2785 43.3582 55.2783 43.3582 55.2781 43.3583C55.2732 43.3597 55.2686 43.3602 55.2654 43.3602C55.2582 43.3602 55.2497 43.3577 55.2423 43.3523C55.2356 43.3474 55.2309 43.3411 55.2281 43.3321L54.7496 43.4768L55.2283 43.3326C55.2225 43.3134 55.2331 43.2912 55.2549 43.2845C55.255 43.2845 55.255 43.2845 55.2551 43.2845L59.4006 42.0363Z" fill="#6EE1B8" stroke="#6EE1B8"/>
</g>
</g>
<path id="Vector_14" d="M9.46252 44.9183L9.30716 44.443C9.3029 44.4444 9.29856 44.4451 9.29426 44.4451C9.28727 44.4451 9.28178 44.4435 9.27755 44.4414L9.27701 44.4411L0.52171 39.9864C0.521685 39.9864 0.52166 39.9864 0.521635 39.9864C0.501873 39.9762 0.494846 39.9527 0.504264 39.9342L10.873 19.5453C10.8774 19.5366 10.8845 19.5302 10.8952 19.5267C10.9061 19.5231 10.9162 19.5239 10.9253 19.5283C10.9254 19.5283 10.9255 19.5284 10.9255 19.5284L19.6216 23.811C19.6217 23.811 19.6217 23.811 19.6218 23.8111C19.6321 23.8162 19.6389 23.8246 19.642 23.8337L19.6422 23.8343C19.6451 23.843 19.6446 23.8532 19.64 23.8622L19.6396 23.8631L9.32845 44.4239L9.32818 44.4244C9.32355 44.4337 9.31573 44.4402 9.30661 44.4432L9.46252 44.9183ZM9.46252 44.9183C9.40784 44.9362 9.35105 44.9451 9.29426 44.9451C9.21012 44.9451 9.12651 44.9256 9.05027 44.8867L0.294575 40.4318C0.0295532 40.2967 -0.0761398 39.9728 0.0584742 39.7078L10.4274 19.3185C10.561 19.0561 10.8818 18.9504 11.1452 19.0792L19.8431 23.3627C19.9719 23.4263 20.0702 23.5383 20.116 23.6745C20.1617 23.8102 20.1512 23.959 20.0865 24.0873L9.7754 44.648C9.71124 44.7763 9.59872 44.8736 9.46252 44.9183ZM0.816959 39.4895L0.590349 39.9351L1.03591 40.1618L8.8288 44.1266L9.27703 44.3547L9.50247 43.9051L19.3277 24.3135L19.5535 23.8634L19.1017 23.6408L11.3677 19.8317L10.9249 19.6136L10.7011 20.0536L0.816959 39.4895Z" fill="#6EE1B8" stroke="#22D7FF"/>
<path id="Vector_15" d="M60.323 44.4613L60.3222 44.461C60.3135 44.4572 60.3057 44.4496 60.3016 44.4394C60.3016 44.4393 60.3015 44.4392 60.3015 44.4392L51.8972 23.0433L51.8968 23.0423C51.8937 23.0342 51.8936 23.0238 51.8976 23.0148L51.8976 23.0148L51.8986 23.0126C51.9019 23.005 51.9086 22.9979 51.9188 22.994L51.9194 22.9938L60.9706 19.5033L60.9727 19.5024C60.9886 19.4962 61.0112 19.5029 61.0202 19.5253L69.4974 40.7551L69.4975 40.7554C69.5051 40.7742 69.4964 40.7972 69.4755 40.8057C69.4754 40.8057 69.4754 40.8058 69.4753 40.8058L60.3518 44.4616L60.3514 44.4618C60.3486 44.4629 60.3437 44.4641 60.3374 44.4641C60.3319 44.4641 60.3267 44.4629 60.323 44.4613ZM52.4524 22.8705L51.983 23.0515L52.1669 23.5198L60.1749 43.907L60.359 44.3756L60.8263 44.1883L68.9483 40.9339L69.4119 40.7482L69.2267 40.2844L61.1456 20.0476L60.9624 19.5887L60.5014 19.7665L52.4524 22.8705Z" fill="#22D7FF" stroke="#22D7FF"/>
</g>
</g>
</svg>
