<svg width="78" height="44" viewBox="0 0 78 44" fill="none" xmlns="http://www.w3.org/2000/svg">
<g id="Group 1864">
<g id="Group">
<g id="Group_2">
<path id="Vector" d="M8.04546 21.1342L8.0364 21.1432L8.02781 21.1527C8.02637 21.1544 8.02281 21.1577 8.01468 21.1611C8.00597 21.1647 7.99357 21.1676 7.9789 21.1676C7.95114 21.1676 7.92324 21.1574 7.90004 21.1342C7.89454 21.1287 7.87891 21.1035 7.87891 21.0676C7.87891 21.0335 7.89328 21.0084 7.90044 21.0007C7.91188 20.9898 7.93609 20.9766 7.97275 20.9766C8.00967 20.9766 8.03396 20.99 8.0453 21.0009C8.05474 21.0106 8.06447 21.0246 8.07129 21.0402C8.07827 21.0561 8.07889 21.0661 8.07889 21.0676C8.07889 21.0693 8.07823 21.0794 8.07121 21.0955C8.06418 21.1116 8.05429 21.1253 8.04546 21.1342Z" fill="#22D7FF" stroke="#6EE1B8"/>
</g>
<g id="Group_3">
<path id="Vector_2" d="M70.5529 21.135L70.5529 21.135L70.551 21.1332C70.5458 21.128 70.5303 21.1034 70.5303 21.0676C70.5303 21.0372 70.5417 21.0143 70.549 21.0045C70.5692 20.9883 70.5991 20.9766 70.6332 20.9766C70.6712 20.9766 70.6864 20.9903 70.6876 20.9916L70.6875 20.9917L70.6959 21.0001C70.7056 21.0098 70.7156 21.0241 70.7227 21.0402C70.7296 21.0561 70.7303 21.0661 70.7303 21.0676C70.7303 21.0693 70.7296 21.0794 70.7226 21.0955C70.7155 21.1116 70.7057 21.1253 70.6968 21.1342L70.6878 21.1432L70.6792 21.1527C70.6777 21.1544 70.6742 21.1577 70.666 21.1611C70.6573 21.1647 70.6449 21.1676 70.6303 21.1676C70.6023 21.1676 70.575 21.1573 70.5529 21.135Z" fill="#22D7FF" stroke="#22D7FF"/>
</g>
<g id="Group_4">
<path id="Vector_3" d="M35.8779 7.33417L36.2193 6.9689C35.708 6.49096 35.0359 6.20329 34.2563 6.08628C33.1381 5.91739 31.9299 6.17428 30.8521 6.78335C30.852 6.78338 30.852 6.78341 30.8519 6.78345L24.5258 10.3552L24.5248 10.3558C24.5115 10.3633 24.495 10.3679 24.4769 10.3679C24.462 10.3679 24.4471 10.3647 24.4322 10.3575C24.4321 10.3574 24.432 10.3574 24.4319 10.3573L20.3639 8.35641C20.3639 8.35639 20.3638 8.35638 20.3638 8.35636C20.3143 8.33189 20.2937 8.27219 20.3178 8.22216C20.341 8.17588 20.4015 8.15272 20.4535 8.17742L24.2368 10.0387L24.4736 10.1551L24.7034 10.0254L30.7536 6.60887C30.7537 6.60885 30.7537 6.60884 30.7537 6.60883C31.894 5.96519 33.152 5.71823 34.2866 5.88802C35.1501 6.01845 35.8381 6.33903 36.3556 6.82174C36.3963 6.85972 36.3984 6.92319 36.3608 6.96367C36.3227 7.00431 36.26 7.00675 36.2185 6.96809L35.8779 7.33417ZM35.8779 7.33417C36.1217 7.56093 36.5002 7.54687 36.7263 7.30488L31.0979 7.21875C32.0922 6.65684 33.1885 6.43067 34.1816 6.58067C34.8848 6.68614 35.456 6.93984 35.8779 7.33417Z" fill="#6EE1B8" stroke="#6EE1B8"/>
</g>
<g id="Group_5">
<path id="Vector_4" d="M16.9182 29.0393L16.9175 29.0389L11.6342 25.7477L11.6342 25.7477C11.5871 25.7184 11.5731 25.6569 11.6021 25.6103L11.6026 25.6096C11.6319 25.5623 11.6931 25.5491 11.738 25.5773L11.7395 25.5782L17.0228 28.8694L17.0228 28.8694C17.0699 28.8987 17.084 28.9602 17.0549 29.0068L17.0547 29.0071C17.0362 29.037 17.0046 29.0541 16.9696 29.0541C16.9518 29.0541 16.9346 29.0495 16.9182 29.0393Z" fill="#6EE1B8" stroke="#6EE1B8"/>
</g>
<g id="Group_6">
<path id="Vector_5" d="M17.4146 32.2249L17.4148 32.2251L18.2573 32.8338C18.2573 32.8338 18.2574 32.8339 18.2574 32.8339C18.6835 33.1415 19.1779 33.2899 19.6685 33.2899C20.4146 33.2899 21.1467 32.9485 21.6149 32.3105L21.6152 32.3102C21.9935 31.7956 22.1466 31.169 22.0479 30.5401C21.9486 29.909 21.609 29.3558 21.0873 28.9788C21.0873 28.9788 21.0873 28.9788 21.0873 28.9788C21.0872 28.9787 21.0872 28.9787 21.0871 28.9787L20.2447 28.3706L20.2447 28.3706C19.1712 27.5953 17.6644 27.8322 16.8873 28.8934L16.8868 28.8942C16.5085 29.4087 16.3553 30.0359 16.454 30.6648L17.4146 32.2249ZM17.4146 32.2249C16.893 31.8485 16.5534 31.296 16.4541 30.6649L17.4146 32.2249ZM17.0475 29.0124L17.0479 29.012C17.4803 28.4237 18.1531 28.1138 18.8312 28.1138C19.2808 28.1138 19.7361 28.25 20.1274 28.5324L20.1275 28.5324L20.9701 29.1406L20.9704 29.1408C21.4454 29.4843 21.7592 29.9931 21.8504 30.5701L21.8505 30.571C21.9403 31.1453 21.7988 31.723 21.4543 32.1921L17.0475 29.0124ZM17.0475 29.0124C16.7034 29.4817 16.5616 30.0588 16.6521 30.6336L17.0475 29.0124ZM17.5313 32.0631L17.5311 32.063C17.0565 31.7201 16.7426 31.2111 16.6521 30.6338L17.5313 32.0631ZM17.5313 32.0631L18.3744 32.6719L18.3746 32.6721M17.5313 32.0631L18.3746 32.6721M18.3746 32.6721C19.3586 33.3817 20.7375 33.1684 21.4542 32.1922L18.3746 32.6721Z" fill="#6EE1B8" stroke="#6EE1B8"/>
</g>
<g id="Group_7">
<path id="Vector_6" d="M21.9557 36.4196L21.9558 36.4197C22.3789 36.69 22.8575 36.8197 23.3436 36.8197C24.2883 36.8197 25.2563 36.3266 25.8452 35.4202L26.5254 34.3733C26.972 33.6853 27.128 32.8522 26.9641 32.0949L21.9557 36.4196ZM21.9557 36.4196C21.3793 36.0516 20.9761 35.4698 20.8253 34.7715L20.8253 34.7711M21.9557 36.4196L20.8253 34.7711M20.8253 34.7711C20.6613 34.0144 20.8173 33.1813 21.264 32.4932L21.264 32.4932M20.8253 34.7711L21.264 32.4932M21.264 32.4932L21.9435 31.4465C21.9435 31.4464 21.9435 31.4464 21.9436 31.4463C22.8423 30.0642 24.5982 29.6578 25.8329 30.4468L25.8333 30.4471M21.264 32.4932L25.8333 30.4471M25.8333 30.4471C26.4093 30.8143 26.8127 31.3966 26.964 32.0948L25.8333 30.4471ZM22.1116 31.5554L22.1115 31.5556L21.432 32.6025C21.4319 32.6025 21.4319 32.6026 21.4318 32.6026C21.0206 33.2357 20.8645 34.0082 21.0204 34.729L21.0205 34.7295C21.158 35.3619 21.5251 35.9074 22.0631 36.2511L22.0632 36.2511C23.2756 37.0252 24.8811 36.5366 25.6771 35.3111L26.3574 34.264L26.3574 34.264C26.7686 33.6311 26.9249 32.8584 26.7684 32.1374C26.6314 31.5038 26.264 30.9589 25.7255 30.6154C24.5152 29.8427 22.9085 30.3289 22.1116 31.5554Z" fill="#6EE1B8" stroke="#6EE1B8"/>
</g>
<g id="Group_8">
<path id="Vector_7" d="M25.2693 35.8888L25.2693 35.8888C24.7994 36.5033 24.6016 37.2444 24.7024 37.9783L25.2693 35.8888ZM25.2693 35.8888L27.5503 32.9053C28.489 31.6779 30.1859 31.4276 31.3168 32.2781C31.8508 32.6797 32.1985 33.2729 32.2927 33.9557C32.3935 34.6896 32.1959 35.4308 31.7263 36.0461C31.7262 36.0462 31.7262 36.0463 31.7261 36.0464L29.4443 39.0295L29.444 39.0298M25.2693 35.8888L29.444 39.0298M29.444 39.0298C28.8796 39.769 28.0326 40.1581 27.2 40.1581C26.6593 40.1581 26.127 39.9939 25.6784 39.6568M29.444 39.0298L25.6784 39.6568M27.7087 33.0268L27.7091 33.0262C28.5492 31.9306 30.1053 31.6181 31.1971 32.4386L31.1971 32.4386C31.6923 32.8109 32.009 33.3627 32.0945 33.9828L32.0945 33.9831C32.1891 34.6721 31.9967 35.3624 31.5677 35.9243L31.5674 35.9246L29.2855 38.9078C28.4483 40.0042 26.893 40.3192 25.7983 39.4964L27.7087 33.0268ZM27.7087 33.0268L25.4276 36.0103L25.4275 36.0105M27.7087 33.0268L25.4275 36.0105M25.4275 36.0105C24.9988 36.5719 24.8053 37.2616 24.9006 37.9512M25.4275 36.0105L24.9006 37.9512M25.6784 39.6568C25.1438 39.2546 24.7966 38.6615 24.7024 37.9785L25.6784 39.6568ZM24.9006 37.9512C24.9855 38.5713 25.3021 39.1238 25.798 39.4962L24.9006 37.9512Z" fill="#6EE1B8" stroke="#6EE1B8"/>
</g>
<g id="Group_9">
<path id="Vector_8" d="M33.6754 41.5705L33.6755 41.5703L35.4864 39.2029L33.6754 41.5705ZM33.6754 41.5705C33.2809 42.0866 32.6525 42.3679 31.9582 42.3684C31.3977 42.3684 30.8047 42.1831 30.2904 41.7968M33.6754 41.5705L30.2904 41.7968M31.5638 36.2548L31.564 36.2545C31.9439 35.7584 32.5293 35.5306 33.1176 35.5306C33.6477 35.5306 34.1994 35.7128 34.6702 36.067L31.5638 36.2548ZM31.5638 36.2548L29.7532 38.6226L29.7531 38.6228M31.5638 36.2548L29.7531 38.6228M29.7531 38.6228C29.3734 39.12 29.3632 39.6632 29.4096 40.0015L29.4096 40.0016M29.7531 38.6228L29.4096 40.0016M29.4096 40.0016C29.4979 40.644 29.8734 41.2328 30.4106 41.6368L30.411 41.6371M29.4096 40.0016L30.411 41.6371M30.411 41.6371C31.3694 42.3564 32.7874 42.4035 33.5171 41.4489C33.5171 41.4489 33.5171 41.4489 33.5172 41.4488L35.3276 39.0812L35.3278 39.081M30.411 41.6371L35.3278 39.081M35.3278 39.081C35.7075 38.5838 35.7177 38.0405 35.6713 37.7023L35.6713 37.7022M35.3278 39.081L35.6713 37.7022M35.6713 37.7022C35.583 37.0599 35.2075 36.471 34.6703 36.067L35.6713 37.7022ZM30.2904 41.7968C29.6902 41.3451 29.3033 40.6962 29.2114 40.0291C29.1336 39.4594 29.2742 38.9204 29.5943 38.5012C29.5943 38.5012 29.5943 38.5011 29.5943 38.5011C29.5944 38.501 29.5944 38.501 29.5945 38.5009L31.4054 36.1335C31.4054 36.1334 31.4054 36.1334 31.4054 36.1334C32.1141 35.2069 33.6217 35.0294 34.7906 35.9071C35.3907 36.3588 35.7776 37.0077 35.8694 37.6748M30.2904 41.7968L35.8694 37.6748M35.8694 37.6748C35.9473 38.2445 35.8066 38.7834 35.4866 39.2026L35.8694 37.6748Z" fill="#6EE1B8" stroke="#6EE1B8"/>
</g>
<g id="Group_10">
<path id="Vector_9" d="M34.9447 39.7252L34.9449 39.7254C35.0099 39.7901 35.8641 40.631 37.0914 41.4523C38.3333 42.2833 39.8796 43.0413 41.3431 43.0413C41.5925 43.0413 41.8388 43.0193 42.0798 42.9725L34.9447 39.7252ZM34.9447 39.7252C34.9054 39.6862 34.9053 39.6235 34.9434 39.5845C34.9852 39.5436 35.0485 39.5465 35.085 39.5829L35.0849 39.5829M34.9447 39.7252L35.0849 39.5829M35.0849 39.5829L35.0903 39.5881M35.0849 39.5829L35.0903 39.5881M35.0903 39.5881C35.0889 39.5868 35.097 39.5946 35.1047 39.6021L35.1416 39.6374C35.173 39.6672 35.2175 39.7091 35.274 39.7611C35.3871 39.8651 35.5487 40.0099 35.7501 40.1804C36.1522 40.5207 36.7166 40.9667 37.3733 41.3952C38.0282 41.8226 38.7874 42.2408 39.5783 42.5165C40.3664 42.7914 41.2187 42.9361 42.0426 42.7759L42.0429 42.7758M35.0903 39.5881L42.0429 42.7758M42.0429 42.7758C43.3593 42.5189 44.2939 41.5471 44.9464 40.0187L44.9466 40.0184M42.0429 42.7758L44.9466 40.0184M44.9466 40.0184C44.9678 39.9685 45.028 39.9446 45.0772 39.9656L45.0778 39.9659M44.9466 40.0184L45.0778 39.9659M45.0778 39.9659C45.1286 39.9876 45.1522 40.0466 45.1306 40.0972M45.0778 39.9659L45.1306 40.0972M45.1306 40.0972C44.4002 41.8078 43.362 42.7227 42.0799 42.9725L45.1306 40.0972Z" fill="#6EE1B8" stroke="#6EE1B8"/>
</g>
<g id="Group_11">
<path id="Vector_10" d="M39.9407 34.7241L39.9407 34.7241L39.9404 34.7234C39.9128 34.6758 39.9287 34.6151 39.9763 34.5871C40.0246 34.5597 40.0873 34.578 40.1134 34.6231L40.1134 34.6231C40.1571 34.6983 40.934 36.0105 42.1145 37.3193C42.713 37.9828 43.4278 38.6597 44.2162 39.1736C45.0025 39.6861 45.8945 40.0576 46.837 40.0576H46.837H46.837H46.8371H46.8371H46.8371H46.8371H46.8372H46.8372H46.8372H46.8372H46.8373H46.8373H46.8373H46.8373H46.8374H46.8374H46.8374H46.8374H46.8375H46.8375H46.8375H46.8375H46.8375H46.8376H46.8376H46.8376H46.8376H46.8377H46.8377H46.8377H46.8377H46.8378H46.8378H46.8378H46.8378H46.8379H46.8379H46.8379H46.8379H46.838H46.838H46.838H46.838H46.8381H46.8381H46.8381H46.8381H46.8381H46.8382H46.8382H46.8382H46.8382H46.8383H46.8383H46.8383H46.8383H46.8384H46.8384H46.8384H46.8384H46.8385H46.8385H46.8385H46.8385H46.8386H46.8386H46.8386H46.8386H46.8387H46.8387H46.8387H46.8387H46.8387H46.8388H46.8388H46.8388H46.8388H46.8389H46.8389H46.8389H46.8389H46.839H46.839H46.839H46.839H46.8391H46.8391H46.8391H46.8391H46.8392H46.8392H46.8392H46.8392H46.8393H46.8393H46.8393H46.8393H46.8393H46.8394H46.8394H46.8394H46.8394H46.8395H46.8395H46.8395H46.8395H46.8396H46.8396H46.8396H46.8396H46.8397H46.8397H46.8397H46.8397H46.8398H46.8398H46.8398H46.8398H46.8399H46.8399H46.8399H46.8399H46.8399H46.84H46.84H46.84H46.84H46.8401H46.8401H46.8401H46.8401H46.8402H46.8402H46.8402H46.8402H46.8403H46.8403H46.8403H46.8403H46.8404H46.8404H46.8404H46.8404H46.8405H46.8405H46.8405H46.8405H46.8405H46.8406H46.8406H46.8406H46.8406H46.8407H46.8407H46.8407H46.8407H46.8408H46.8408H46.8408H46.8408H46.8409H46.8409H46.8409H46.8409H46.841H46.841H46.841H46.841H46.8411H46.8411H46.8411H46.8411H46.8412H46.8412H46.8412H46.8412H46.8412H46.8413H46.8413H46.8413H46.8413H46.8414H46.8414H46.8414H46.8414H46.8415H46.8415H46.8415H46.8415H46.8416H46.8416H46.8416H46.8416H46.8417H46.8417H46.8417H46.8417H46.8418H46.8418H46.8418H46.8418H46.8418H46.8419H46.8419H46.8419H46.8419H46.842H46.842H46.842H46.842H46.8421H46.8421H46.8421H46.8421H46.8422H46.8422H46.8422H46.8422H46.8423H46.8423H46.8423H46.8423H46.8424H46.8424H46.8424H46.8424H46.8424H46.8425H46.8425H46.8425H46.8425H46.8426H46.8426H46.8426H46.8426H46.8427H46.8427H46.8427H46.8427H46.8428H46.8428H46.8428H46.8428H46.8429H46.8429H46.8429H46.8429H46.843H46.843H46.843H46.843H46.843H46.8431H46.8431H46.8431H46.8431H46.8432H46.8432H46.8432H46.8432H46.8433H46.8433H46.8433H46.8433H46.8434H46.8434H46.8434H46.8434H46.8435H46.8435H46.8435H46.8435H46.8436H46.8436H46.8436H46.8436H46.8437H46.8437H46.8437H46.8437H46.8437H46.8438H46.8438H46.8438H46.8438H46.8439H46.8439H46.8439H46.8439H46.844H46.844H46.844H46.844H46.8441H46.8441H46.8441H46.8441H46.8442H46.8442H46.8442H46.8442H46.8443H46.8443H46.8443H46.8443H46.8443H46.8444H46.8444H46.8444H46.8444H46.8445H46.8445H46.8445H46.8445H46.8446H46.8446H46.8446H46.8446H46.8447H46.8447H46.8447H46.8447H46.8448H46.8448H46.8448H46.8448H46.8449H46.8449H46.8449H46.8449H46.8449H46.845H46.845H46.845H46.845H46.8451H46.8451H46.8451H46.8451H46.8452H46.8452H46.8452H46.8452H46.8453H46.8453H46.8453H46.8453H46.8454H46.8454H46.8454H46.8454H46.8455H46.8455H46.8455H46.8455H46.8455H46.8456H46.8456H46.8456H46.8456H46.8457H46.8457H46.8457H46.8457H46.8458H46.8458H46.8458H46.8458H46.8459H46.8459H46.8459H46.8459H46.846H46.846H46.846H46.846H46.8461H46.8461H46.8461H46.8461H46.8461H46.8462H46.8462H46.8462H46.8462H46.8463H46.8463H46.8463H46.8463H46.8464H46.8464H46.8464H46.8464H46.8465H46.8465H46.8465H46.8465H46.8466H46.8466H46.8466H46.8466H46.8467H46.8467H46.8467H46.8467H46.8468H46.8468H46.8468H46.8468H46.8468H46.8469H46.8469H46.8469H46.8469H46.847H46.847H46.847H46.847H46.8471H46.8471H46.8471H46.8471H46.8472H46.8472H46.8472H46.8472H46.8473H46.8473H46.8473H46.8473H46.8474H46.8474H46.8474H46.8474H46.8474H46.8475H46.8475H46.8475H46.8475H46.8476H46.8476H46.8476H46.8476H46.8477H46.8477H46.8477H46.8477H46.8478H46.8478H46.8478H46.8478H46.8479H46.8479H46.8479H46.8479H46.848H46.848H46.848H46.848H46.848H46.8481H46.8481H46.8481H46.8481H46.8482H46.8482H46.8482H46.8482H46.8483H46.8483H46.8483H46.8483H46.8484H46.8484H46.8484H46.8484H46.8485H46.8485H46.8485H46.8485H46.8486H46.8486H46.8486H46.8486H46.8486H46.8487H46.8487H46.8487H46.8487H46.8488H46.8488H46.8488H46.8488H46.8489H46.8489H46.8489H46.8489H46.849H46.849H46.849H46.849H46.8491H46.8491H46.8491H46.8491H46.8492H46.8492H46.8492H46.8492H46.8492H46.8493L46.8493 40.0576L46.8513 40.0576C48.5574 40.0506 50.0113 38.7913 51.2201 36.6686L51.2203 36.6682C51.2469 36.6214 51.3074 36.6035 51.3568 36.6313C51.4047 36.6589 51.4213 36.7199 51.394 36.768C50.0238 39.1736 48.4828 40.2512 46.8512 40.2576H46.8512H46.8512H46.8512H46.8511H46.8511H46.8511H46.8511H46.851H46.851H46.851H46.851H46.8509H46.8509H46.8509H46.8508H46.8508H46.8508H46.8508H46.8507H46.8507H46.8507H46.8506H46.8506H46.8506H46.8506H46.8505H46.8505H46.8505H46.8504H46.8504H46.8504H46.8504H46.8503H46.8503H46.8503H46.8502H46.8502H46.8502H46.8502H46.8501H46.8501H46.8501H46.85H46.85H46.85H46.85H46.8499H46.8499H46.8499H46.8498H46.8498H46.8498H46.8498H46.8497H46.8497H46.8497H46.8497H46.8496H46.8496H46.8496H46.8495H46.8495H46.8495H46.8495H46.8494H46.8494H46.8494H46.8493H46.8493H46.8493H46.8493H46.8492H46.8492H46.8492H46.8491H46.8491H46.8491H46.8491H46.849H46.849H46.849H46.8489H46.8489H46.8489H46.8489H46.8488H46.8488H46.8488H46.8487H46.8487H46.8487H46.8486H46.8486H46.8486H46.8486H46.8485H46.8485H46.8485H46.8484H46.8484H46.8484H46.8484H46.8483H46.8483H46.8483H46.8482H46.8482H46.8482H46.8482H46.8481H46.8481H46.8481H46.848H46.848H46.848H46.848H46.8479H46.8479H46.8479H46.8478H46.8478H46.8478H46.8478H46.8477H46.8477H46.8477H46.8476H46.8476H46.8476H46.8476H46.8475H46.8475H46.8475H46.8474H46.8474H46.8474H46.8473H46.8473H46.8473H46.8473H46.8472H46.8472H46.8472H46.8471H46.8471H46.8471H46.8471H46.847H46.847H46.847H46.8469H46.8469H46.8469H46.8469H46.8468H46.8468H46.8468H46.8467H46.8467H46.8467H46.8467H46.8466H46.8466H46.8466H46.8465H46.8465H46.8465H46.8464H46.8464H46.8464H46.8464H46.8463H46.8463H46.8463H46.8462H46.8462H46.8462H46.8462H46.8461H46.8461H46.8461H46.846H46.846H46.846H46.846H46.8459H46.8459H46.8459H46.8458H46.8458H46.8458H46.8457H46.8457H46.8457H46.8457H46.8456H46.8456H46.8456H46.8455H46.8455H46.8455H46.8455H46.8454H46.8454H46.8454H46.8453H46.8453H46.8453H46.8453H46.8452H46.8452H46.8452H46.8451H46.8451H46.8451H46.845H46.845H46.845H46.845H46.8449H46.8449H46.8449H46.8448H46.8448H46.8448H46.8448H46.8447H46.8447H46.8447H46.8446H46.8446H46.8446H46.8446H46.8445H46.8445H46.8445H46.8444H46.8444H46.8444H46.8443H46.8443H46.8443H46.8443H46.8442H46.8442H46.8442H46.8441H46.8441H46.8441H46.8441H46.844H46.844H46.844H46.8439H46.8439H46.8439H46.8439H46.8438H46.8438H46.8438H46.8437H46.8437H46.8437H46.8436H46.8436H46.8436H46.8436H46.8435H46.8435H46.8435H46.8434H46.8434H46.8434H46.8434H46.8433H46.8433H46.8433H46.8432H46.8432H46.8432H46.8432H46.8431H46.8431H46.8431H46.843H46.843H46.843H46.843H46.8429H46.8429H46.8429H46.8428H46.8428H46.8428H46.8427H46.8427H46.8427H46.8427H46.8426H46.8426H46.8426H46.8425H46.8425H46.8425H46.8425H46.8424H46.8424H46.8424H46.8423H46.8423H46.8423H46.8423H46.8422H46.8422H46.8422H46.8421H46.8421H46.8421H46.8421H46.842H46.842H46.842H46.8419H46.8419H46.8419H46.8418H46.8418H46.8418H46.8418H46.8417H46.8417H46.8417H46.8416H46.8416H46.8416H46.8416H46.8415H46.8415H46.8415H46.8414H46.8414H46.8414H46.8414H46.8413H46.8413H46.8413H46.8412H46.8412H46.8412H46.8412H46.8411H46.8411H46.8411H46.841H46.841H46.841H46.841H46.8409H46.8409H46.8409H46.8408H46.8408H46.8408H46.8408H46.8407H46.8407H46.8407H46.8406H46.8406H46.8406H46.8406H46.8405H46.8405H46.8405H46.8404H46.8404H46.8404H46.8404H46.8403H46.8403H46.8403H46.8402H46.8402H46.8402H46.8402H46.8401H46.8401H46.8401H46.84H46.84H46.84H46.84H46.8399H46.8399H46.8399H46.8398H46.8398H46.8398H46.8398H46.8397H46.8397H46.8397H46.8396H46.8396H46.8396H46.8396H46.8395H46.8395H46.8395H46.8394H46.8394H46.8394H46.8394H46.8393H46.8393H46.8393H46.8392H46.8392H46.8392H46.8392H46.8391H46.8391H46.8391H46.8391H46.839H46.839H46.839H46.8389H46.8389H46.8389H46.8389H46.8388H46.8388H46.8388H46.8387H46.8387H46.8387H46.8387H46.8386H46.8386H46.8386H46.8385H46.8385H46.8385H46.8385H46.8384H46.8384H46.8384H46.8384H46.8383H46.8383H46.8383H46.8382H46.8382H46.8382H46.8382H46.8381H46.8381H46.8381H46.838H46.838H46.838H46.838H46.8379H46.8379H46.8379H46.8379H46.8378H46.8378H46.8378H46.8377H46.8377H46.8377H46.8377H46.8376H46.8376H46.8376C45.0914 40.2576 43.4202 39.0122 42.113 37.6132C40.8269 36.2367 40.0005 34.8278 39.9407 34.7241Z" fill="#6EE1B8" stroke="#6EE1B8"/>
</g>
<g id="Group_12">
<path id="Vector_11" d="M45.0792 29.4591L44.6544 29.7228C44.6266 29.6782 44.5655 29.6608 44.5149 29.6905C44.4692 29.7199 44.4549 29.7808 44.4837 29.8278C44.5751 29.9751 45.7104 31.7888 47.3622 33.561C48.1892 34.4483 49.1332 35.3116 50.1282 35.9502C51.1262 36.5908 52.1405 36.9828 53.1181 36.9828C53.1946 36.9828 53.2685 36.9807 53.3406 36.9758L53.3436 36.9756C54.9432 36.8757 56.3617 35.7181 57.4971 33.2335C57.5205 33.1823 57.4979 33.1234 57.4482 33.1007L57.4481 33.1006C57.3974 33.0775 57.3391 33.0987 57.3156 33.1501C56.3219 35.3242 55.0081 36.6708 53.3317 36.776L53.3316 36.776C52.396 36.8346 51.458 36.5084 50.5859 36.0054C49.7102 35.5002 48.8626 34.7946 48.0934 34.0351C46.5554 32.5165 45.2769 30.7284 44.654 29.7223L45.0792 29.4591ZM45.0792 29.4591C44.9045 29.1779 44.5354 29.0923 44.253 29.2646L45.0792 29.4591Z" fill="#6EE1B8" stroke="#6EE1B8"/>
</g>
<g id="Group_13">
<path id="Vector_12" d="M49.1076 24.9987L49.1077 24.9989C49.2224 25.1607 50.6915 27.2152 52.6503 29.2443C53.6301 30.2593 54.7206 31.2555 55.8152 32.0044C56.9198 32.7602 57.9744 33.2266 58.8917 33.2615C58.934 33.2631 58.9736 33.2641 59.011 33.2641C59.8264 33.2641 60.5122 32.9385 61.076 32.2594L61.0762 32.2592C62.1041 31.022 62.5154 29.8765 62.4184 28.8421L62.4184 28.842C62.333 27.9305 61.8384 27.0457 60.9251 26.2912C59.5841 25.1846 58.3133 24.0175 57.1483 22.8229L57.1483 22.8228C54.7606 20.3735 51.9929 18.3664 48.9221 16.8558L49.1076 24.9987ZM49.1076 24.9987C49.0755 24.9535 49.0864 24.8915 49.1306 24.8599M49.1076 24.9987L48.6998 25.288C48.5082 25.0179 48.5715 24.6435 48.8416 24.4519M48.8416 24.4519L49.1306 24.8599M48.8416 24.4519C49.1129 24.2597 49.4867 24.3242 49.6783 24.5937L48.8416 24.4519ZM49.1306 24.8599C49.1763 24.8275 49.2384 24.8382 49.2705 24.8831M49.1306 24.8599L49.2705 24.8831M49.2705 24.8831C50.0566 25.9906 51.6299 27.978 53.3945 29.7086C54.2767 30.5738 55.2182 31.3863 56.1426 31.9931C57.0559 32.5925 58.0075 33.0281 58.8994 33.062L58.9026 33.0621C59.7148 33.0877 60.3879 32.774 60.9217 32.1321L60.9219 32.1319C61.8308 31.0378 62.3195 29.9313 62.2193 28.8607L62.2193 28.8605C62.1121 27.721 61.3517 26.9028 60.7976 26.4458C59.4498 25.333 58.1741 24.161 57.0053 22.9626C54.6335 20.5301 51.8836 18.5353 48.8337 17.0354L48.8337 17.0353L41.5365 13.4471L41.5365 13.4471C40.7414 13.0562 39.8227 13.0403 39.0145 13.3997L39.014 13.3999C38.293 13.7215 37.7381 14.3027 37.4591 15.0354C36.9667 16.3265 36.1001 17.8456 34.7111 18.4086C33.8629 18.7521 32.9029 18.7072 31.8229 18.2042C31.8226 18.2041 31.8224 18.2039 31.822 18.2037C31.7892 18.1862 31.1955 17.8686 30.7715 17.1109C30.3385 16.3371 30.0345 15.019 30.8499 12.9121C31.687 10.7507 33.3437 8.84659 35.5271 7.56348L35.5271 7.56347C38.6002 5.75722 42.3004 5.37322 45.6787 6.50889C45.6787 6.5089 45.6788 6.5089 45.6788 6.5089L52.6003 8.8362L52.7436 8.88439L52.8896 8.84509L58.9476 7.21445L58.9476 7.21447L58.9513 7.21342C58.9981 7.20044 59.0549 7.22839 59.0701 7.28503L59.0701 7.28525C59.0844 7.3382 59.0529 7.39337 58.9993 7.4078L52.7667 9.08517C52.7667 9.08518 52.7666 9.0852 52.7666 9.08521C52.7489 9.08992 52.727 9.0896 52.7073 9.08317C52.7071 9.08311 52.7069 9.08305 52.7067 9.08298L45.6156 6.69896C45.6155 6.69894 45.6155 6.69893 45.6154 6.69891C42.2907 5.57994 38.6503 5.9576 35.6285 7.7362L49.2705 24.8831ZM41.6251 13.2676L48.922 16.8557L35.6284 7.73626C33.5004 8.98671 31.8649 10.8455 31.0365 12.9846L31.0365 12.9846C30.3471 14.7652 30.4612 16.0012 30.8393 16.8273C31.2115 17.6407 31.7993 17.9679 31.8969 18.0177L31.905 18.0219L31.9133 18.0257C32.8668 18.47 33.7798 18.572 34.6364 18.2226C35.3945 17.9157 35.9676 17.3057 36.3835 16.6987C36.8034 16.0859 37.0944 15.43 37.272 14.9639C37.5699 14.1831 38.1574 13.5635 38.9328 13.2174C39.7961 12.8321 40.7755 12.8502 41.6249 13.2675C41.625 13.2676 41.625 13.2676 41.6251 13.2676Z" fill="#22D7FF" stroke="#6EE1B8"/>
</g>
<g id="Group_14">
<path id="Vector_13" d="M61.0061 27.2741L61.4848 27.1298C61.4692 27.0781 61.4983 27.0216 61.5526 27.005C61.5527 27.005 61.5528 27.005 61.5528 27.005L66.1722 25.6142L66.1722 25.6142L66.1744 25.6135C66.2222 25.5989 66.28 25.6261 66.2971 25.6819C66.3124 25.7336 66.2834 25.7898 66.2292 25.8064C66.2291 25.8064 66.229 25.8064 66.229 25.8064L61.6118 27.1966C61.6116 27.1966 61.6114 27.1967 61.6111 27.1968C61.6004 27.1999 61.5898 27.2012 61.5809 27.2012C61.5375 27.2012 61.4977 27.1723 61.4847 27.1293L61.0061 27.2741ZM61.0061 27.2741C61.0846 27.5336 61.3231 27.7012 61.5809 27.7012C61.6377 27.7012 61.6963 27.693 61.7537 27.676L61.408 26.5264C61.0905 26.6225 60.9106 26.9571 61.0061 27.2741Z" fill="#6EE1B8" stroke="#6EE1B8"/>
</g>
</g>
<path id="Vector_14" d="M10.5439 28.8804L10.3886 28.4052C10.378 28.4086 10.3672 28.4103 10.3564 28.4103C10.3398 28.4103 10.3248 28.4065 10.3118 28.3999L10.3113 28.3996L0.555373 23.4358C0.555303 23.4358 0.555232 23.4358 0.555162 23.4357C0.505237 23.4101 0.486185 23.3497 0.510913 23.3009C0.510924 23.3009 0.510935 23.3009 0.510946 23.3009L12.0647 0.581833C12.0888 0.534449 12.1491 0.513305 12.1989 0.53741C12.199 0.537469 12.1991 0.537528 12.1992 0.537588L21.8893 5.30971C21.9144 5.3221 21.9326 5.34333 21.9409 5.36807L21.9411 5.36862C21.9492 5.39289 21.9475 5.42011 21.9356 5.44374L21.9351 5.44467L10.4456 28.3551L10.4453 28.3556C10.4334 28.3796 10.4127 28.3972 10.388 28.4053L10.5439 28.8804ZM10.5439 28.8804C10.6957 28.8306 10.8211 28.7222 10.8925 28.5792L10.0846 28.8453C10.1695 28.8886 10.2627 28.9103 10.3564 28.9103C10.4197 28.9103 10.483 28.9003 10.5439 28.8804ZM0.961256 22.8572L0.734646 23.3028L1.18021 23.5295L9.86368 27.9474L10.3119 28.1754L10.5374 27.7259L21.4855 5.8953L21.7112 5.44512L21.2594 5.22261L12.6416 0.978135L12.1987 0.760029L11.975 1.20003L0.961256 22.8572Z" fill="#6EE1B8" stroke="#22D7FF"/>
<path id="Vector_15" d="M67.1937 28.4235L67.1929 28.4232C67.1691 28.4129 67.1494 28.3929 67.1393 28.3673L57.7745 4.52624L57.7742 4.52525C57.765 4.50198 57.7653 4.47454 57.7759 4.45054L57.7759 4.45055L57.7769 4.44833C57.7867 4.42568 57.8057 4.40689 57.8313 4.39706L57.8318 4.39685L67.9174 0.507456L67.9195 0.506639C67.9667 0.488196 68.0246 0.51032 68.0462 0.563768C68.0463 0.563847 68.0463 0.563925 68.0463 0.564004L77.4924 24.2202L77.4925 24.2204C77.5126 24.2707 77.4886 24.3294 77.4364 24.3507C77.4363 24.3507 77.4361 24.3508 77.436 24.3508L67.2697 28.4245L67.2694 28.4246C67.2592 28.4287 67.2465 28.4314 67.2325 28.4314C67.2187 28.4314 67.2051 28.4285 67.1937 28.4235ZM58.4669 4.36616L57.9975 4.54718L58.1815 5.01547L67.1046 27.7325L67.2886 28.2011L67.7559 28.0139L76.8062 24.3876L77.2698 24.2018L77.0846 23.738L68.08 1.1885L67.8968 0.72963L67.4358 0.907416L58.4669 4.36616Z" fill="#22D7FF" stroke="#22D7FF"/>
</g>
</svg>
