<svg width="73" height="70" viewBox="0 0 73 70" fill="none" xmlns="http://www.w3.org/2000/svg">
<g id="Frame 1133">
<g id="Group 2102">
<path id="Vector 185" d="M11.1075 17.764L1.10439 37.7888C1.04673 37.9042 1.0935 38.0446 1.2089 38.1023L9.43171 42.2176C9.54723 42.2754 9.68775 42.2285 9.74547 42.113L19.7485 22.0882C19.8062 21.9727 19.7594 21.8324 19.644 21.7746L11.4212 17.6594C11.3057 17.6016 11.1652 17.6484 11.1075 17.764Z" stroke="#6EE1B8"/>
<path id="Vector 186" d="M18.5586 24.1106L22.4487 26.0053C22.5155 26.0378 22.5947 26.0363 22.6604 26.0016C27.7915 23.2931 30.8049 20.4682 33.3452 22.9427" stroke="#22D7FF"/>
<path id="Vector 187" d="M62.6402 17.0795L53.5301 20.4741C53.4074 20.5198 53.3462 20.6573 53.3943 20.7791L61.9707 42.4708C62.0187 42.5923 62.1569 42.6508 62.2775 42.6009L71.3912 38.8277C71.5096 38.7787 71.5665 38.6434 71.5186 38.5244L62.9387 17.2113C62.8914 17.0937 62.759 17.0353 62.6402 17.0795Z" stroke="#6EE1B8"/>
<path id="Vector 188" d="M54.232 23.3913L49.1905 24.9542C49.1436 24.9688 49.0933 24.9682 49.0468 24.9525L40.8578 22.2024C38.4977 21.674 32.9906 21.8061 29.8437 26.5618C28.9282 27.7478 27.4884 31.2998 29.0437 32.8909C29.0514 32.8988 29.0598 32.9061 29.0687 32.9128C30.6419 34.0953 32.9946 34.7152 34.5637 30.9213C35.0882 29.7323 36.6091 27.6715 38.4973 28.9397" stroke="#22D7FF"/>
<path id="Vector 189" d="M38.4297 28.9214L47.8323 33.7149C47.8482 33.723 47.863 33.7328 47.8766 33.7443L53.6784 38.6251L56.8784 41.8251C56.9012 41.8479 56.9192 41.8754 56.9307 41.9056C58.5471 46.1504 54.4769 51.612 45.2685 39.4568" stroke="#22D7FF"/>
<path id="Vector 190" d="M56.9121 41.7674L61.0708 40.1963" stroke="#22D7FF"/>
<path id="Vector 191" d="M41.109 43.9854C42.521 46.396 45.0109 49.5189 47.5781 50.3844M53.308 46.7578C51.6776 50.3447 49.6038 51.0672 47.5781 50.3844M36.8579 48.3289C37.8945 50.1929 39.7878 52.5826 41.9408 53.3234M47.5781 50.3844C45.7527 53.4012 43.7545 53.9474 41.9408 53.3234M32.4219 53.4118C32.4219 53.5966 38.891 59.3344 41.9408 53.3234" stroke="#22D7FF"/>
<rect id="Rectangle 369" x="27.4103" y="45.607" width="3.73319" height="8.00263" rx="1.8666" transform="rotate(35.4518 27.4103 45.607)" stroke="#22D7FF"/>
<rect id="Rectangle 370" x="30.3849" y="49.3038" width="3.55621" height="5.48495" rx="1.7781" transform="rotate(35.4518 30.3849 49.3038)" stroke="#22D7FF"/>
<rect id="Rectangle 371" x="22.254" y="44.128" width="4.2433" height="5.48495" rx="2.12165" transform="rotate(35.4518 22.254 44.128)" stroke="#22D7FF"/>
<rect id="Rectangle 372" x="15.1772" y="44.9825" width="3.13713" height="4.55612" rx="1.56857" transform="rotate(-60 15.1772 44.9825)" stroke="#22D7FF"/>
<path id="Vector 193" d="M15.6956 43.2462L10.7051 40.104" stroke="#22D7FF"/>
<circle id="Ellipse 2546" cx="7.19093" cy="36.315" r="0.886245" stroke="#6EE1B8"/>
<circle id="Ellipse 2547" cx="65.0444" cy="36.5" r="0.886245" stroke="#6EE1B8"/>
</g>
</g>
</svg>
