<svg width="77" height="61" viewBox="0 0 77 61" fill="none" xmlns="http://www.w3.org/2000/svg">
<g id="Group 1876">
<g id="Group 1875">
<circle id="Ellipse 1066" cx="38.6849" cy="6.31579" r="5.81579" stroke="#22D7FF"/>
<circle id="Ellipse 1067" cx="38.6844" cy="6.31576" r="1.57895" fill="#22D7FF"/>
<g id="Group 1873">
<path id="Vector 155" d="M2.7627 29.6054C6.05217 21.8422 12.7101 6.31592 13.0259 6.31592L23.289 29.6054H2.7627Z" stroke="#6EE1B8"/>
<g id="Ellipse 1068">
<mask id="path-4-inside-1_1991_6509" fill="white">
<path d="M25.2632 29.2107C25.6992 29.2107 26.0553 29.5645 26.0272 29.9996C25.9376 31.3886 25.6117 32.7555 25.0611 34.0446C24.4064 35.5771 23.4469 36.9696 22.2373 38.1426C21.0277 39.3155 19.5917 40.2459 18.0113 40.8807C16.4308 41.5155 14.737 41.8423 13.0263 41.8423C11.3157 41.8423 9.62179 41.5155 8.04136 40.8807C6.46093 40.2459 5.02492 39.3155 3.81532 38.1426C2.60571 36.9696 1.6462 35.5771 0.991569 34.0446C0.440929 32.7555 0.115067 31.3886 0.0254313 29.9996C-0.00264822 29.5645 0.353459 29.2107 0.789474 29.2107L13.0263 29.2107H25.2632Z"/>
</mask>
<path d="M25.2632 29.2107C25.6992 29.2107 26.0553 29.5645 26.0272 29.9996C25.9376 31.3886 25.6117 32.7555 25.0611 34.0446C24.4064 35.5771 23.4469 36.9696 22.2373 38.1426C21.0277 39.3155 19.5917 40.2459 18.0113 40.8807C16.4308 41.5155 14.737 41.8423 13.0263 41.8423C11.3157 41.8423 9.62179 41.5155 8.04136 40.8807C6.46093 40.2459 5.02492 39.3155 3.81532 38.1426C2.60571 36.9696 1.6462 35.5771 0.991569 34.0446C0.440929 32.7555 0.115067 31.3886 0.0254313 29.9996C-0.00264822 29.5645 0.353459 29.2107 0.789474 29.2107L13.0263 29.2107H25.2632Z" stroke="#6EE1B8" stroke-width="2" mask="url(#path-4-inside-1_1991_6509)"/>
</g>
<path id="Vector 156" d="M12.6318 39.0789C13.9476 39.0789 17.3687 38.2105 20.5266 34.7368" stroke="#6EE1B8" stroke-linecap="round"/>
</g>
<g id="Group 1874">
<path id="Vector 155_2" d="M53.29 29.6054C56.5795 21.8422 63.2374 6.31592 63.5532 6.31592L73.8164 29.6054H53.29Z" stroke="#6EE1B8"/>
<g id="Ellipse 1068_2">
<mask id="path-7-inside-2_1991_6509" fill="white">
<path d="M75.7905 29.2107C76.2265 29.2107 76.5826 29.5645 76.5545 29.9996C76.4649 31.3886 76.139 32.7555 75.5884 34.0446C74.9338 35.5771 73.9743 36.9696 72.7647 38.1426C71.555 39.3155 70.119 40.2459 68.5386 40.8807C66.9582 41.5155 65.2643 41.8423 63.5537 41.8423C61.843 41.8423 60.1491 41.5155 58.5687 40.8807C56.9883 40.2459 55.5523 39.3155 54.3427 38.1426C53.1331 36.9696 52.1735 35.5771 51.5189 34.0446C50.9683 32.7555 50.6424 31.3886 50.5528 29.9996C50.5247 29.5645 50.8808 29.2107 51.3168 29.2107L63.5537 29.2107H75.7905Z"/>
</mask>
<path d="M75.7905 29.2107C76.2265 29.2107 76.5826 29.5645 76.5545 29.9996C76.4649 31.3886 76.139 32.7555 75.5884 34.0446C74.9338 35.5771 73.9743 36.9696 72.7647 38.1426C71.555 39.3155 70.119 40.2459 68.5386 40.8807C66.9582 41.5155 65.2643 41.8423 63.5537 41.8423C61.843 41.8423 60.1491 41.5155 58.5687 40.8807C56.9883 40.2459 55.5523 39.3155 54.3427 38.1426C53.1331 36.9696 52.1735 35.5771 51.5189 34.0446C50.9683 32.7555 50.6424 31.3886 50.5528 29.9996C50.5247 29.5645 50.8808 29.2107 51.3168 29.2107L63.5537 29.2107H75.7905Z" stroke="#6EE1B8" stroke-width="2" mask="url(#path-7-inside-2_1991_6509)"/>
</g>
<path id="Vector 156_2" d="M63.1592 39.0789C64.475 39.0789 67.896 38.2105 71.0539 34.7368" stroke="#6EE1B8" stroke-linecap="round"/>
</g>
<path id="Vector 157" d="M69.8684 6.31592H45M32.3684 6.31592H7.5" stroke="#22D7FF" stroke-linecap="round"/>
<path id="Vector 158" d="M38.6846 12.2368V52.5" stroke="#22D7FF" stroke-linecap="round"/>
<rect id="Rectangle 357" x="27.3428" y="53.3945" width="22.6842" height="6.10526" stroke="#22D7FF"/>
<path id="Vector 159" d="M55.2635 59.6055H50.1319H23.6846" stroke="#22D7FF" stroke-linecap="round"/>
</g>
</g>
</svg>
