<svg width="70" height="70" viewBox="0 0 70 70" fill="none" xmlns="http://www.w3.org/2000/svg">
<g id="Frame 1134">
<g id="Group 1876">
<g id="Group 1875">
<circle id="Ellipse 1066" cx="35.8567" cy="13.6907" r="5.19065" stroke="#22D7FF"/>
<circle id="Ellipse 1067" cx="35.8563" cy="13.6907" r="1.42266" fill="#22D7FF"/>
<g id="Group 1873">
<path id="Vector 155" d="M3.49023 34.6752C6.45412 27.6804 12.453 13.6909 12.7375 13.6909L21.9849 34.6752H3.49023Z" stroke="#6EE1B8"/>
<g id="Ellipse 1068">
<mask id="path-4-inside-1_2000_14356" fill="white">
<path d="M23.6845 34.3193C24.1205 34.3193 24.4769 34.6732 24.4457 35.1081C24.358 36.3328 24.0663 37.5374 23.5805 38.6747C22.9907 40.0556 22.1261 41.3102 21.0363 42.3671C19.9464 43.4239 18.6525 44.2623 17.2285 44.8342C15.8045 45.4062 14.2783 45.7006 12.737 45.7006C11.1956 45.7006 9.66942 45.4062 8.24543 44.8342C6.82143 44.2623 5.52756 43.4239 4.43768 42.3671C3.3478 41.3102 2.48326 40.0556 1.89342 38.6747C1.40759 37.5374 1.11596 36.3328 1.02822 35.1081C0.997064 34.6732 1.35346 34.3193 1.78947 34.3193L12.737 34.3193H23.6845Z"/>
</mask>
<path d="M23.6845 34.3193C24.1205 34.3193 24.4769 34.6732 24.4457 35.1081C24.358 36.3328 24.0663 37.5374 23.5805 38.6747C22.9907 40.0556 22.1261 41.3102 21.0363 42.3671C19.9464 43.4239 18.6525 44.2623 17.2285 44.8342C15.8045 45.4062 14.2783 45.7006 12.737 45.7006C11.1956 45.7006 9.66942 45.4062 8.24543 44.8342C6.82143 44.2623 5.52756 43.4239 4.43768 42.3671C3.3478 41.3102 2.48326 40.0556 1.89342 38.6747C1.40759 37.5374 1.11596 36.3328 1.02822 35.1081C0.997064 34.6732 1.35346 34.3193 1.78947 34.3193L12.737 34.3193H23.6845Z" stroke="#6EE1B8" stroke-width="2" mask="url(#path-4-inside-1_2000_14356)"/>
</g>
<path id="Vector 156" d="M12.3809 43.2107C13.5664 43.2107 16.6488 42.4282 19.4942 39.2983" stroke="#6EE1B8" stroke-linecap="round"/>
</g>
<g id="Group 1874">
<path id="Vector 155_2" d="M49.0176 34.6747C51.9815 27.68 57.9804 13.6904 58.2649 13.6904L67.5122 34.6747H49.0176Z" stroke="#6EE1B8"/>
<g id="Ellipse 1068_2">
<mask id="path-7-inside-2_2000_14356" fill="white">
<path d="M69.2118 34.3193C69.6478 34.3193 70.0042 34.6732 69.9731 35.1081C69.8853 36.3328 69.5937 37.5374 69.1079 38.6747C68.518 40.0556 67.6535 41.3102 66.5636 42.3671C65.4737 43.4239 64.1799 44.2623 62.7559 44.8342C61.3319 45.4062 59.8056 45.7006 58.2643 45.7006C56.723 45.7006 55.1968 45.4062 53.7728 44.8342C52.3488 44.2623 51.0549 43.4239 49.965 42.3671C48.8751 41.3102 48.0106 40.0556 47.4208 38.6747C46.9349 37.5374 46.6433 36.3328 46.5556 35.1081C46.5244 34.6732 46.8808 34.3193 47.3168 34.3193L58.2643 34.3193H69.2118Z"/>
</mask>
<path d="M69.2118 34.3193C69.6478 34.3193 70.0042 34.6732 69.9731 35.1081C69.8853 36.3328 69.5937 37.5374 69.1079 38.6747C68.518 40.0556 67.6535 41.3102 66.5636 42.3671C65.4737 43.4239 64.1799 44.2623 62.7559 44.8342C61.3319 45.4062 59.8056 45.7006 58.2643 45.7006C56.723 45.7006 55.1968 45.4062 53.7728 44.8342C52.3488 44.2623 51.0549 43.4239 49.965 42.3671C48.8751 41.3102 48.0106 40.0556 47.4208 38.6747C46.9349 37.5374 46.6433 36.3328 46.5556 35.1081C46.5244 34.6732 46.8808 34.3193 47.3168 34.3193L58.2643 34.3193H69.2118Z" stroke="#6EE1B8" stroke-width="2" mask="url(#path-7-inside-2_2000_14356)"/>
</g>
<path id="Vector 156_2" d="M57.9082 43.2107C59.0938 43.2107 62.1762 42.4282 65.0215 39.2983" stroke="#6EE1B8" stroke-linecap="round"/>
</g>
<path id="Vector 157" d="M63.953 13.6909H41.5461M30.1648 13.6909H7.75781" stroke="#22D7FF" stroke-linecap="round"/>
<path id="Vector 158" d="M35.8574 19.0254V55.3033" stroke="#22D7FF" stroke-linecap="round"/>
<rect id="Rectangle 357" x="25.6855" y="56.1592" width="20.3399" height="5.40198" stroke="#22D7FF"/>
<path id="Vector 159" d="M50.7951 61.7056H46.1714H22.3418" stroke="#22D7FF" stroke-linecap="round"/>
</g>
</g>
</g>
</svg>
