<svg width="70" height="70" viewBox="0 0 70 70" fill="none" xmlns="http://www.w3.org/2000/svg">
<g id="Frame 1135">
<g id="Group 1870">
<g id="Group 1869">
<g id="Group 1868">
<circle id="Ellipse 1064" cx="21.2981" cy="43.0232" r="18.7981" stroke="#22D7FF"/>
<circle id="Ellipse 1065" cx="36.7356" cy="26.2981" r="18.7981" stroke="#22D7FF"/>
<path id="Vector 154" d="M18.082 29.1925C18.3393 28.9352 21.62 25.6546 23.2282 24.0464M19.0469 33.3738L27.4094 25.0113M20.6551 36.2685L30.3042 26.6195M22.5849 38.8416L33.1989 28.2276M25.158 41.4147L35.772 30.8007M28.0527 43.3445L37.7018 33.6954M31.9574 44.3416L39.3335 36.9655M36.5675 45.2637L40.2555 41.1146" stroke="#6EE1B8"/>
</g>
<path id="Rectangle 356" d="M51.0627 38.9008L52.8906 36.6503L66.1708 47.4371C66.7923 47.9419 66.8868 48.8548 66.3821 49.4763C65.8773 50.0977 64.9644 50.1923 64.3429 49.6875L51.0627 38.9008Z" stroke="#22D7FF"/>
</g>
</g>
</g>
</svg>
