<svg width="70" height="70" viewBox="0 0 70 70" fill="none" xmlns="http://www.w3.org/2000/svg">
<g id="Frame 1131">
<g id="Group 1867">
<g id="Group 1866">
<g id="Group 1865">
<path id="Vector" d="M49.018 30.9334C49.5225 30.9332 50.007 30.7358 50.368 30.3834L62.6513 18.525C64.5264 16.5739 65.5737 13.9728 65.5737 11.2667C65.5737 8.56061 64.5264 5.95951 62.6513 4.00838C61.8341 3.16537 60.8545 2.49667 59.7717 2.04265C58.6889 1.58863 57.5254 1.35869 56.3513 1.36672H56.2846C53.5994 1.40105 51.0177 2.40768 49.018 4.20005C46.693 2.07505 44.5013 1.00005 42.493 1.00005C41.166 0.995824 39.8517 1.25933 38.6289 1.7748C37.4061 2.29027 36.2999 3.04712 35.3763 4.00005C33.4924 5.95 32.4395 8.55537 32.4395 11.2667C32.4395 13.978 33.4924 16.5834 35.3763 18.5334L47.668 30.3917C48.0303 30.7411 48.5146 30.9354 49.018 30.9334ZM36.5763 5.16671C37.3451 4.37302 38.266 3.74254 39.2841 3.31299C40.3021 2.88343 41.3964 2.66362 42.5013 2.66672C44.168 2.66672 46.218 3.78338 48.3763 5.88338C48.5494 6.05437 48.783 6.15026 49.0263 6.15026C49.2697 6.15026 49.5032 6.05437 49.6763 5.88338C51.4406 4.09849 53.8337 3.07544 56.343 3.03338C57.2963 3.02632 58.2411 3.21245 59.1205 3.58054C59.9999 3.94862 60.7956 4.49103 61.4596 5.17505C63.027 6.81416 63.9017 8.99466 63.9017 11.2625C63.9017 13.5304 63.027 15.7109 61.4596 17.35L49.2097 29.1917C49.1848 29.2174 49.155 29.2378 49.1221 29.2518C49.0891 29.2658 49.0537 29.2729 49.018 29.2729C48.9822 29.2729 48.9468 29.2658 48.9139 29.2518C48.881 29.2378 48.8512 29.2174 48.8263 29.1917L36.5763 17.3584C34.9964 15.7224 34.1133 13.5369 34.1133 11.2625C34.1133 8.98819 34.9964 6.80269 36.5763 5.16671Z" fill="#6EE1B8"/>
<path id="Vector_2" d="M67.9776 38.142C67.0734 37.2143 65.841 36.6787 64.5458 36.6507C63.2506 36.6226 61.9962 37.1043 61.0526 37.992L48.3527 50.0087L35.5777 51.4837L32.786 47.542L42.7193 44.8337C43.9791 44.5839 45.0881 43.844 45.8023 42.7766C46.5165 41.7092 46.7774 40.4018 46.5277 39.142C46.2779 37.8822 45.538 36.7733 44.4706 36.0591C43.4032 35.3449 42.0958 35.0839 40.836 35.3337L21.886 37.7503C20.6693 37.8608 19.5179 38.3505 18.5944 39.1503L2.29437 53.267C2.20573 53.3421 2.1338 53.435 2.08319 53.5396C2.03257 53.6442 2.0044 53.7583 2.00048 53.8744C1.99655 53.9906 2.01696 54.1063 2.0604 54.214C2.10384 54.3218 2.16934 54.4193 2.2527 54.5003L15.5194 67.7586C15.5972 67.8359 15.6896 67.897 15.7911 67.9384C15.8926 67.9799 16.0013 68.0009 16.111 68.0003C16.2219 67.9988 16.3313 67.9751 16.4329 67.9308C16.5345 67.8864 16.6262 67.8222 16.7027 67.742L21.7027 62.567L47.7943 62.467C49.3124 62.4607 50.7683 61.8628 51.8527 60.8003L67.886 45.092C68.8153 44.1801 69.3464 42.9378 69.3636 41.6359C69.3807 40.334 68.8826 39.0781 67.9776 38.142ZM66.7193 43.892L50.686 59.617C49.9113 60.3766 48.8709 60.8041 47.786 60.8086L21.336 60.9086C21.2154 60.902 21.0948 60.9217 20.9826 60.9663C20.8704 61.0109 20.7692 61.0794 20.686 61.167L16.061 65.9836L4.01937 53.942L19.6777 40.4337C20.3438 39.8577 21.1752 39.5077 22.0527 39.4337L41.0443 37.0003C41.8451 36.8924 42.657 37.094 43.3144 37.5638C43.9718 38.0336 44.4253 38.7365 44.5826 39.5291C44.7398 40.3217 44.5889 41.1444 44.1607 41.8296C43.7324 42.5148 43.059 43.011 42.2777 43.217L31.2027 46.242C31.0739 46.2777 30.9557 46.3438 30.8578 46.4348C30.76 46.5258 30.6855 46.6389 30.6406 46.7648C30.5956 46.8906 30.5816 47.0253 30.5997 47.1577C30.6177 47.2901 30.6673 47.4162 30.7443 47.5253L34.5027 52.8337C34.5885 52.9562 34.7058 53.0534 34.8422 53.1149C34.9785 53.1765 35.129 53.2003 35.2777 53.1837L48.8193 51.6253C48.9978 51.6035 49.1644 51.5246 49.2943 51.4003L62.2026 39.2003C62.8312 38.6373 63.6538 38.3401 64.497 38.3713C65.3403 38.4025 66.1386 38.7597 66.7239 39.3676C67.3092 39.9756 67.6357 40.7869 67.6349 41.6307C67.634 42.4746 67.3058 43.2852 66.7193 43.892Z" fill="#22D7FF"/>
</g>
</g>
</g>
</g>
</svg>
