<svg width="61" height="60" viewBox="0 0 61 60" fill="none" xmlns="http://www.w3.org/2000/svg">
<g id="Group 1867">
<g id="Group 1866">
<g id="Group 1865">
<path id="Vector" d="M42.1072 26.806C42.559 26.8058 42.9929 26.6291 43.3161 26.3135L54.3161 15.6941C55.9953 13.9468 56.9332 11.6174 56.9332 9.19407C56.9332 6.7707 55.9953 4.44136 54.3161 2.69407C53.5843 1.93914 52.707 1.3403 51.7374 0.933717C50.7677 0.52713 49.7258 0.321216 48.6743 0.328402H48.6146C46.21 0.359151 43.898 1.26061 42.1072 2.86571C40.0251 0.962731 38.0624 4.48122e-05 36.2639 4.48122e-05C35.0755 -0.0037398 33.8986 0.232235 32.8036 0.693851C31.7085 1.15547 30.7178 1.83324 29.8908 2.68661C28.2037 4.43283 27.2607 6.766 27.2607 9.19407C27.2607 11.6221 28.2037 13.9553 29.8908 15.7015L40.8982 26.3209C41.2227 26.6338 41.6564 26.8078 42.1072 26.806ZM30.9654 3.73138C31.6538 3.02062 32.4786 2.45601 33.3903 2.07133C34.3019 1.68665 35.2819 1.48981 36.2714 1.49258C37.7639 1.49258 39.5997 2.49258 41.5326 4.37317C41.6876 4.5263 41.8967 4.61217 42.1146 4.61217C42.3326 4.61217 42.5417 4.5263 42.6967 4.37317C44.2767 2.77476 46.4197 1.85861 48.6669 1.82094C49.5206 1.81462 50.3667 1.9813 51.1542 2.31093C51.9417 2.64056 52.6543 3.1263 53.249 3.73885C54.6526 5.20671 55.4359 7.15939 55.4359 9.19033C55.4359 11.2213 54.6526 13.174 53.249 14.6418L42.2788 25.2463C42.2566 25.2693 42.2299 25.2876 42.2004 25.3001C42.1709 25.3126 42.1392 25.3191 42.1072 25.3191C42.0752 25.3191 42.0435 25.3126 42.014 25.3001C41.9845 25.2876 41.9578 25.2693 41.9355 25.2463L30.9654 14.6493C29.5505 13.1842 28.7597 11.2271 28.7597 9.19033C28.7597 7.15361 29.5505 5.19644 30.9654 3.73138Z" fill="#6EE1B8"/>
<path id="Vector_2" d="M59.0844 33.2613C58.2747 32.4305 57.1711 31.9509 56.0112 31.9258C54.8513 31.9006 53.7279 32.332 52.883 33.127L41.5098 43.8882L30.0696 45.209L27.5696 41.6792L36.4651 39.2538C37.5932 39.0302 38.5863 38.3675 39.2259 37.4116C39.8655 36.4558 40.0992 35.285 39.8755 34.1568C39.6519 33.0287 38.9892 32.0356 38.0333 31.396C37.0775 30.7564 35.9067 30.5227 34.7785 30.7464L17.8084 32.9106C16.7187 33.0095 15.6877 33.448 14.8606 34.1643L0.263613 46.8061C0.184239 46.8734 0.11982 46.9565 0.0744946 47.0502C0.0291694 47.1439 0.00393943 47.246 0.000425533 47.35C-0.00308837 47.4541 0.0151917 47.5576 0.054091 47.6542C0.0929903 47.7507 0.151649 47.838 0.2263 47.9105L12.1069 59.7837C12.1766 59.8528 12.2593 59.9075 12.3502 59.9447C12.4412 59.9818 12.5385 60.0006 12.6367 60.0001C12.736 59.9987 12.834 59.9775 12.925 59.9378C13.016 59.8981 13.0981 59.8406 13.1666 59.7687L17.6442 55.1344L41.0098 55.0449C42.3693 55.0392 43.6731 54.5038 44.6442 53.5523L59.0024 39.4852C59.8346 38.6685 60.3102 37.556 60.3256 36.3901C60.341 35.2243 59.8948 34.0996 59.0844 33.2613ZM57.9576 38.4105L43.5994 52.4926C42.9057 53.1729 41.974 53.5557 41.0024 53.5598L17.3158 53.6493C17.2078 53.6434 17.0998 53.661 16.9993 53.701C16.8988 53.7409 16.8082 53.8022 16.7337 53.8807L12.592 58.1941L1.80839 47.4105L15.8308 35.3135C16.4273 34.7978 17.1719 34.4843 17.9576 34.418L34.9651 32.2389C35.6822 32.1423 36.4092 32.3227 36.9979 32.7435C37.5867 33.1643 37.9928 33.7936 38.1336 34.5034C38.2744 35.2132 38.1393 35.95 37.7558 36.5636C37.3723 37.1773 36.7693 37.6216 36.0695 37.8061L26.1516 40.515C26.0364 40.547 25.9304 40.6062 25.8428 40.6877C25.7552 40.7691 25.6885 40.8705 25.6483 40.9832C25.608 41.0958 25.5955 41.2165 25.6116 41.3351C25.6278 41.4536 25.6722 41.5665 25.7412 41.6643L29.1069 46.418C29.1838 46.5277 29.2888 46.6148 29.4109 46.6699C29.533 46.7251 29.6677 46.7463 29.8009 46.7314L41.9277 45.3359C42.0876 45.3164 42.2368 45.2457 42.3531 45.1344L53.9128 34.2091C54.4757 33.7049 55.2123 33.4387 55.9675 33.4667C56.7227 33.4946 57.4376 33.8145 57.9617 34.3589C58.4858 34.9033 58.7783 35.6298 58.7775 36.3855C58.7767 37.1413 58.4828 37.8672 57.9576 38.4105Z" fill="#22D7FF"/>
</g>
</g>
</g>
</svg>
