<svg width="72" height="60" viewBox="0 0 72 60" fill="none" xmlns="http://www.w3.org/2000/svg">
<g id="Group 1870">
<g id="Group 1869">
<g id="Group 1868">
<circle id="Ellipse 1064" cx="20.9302" cy="39.0699" r="20.4302" stroke="#22D7FF"/>
<circle id="Ellipse 1065" cx="37.6744" cy="20.9302" r="20.4302" stroke="#22D7FF"/>
<path id="Vector 154" d="M17.4414 24.0697C17.7205 23.7906 21.2786 20.2325 23.0228 18.4883M18.4879 28.6046L27.5577 19.5348M20.2321 31.7441L30.6972 21.279M22.3251 34.5348L33.8368 23.0232M25.1158 37.3255L36.6275 25.8139M28.2554 39.4185L38.7205 28.9534M32.4902 40.5L40.4902 32.5M37.4902 41.5L41.4902 37" stroke="#6EE1B8"/>
</g>
<path id="Rectangle 356" d="M53.1535 34.6049L55.1894 32.0985L69.6255 43.8242C70.3177 44.3864 70.423 45.4032 69.8608 46.0953C69.2987 46.7874 68.2818 46.8928 67.5897 46.3306L53.1535 34.6049Z" stroke="#22D7FF"/>
</g>
</g>
</svg>
