<svg width="81" height="52" viewBox="0 0 81 52" fill="none" xmlns="http://www.w3.org/2000/svg">
<g id="Group 2016">
<path id="Vector 157" d="M43.9311 32.268H28.0188L20.9704 27.9452H18.9414L1 36.1585V15.5533L17.9802 23.3343M43.9311 32.268V35.8703H51.7271V32.7003M43.9311 32.268H47.2417M51.7271 32.7003H53.5426L56.5328 28.6657L73.0858 51H80.3478V1H73.0858L56.5328 23.3343L53.5426 19.2997H51.7271V19.0115M51.7271 32.7003V32.268H47.2417M17.9802 23.3343V15.5533H51.7271V19.0115M17.9802 23.3343L18.9414 24.6311H20.9704L28.0188 19.732H47.2417M47.2417 19.732H51.7271V19.0115M47.2417 19.732V32.268" stroke="#22D7FF" stroke-width="1.08696"/>
<line id="Line 253" x1="28" y1="22.5" x2="44" y2="22.5" stroke="#40D8BD"/>
<line id="Line 254" x1="28" y1="25.5" x2="44" y2="25.5" stroke="#40D8BD"/>
<line id="Line 255" x1="28" y1="28.5" x2="44" y2="28.5" stroke="#40D8BD"/>
</g>
</svg>
