<svg width="169" height="140" viewBox="0 0 169 140" fill="none" xmlns="http://www.w3.org/2000/svg">
<g clip-path="url(#clip0_1592_1207)">
<path d="M0 87.5771C13.8235 69.0476 55.4118 40.8123 111.176 76.1065C120.294 81.9888 144.706 89.8712 169.412 74.3418M169.412 74.3418C170.118 74.3418 155.588 73.1653 148.235 72.5771M169.412 74.3418L157.059 90.2242" stroke="#22D7FF" stroke-width="1.81223"/>
<line x1="71.9061" y1="0.906117" x2="71.9061" y2="139.094" stroke="#40D8BD" stroke-width="1.81223" stroke-linecap="round" stroke-dasharray="5.44 5.44"/>
<line x1="82.0819" y1="10.7479" x2="82.0819" y2="127.171" stroke="#40D8BD" stroke-width="1.81223" stroke-linecap="round" stroke-dasharray="5.44 5.44"/>
<path d="M93.5303 16.9014L93.5303 122.784" stroke="#40D8BD" stroke-width="1.81223" stroke-dasharray="5.44 5.44"/>
<line x1="103.26" y1="26.6307" x2="103.26" y2="113.054" stroke="#40D8BD" stroke-width="1.81223" stroke-linecap="round" stroke-dasharray="5.44 5.44"/>
<path d="M145.5 72.1748C145.5 104.483 119.309 130.675 87 130.675C54.6913 130.675 28.5 104.483 28.5 72.1748C28.5 39.8661 54.6913 13.6748 87 13.6748C119.309 13.6748 145.5 39.8661 145.5 72.1748Z" stroke="#22D7FF"/>
<g filter="url(#filter0_f_1592_1207)">
<path d="M64 59.001C64 61.7624 61.7614 64.001 59 64.001C56.2386 64.001 54 61.7624 54 59.001C54 56.2396 56.2386 54.001 59 54.001C61.7614 54.001 64 56.2396 64 59.001Z" fill="url(#paint0_radial_1592_1207)"/>
<path d="M64 59.001C64 61.7624 61.7614 64.001 59 64.001C56.2386 64.001 54 61.7624 54 59.001C54 56.2396 56.2386 54.001 59 54.001C61.7614 54.001 64 56.2396 64 59.001Z" fill="url(#paint1_radial_1592_1207)"/>
</g>
</g>
<defs>
<filter id="filter0_f_1592_1207" x="52.1044" y="52.1054" width="13.7911" height="13.7911" filterUnits="userSpaceOnUse" color-interpolation-filters="sRGB">
<feFlood flood-opacity="0" result="BackgroundImageFix"/>
<feBlend mode="normal" in="SourceGraphic" in2="BackgroundImageFix" result="shape"/>
<feGaussianBlur stdDeviation="0.947778" result="effect1_foregroundBlur_1592_1207"/>
</filter>
<radialGradient id="paint0_radial_1592_1207" cx="0" cy="0" r="1" gradientUnits="userSpaceOnUse" gradientTransform="translate(59 59.001) rotate(90) scale(25.625 25.625)">
<stop stop-color="white"/>
<stop offset="1" stop-color="#FFEDCA" stop-opacity="0"/>
</radialGradient>
<radialGradient id="paint1_radial_1592_1207" cx="0" cy="0" r="1" gradientUnits="userSpaceOnUse" gradientTransform="translate(59 59.001) rotate(90) scale(25.625 25.625)">
<stop stop-color="white"/>
<stop offset="1" stop-color="#FFEDCA" stop-opacity="0"/>
</radialGradient>
<clipPath id="clip0_1592_1207">
<rect width="169" height="140" fill="white"/>
</clipPath>
</defs>
</svg>
