<svg width="81" height="82" viewBox="0 0 81 82" fill="none" xmlns="http://www.w3.org/2000/svg">
<g id="Group 2062">
<g id="Group 2061">
<path id="Vector 178" d="M60.6802 5.41398L55.5068 2.42711L55.2025 2.25141L52.7427 6.51187M60.6802 5.41398L65.8537 8.40086L63.3939 12.6613M60.6802 5.41398L45.7459 31.2811M45.7459 31.2811L50.9193 34.268L53.3791 30.0075M45.7459 31.2811L40.2681 28.1185L42.7279 23.8581M52.7427 6.51187L63.3939 12.6613M52.7427 6.51187L50.2829 10.7723M63.3939 12.6613L60.9341 16.9218M50.2829 10.7723L60.9341 16.9218M50.2829 10.7723L47.7289 15.1961M60.9341 16.9218L58.38 21.3456M47.7289 15.1961L58.38 21.3456M47.7289 15.1961L45.1877 19.5976M58.38 21.3456L55.8388 25.747M45.1877 19.5976L55.8388 25.747M45.1877 19.5976L42.7279 23.8581M55.8388 25.747L53.3791 30.0075M42.7279 23.8581L53.3791 30.0075" stroke="#22D7FF" stroke-width="0.7"/>
<path id="Vector 180" d="M20.1581 75.9532L25.3316 78.9401L25.6359 79.1158L28.0957 74.8553M20.1581 75.9532L14.9847 72.9663L17.4445 68.7059M20.1581 75.9532L35.0925 50.0861M35.0925 50.0861L29.9191 47.0992L27.4593 51.3597M35.0925 50.0861L40.5703 53.2487L38.1105 57.5091M28.0957 74.8553L17.4445 68.7059M28.0957 74.8553L30.5554 70.5948M17.4445 68.7059L19.9043 64.4454M30.5554 70.5948L19.9043 64.4454M30.5554 70.5948L33.1095 66.1711M19.9043 64.4454L22.4583 60.0216M33.1095 66.1711L22.4583 60.0216M33.1095 66.1711L35.6507 61.7696M22.4583 60.0216L24.9995 55.6201M35.6507 61.7696L24.9995 55.6201M35.6507 61.7696L38.1105 57.5091M24.9995 55.6201L27.4593 51.3597M38.1105 57.5091L27.4593 51.3597" stroke="#22D7FF" stroke-width="0.7"/>
<path id="Vector 179" d="M46.1549 52.0097L53.0071 40.1413L53.1828 39.8369L32.1848 27.7137L25.1569 39.8865L46.1549 52.0097Z" stroke="#22D7FF"/>
<path id="Vector 181" d="M49.6685 45.9229L53.016 47.8555M53.016 47.8555C50.1432 54.7991 54.1227 58.7061 56.4715 59.7917L64.905 45.1844C60.2141 41.5023 55.0244 45.4309 53.016 47.8555Z" stroke="#40D8BD"/>
<line id="Line 256" y1="-0.5" x2="11.9475" y2="-0.5" transform="matrix(0.866025 0.5 0.5 -0.866025 33.7329 37.332)" stroke="#40D8BD"/>
<path id="Vector 182" d="M65.3128 51.5072C65.6558 52.7872 65.5737 55.5531 62.5016 56.3763" stroke="#40D8BD"/>
<path id="Vector 183" d="M67.4906 51.9521C67.9193 53.5521 67.8168 57.0095 63.9766 58.0385" stroke="#40D8BD"/>
</g>
</g>
</svg>
