<svg width="675" height="422" viewBox="0 0 675 422" fill="none" xmlns="http://www.w3.org/2000/svg">
<path d="M633.597 168.507C615.417 118.349 568.658 74.3894 502.538 45.2932C436.419 16.197 355.738 4.07597 276.4 11.3198C197.063 18.5636 124.827 44.6466 73.9331 84.4266C23.0394 124.207 -2.81863 174.797 1.45679 226.224C5.73221 277.65 39.8308 326.182 97.0302 362.25C154.23 398.318 230.379 419.306 310.466 421.076C390.552 422.845 468.765 405.268 529.684 371.81C590.602 338.351 629.807 291.44 639.568 240.323" stroke="#22D7FF" stroke-dasharray="2 2"/>
<path d="M267.345 1L254.11 14.2346L267.345 27.4691" stroke="#22D7FF"/>
<path d="M670.499 192.074C670.499 197.072 666.971 201.693 661.059 205.093C655.16 208.485 646.978 210.599 637.913 210.599C628.847 210.599 620.665 208.485 614.766 205.093C608.854 201.693 605.326 197.072 605.326 192.074C605.326 187.076 608.854 182.454 614.766 179.055C620.665 175.663 628.847 173.549 637.913 173.549C646.978 173.549 655.16 175.663 661.059 179.055C666.971 182.454 670.499 187.076 670.499 192.074Z" stroke="#22D7FF"/>
<path d="M671.353 46.1401C671.157 45.9449 670.841 45.9449 670.645 46.1401L667.463 49.3221C667.268 49.5174 667.268 49.834 667.463 50.0292C667.659 50.2245 667.975 50.2245 668.171 50.0292L670.999 47.2008L673.827 50.0292C674.023 50.2245 674.339 50.2245 674.535 50.0292C674.73 49.834 674.73 49.5174 674.535 49.3221L671.353 46.1401ZM664.559 57.771L664.252 57.3769L664.559 57.771ZM647.747 64.6585L647.659 64.1663L647.747 64.6585ZM627.107 64.4752L627.01 64.9656L627.107 64.4752ZM610.673 57.2926L610.353 57.6765L610.673 57.2926ZM604.842 45.9064L605.341 45.9332L604.842 45.9064ZM611.884 34.7488L611.588 34.3455L611.884 34.7488ZM629.058 28.163L628.979 27.6692L629.058 28.163ZM670.499 46.4937C670.499 50.3526 668.354 54.172 664.252 57.3769L664.867 58.165C669.131 54.8339 671.499 50.7504 671.499 46.4937H670.499ZM664.252 57.3769C660.149 60.5824 654.34 62.9704 647.659 64.1663L647.836 65.1506C654.631 63.9342 660.604 61.4955 664.867 58.165L664.252 57.3769ZM647.659 64.1663C640.982 65.3615 633.813 65.2978 627.205 63.9848L627.01 64.9656C633.741 66.3031 641.037 66.3677 647.836 65.1506L647.659 64.1663ZM627.205 63.9848C620.592 62.6711 614.918 60.1819 610.993 56.9086L610.353 57.6765C614.439 61.0846 620.282 63.629 627.01 64.9656L627.205 63.9848ZM610.993 56.9086C607.071 53.6373 605.134 49.788 605.341 45.9332L604.343 45.8795C604.114 50.1364 606.264 54.2664 610.353 57.6765L610.993 56.9086ZM605.341 45.9332C605.549 42.0728 607.901 38.2869 612.179 35.1521L611.588 34.3455C607.153 37.595 604.571 41.6282 604.343 45.8795L605.341 45.9332ZM612.179 35.1521C616.457 32.0179 622.394 29.7335 629.137 28.6567L628.979 27.6692C622.122 28.7644 616.024 31.0952 611.588 34.3455L612.179 35.1521ZM629.137 28.6567C635.876 27.5804 643.038 27.7716 649.571 29.201L649.785 28.2241C643.127 26.7675 635.839 26.5736 628.979 27.6692L629.137 28.6567Z" fill="#22D7FF"/>
<path d="M605.653 192.074V249.975C615.028 260.728 641.718 275.783 670.172 249.975V191.247" stroke="#22D7FF"/>
<path d="M638.267 42.0047C638.071 41.8094 637.755 41.8094 637.56 42.0047L634.378 45.1867C634.182 45.3819 634.182 45.6985 634.378 45.8938C634.573 46.089 634.889 46.089 635.085 45.8938L637.913 43.0653L640.742 45.8938C640.937 46.089 641.253 46.089 641.449 45.8938C641.644 45.6985 641.644 45.3819 641.449 45.1867L638.267 42.0047ZM638.413 196.21L638.413 42.3582L637.413 42.3582L637.413 196.21L638.413 196.21Z" fill="#22D7FF"/>
<path d="M636.259 334.833L636.259 285.203" stroke="#22D7FF"/>
<circle cx="324" cy="217.716" r="133.5" stroke="#40D8BD"/>
<path d="M362.5 103C362.5 107.948 358.368 112.571 351.358 115.986C344.382 119.384 334.711 121.5 324 121.5C313.289 121.5 303.618 119.384 296.642 115.986C289.632 112.571 285.5 107.948 285.5 103C285.5 98.0516 289.632 93.4293 296.642 90.0145C303.618 86.616 313.289 84.5 324 84.5C334.711 84.5 344.382 86.616 351.358 90.0145C358.368 93.4293 362.5 98.0516 362.5 103Z" stroke="#22D7FF"/>
<circle cx="324" cy="94" r="9.5" stroke="#22D7FF"/>
<circle cx="324" cy="341" r="9.5" stroke="#22D7FF"/>
<path d="M324.18 127.934L331.393 120.722L324.18 113.51" stroke="#22D7FF"/>
<path d="M190.419 218.543C209.444 445.185 510.347 332.628 639.5 240.5" stroke="#22D7FF"/>
<path d="M1 219L640 219" stroke="#40D8BD" stroke-dasharray="2 2"/>
</svg>
