<svg width="605" height="373" viewBox="0 0 605 373" fill="none" xmlns="http://www.w3.org/2000/svg">
<path d="M501.479 350.14C488.662 305.636 461.786 266.476 424.868 238.513C387.95 210.549 342.974 195.286 296.662 195.004C250.35 194.722 205.19 209.437 167.935 236.948C130.679 264.46 103.328 303.29 89.9707 347.635" stroke="#40D8BD"/>
<path d="M604.47 347.573C590.219 279.2 552.823 217.835 498.589 173.827C444.356 129.82 376.603 105.864 306.761 106.001C236.919 106.137 169.261 130.358 115.2 174.577C61.1389 218.797 23.9831 280.308 10 348.736" stroke="#22D7FF" stroke-dasharray="3 3"/>
<path d="M61.3543 128.574L79.0161 145.838L94.1272 130.071L76.5541 113.29M61.3543 128.574L76.5541 113.29M61.3543 128.574C59.6828 128.547 56.251 128.009 55.8966 126.074L74.0395 107.751C75.0525 108.732 76.9736 111.214 76.5541 113.29" stroke="#22D7FF"/>
<path d="M95.7482 125.273L83.5921 113.5L100.856 95.8387L112.924 107.128L95.7482 125.273Z" stroke="#22D7FF"/>
<path d="M57.0031 164.87L44.847 153.097L62.1111 135.435L74.1785 146.724L57.0031 164.87Z" stroke="#22D7FF"/>
<path d="M79.0157 145.838C78.6525 148.404 79.2306 155.198 84.0931 159.907L107.55 135.111C105.846 133.09 100.39 129.323 94.1269 130.07" stroke="#22D7FF"/>
<circle cx="96.9213" cy="148.058" r="1.96719" transform="rotate(-10.3799 96.9213 148.058)" fill="#22D7FF"/>
<path d="M107.121 143.69C107.209 144.173 106.433 156.315 92.3161 158.401" stroke="#22D7FF"/>
<path d="M113.193 144.078C113.37 145.045 112.162 160.912 92.8047 163.792" stroke="#22D7FF"/>
<path d="M17.9315 189.31L140.934 67.1491" stroke="#22D7FF"/>
<path d="M453.042 69.1139L442.086 91.2486L461.753 100.743L472.277 78.8424M453.042 69.1139L472.277 78.8424M453.042 69.1139C452.551 67.5159 452.001 64.086 453.732 63.1505L476.767 74.7382C476.147 76.0049 474.382 78.5992 472.277 78.8424" stroke="#22D7FF"/>
<path d="M466.816 100.802L474.252 85.6012L496.387 96.5575L489.383 111.524L466.816 100.802Z" stroke="#22D7FF"/>
<path d="M417.18 76.2005L424.617 60.9997L446.751 71.9559L439.747 86.9229L417.18 76.2005Z" stroke="#22D7FF"/>
<path d="M442.085 91.2491C439.532 91.6973 433.25 94.348 430.275 100.428L461.109 115.068C462.505 112.823 464.4 106.469 461.753 100.744" stroke="#22D7FF"/>
<circle cx="445.512" cy="108.964" r="1.96719" transform="rotate(61.607 445.512 108.964)" fill="#22D7FF"/>
<path d="M452.82 117.312C452.387 117.546 440.601 120.563 434.251 107.783" stroke="#22D7FF"/>
<path d="M454.328 123.206C453.462 123.674 438 127.432 429.275 109.914" stroke="#22D7FF"/>
<path d="M381.855 46.6007L536.065 125.798" stroke="#22D7FF"/>
<path d="M242.001 300.5C242.278 300.499 242.501 300.275 242.5 299.999L242.487 295.499C242.486 295.222 242.262 294.999 241.986 295C241.71 295.001 241.486 295.225 241.487 295.501L241.499 299.501L237.499 299.513C237.222 299.514 236.999 299.738 237 300.014C237.001 300.29 237.225 300.514 237.501 300.513L242.001 300.5ZM119.503 178.903L241.647 300.355L242.353 299.645L120.208 178.194L119.503 178.903Z" fill="#40D8BD"/>
<path d="M136.55 167.5C136.274 167.504 136.054 167.731 136.058 168.007L136.124 172.507C136.128 172.783 136.355 173.004 136.631 172.999C136.907 172.995 137.128 172.768 137.124 172.492L137.065 168.493L141.065 168.434C141.341 168.43 141.561 168.202 141.557 167.926C141.553 167.65 141.326 167.43 141.05 167.434L136.55 167.5ZM136.209 168.359L254.652 283.359L255.348 282.641L136.906 167.641L136.209 168.359Z" fill="#40D8BD"/>
<path d="M275.855 365.5L280.471 353.5M295.855 313.5L285.663 340M295.855 313.5V343.5M295.855 313.5L305.855 339.5M315.855 365.5L305.855 339.5M295.855 372.5V359.5M280.471 353.5L295.855 359.5M280.471 353.5L285.663 340M295.855 359.5L304.355 356M295.855 359.5V343.5M285.663 340L295.855 343.5M295.855 343.5L305.855 339.5" stroke="#40D8BD"/>
<circle cx="295.855" cy="304.5" r="8.5" stroke="#40D8BD"/>
<path d="M307.855 285C314.355 290.667 323.455 305.6 307.855 320" stroke="#40D8BD"/>
<path d="M283.469 285C276.969 290.667 267.869 305.6 283.469 320" stroke="#40D8BD"/>
</svg>
