<svg width="1102" height="955" viewBox="0 0 1102 955" fill="none" xmlns="http://www.w3.org/2000/svg">
<g opacity="0.1">
<path d="M670.424 373.644C659.973 389.231 666.188 403.466 669.252 408.872C672.315 414.278 681.685 426.712 700.336 425.541L1058.57 402.025L1102 477.258L705.472 503.297C662.855 506.09 623.121 484.826 601.767 447.886C580.414 410.855 581.855 365.895 605.641 330.395L826.475 -9.15527e-05L869.904 75.2339L670.424 373.644Z" fill="white"/>
<path d="M580.959 632.414C572.67 615.565 557.265 613.764 551.048 613.764C544.831 613.764 529.423 615.565 521.134 632.414L362.468 954.43H275.613L451.307 597.996C470.138 559.704 508.431 535.918 551.138 535.918C593.845 535.918 632.136 559.704 650.967 597.996L826.661 954.43H739.806L581.14 632.414H580.959Z" fill="white"/>
<path d="M431.578 373.644C442.03 389.231 435.812 403.466 432.748 408.872C429.685 414.278 420.315 426.712 401.664 425.541L43.4286 402.025L0 477.258L396.528 503.297C439.145 506.09 478.879 484.826 500.233 447.886C521.586 410.855 520.145 365.895 496.359 330.395L275.525 -9.15527e-05L232.097 75.2339L431.578 373.644Z" fill="white"/>
</g>
</svg>
