<svg width="51" height="62" viewBox="0 0 51 62" fill="none" xmlns="http://www.w3.org/2000/svg">
<g id="Group 2060">
<g id="Group 2059">
<path id="Vector 176" d="M7.0625 6.77386V1H11.441V3.40577M11.441 3.40577H9.5645V6.77386M11.441 3.40577H20.2943V6.77386" stroke="#22D7FF"/>
<path id="Vector 175" d="M5.18605 47.9609V52.0026M5.18605 52.0026H21.4972M5.18605 52.0026H1V61.0002H25.7314V52.0026H21.4972M21.4972 52.0026V47.9609" stroke="#22D7FF"/>
<path id="Vector 174" d="M5.18605 19.1872H1V47.9603H25.587V19.1872H21.401M5.18605 19.1872V15.338M5.18605 19.1872H21.401M5.18605 15.338H1V6.77344H25.587V15.338H21.401M5.18605 15.338H21.401M21.401 15.338V19.1872" stroke="#22D7FF"/>
<circle id="Ellipse 2545" cx="35.9799" cy="33.2377" r="14.1752" fill="#515B6A" stroke="#22D7FF"/>
</g>
<path id="Vector 177" d="M29.0034 35.4032L39.4926 23.3262L37.2793 32.2275L44.8815 32.5162L33.2857 44.0639L35.932 35.4032H29.0034Z" stroke="#40D8BD"/>
</g>
</svg>
