<svg width="56" height="76" viewBox="0 0 56 76" fill="none" xmlns="http://www.w3.org/2000/svg">
<g id="Group 1766">
<g id="Group 1765">
<path id="Ellipse 1077" d="M8.43226 15.6398C6.81127 15.7918 5.30462 14.4888 5.13206 12.6479C4.95951 10.807 6.19778 9.24678 7.81877 9.09484C9.43976 8.9429 10.9464 10.2459 11.119 12.0867C11.2915 13.9276 10.0532 15.4879 8.43226 15.6398Z" stroke="#40D8BD" stroke-width="0.9"/>
<path id="Ellipse 1078" d="M8.8039 13.8637C8.03376 14.07 7.15694 13.5584 6.90393 12.6142C6.65092 11.6699 7.15446 10.7884 7.9246 10.5821C8.69475 10.3757 9.57157 10.8873 9.82458 11.8316C10.0776 12.7758 9.57405 13.6573 8.8039 13.8637Z" stroke="#40D8BD" stroke-width="0.9"/>
<path id="Vector 118" d="M10.7752 14.3355L12.7815 16.5344L13.6284 16.5611L21.0608 25.7817L19.2988 26.5037L17.5368 27.2257L10.1679 17.681L10.4075 17.2342L9.16301 15.4134" stroke="#40D8BD" stroke-width="0.9"/>
<path id="Vector 119" d="M26.2845 21.5947C26.376 21.6475 31.4726 20.6236 33.9611 19.9246L41.858 31.3486L40.9574 33.0407L50.2952 46.5936L41.211 58.8927L37.1166 62.0209L27.01 64.7289L17.6723 51.1763L16.0722 51.7015L8.10915 40.3916L13.7648 34.4275" stroke="#22D7FF" stroke-width="0.9"/>
<path id="Ellipse 1079" d="M22.1894 30.2132C20.4344 31.9664 18.5623 33.2402 16.9691 33.8919C16.1715 34.2181 15.4652 34.3797 14.8904 34.3823C14.318 34.3848 13.9122 34.2313 13.6486 33.9674C13.385 33.7036 13.2319 33.2976 13.235 32.7252C13.2381 32.1505 13.4004 31.4442 13.7275 30.647C14.3808 29.0544 15.6564 27.1836 17.4114 25.4304C19.1664 23.6772 21.0384 22.4035 22.6317 21.7518C23.4292 21.4255 24.1356 21.2639 24.7104 21.2614C25.2828 21.2588 25.6886 21.4124 25.9522 21.6762C26.2157 21.9401 26.3689 22.346 26.3658 22.9185C26.3626 23.4932 26.2003 24.1994 25.8733 24.9967C25.22 26.5892 23.9444 28.46 22.1894 30.2132Z" stroke="#22D7FF" stroke-width="0.9"/>
<path id="Ellipse 1080" d="M20.7671 28.3165C19.5716 29.5108 18.3009 30.3736 17.2277 30.8125C16.6902 31.0324 16.2235 31.1372 15.8526 31.1389C15.4841 31.1405 15.2465 31.0419 15.1 30.8953C14.9535 30.7486 14.8551 30.5109 14.8571 30.1424C14.8591 29.7715 14.9644 29.3049 15.1848 28.7676C15.6249 27.6949 16.4889 26.425 17.6844 25.2307C18.8799 24.0364 20.1507 23.1736 21.2239 22.7347C21.7614 22.5148 22.2281 22.41 22.5989 22.4083C22.9674 22.4067 23.205 22.5053 23.3516 22.652C23.4981 22.7986 23.5965 23.0363 23.5945 23.4048C23.5924 23.7757 23.4872 24.2423 23.2667 24.7796C22.8267 25.8523 21.9626 27.1222 20.7671 28.3165Z" stroke="#22D7FF" stroke-width="0.9"/>
<path id="Vector 120" d="M33.9844 20.015L22.807 33.1652L18.8513 36.4496M18.8513 36.4496L8.13242 40.4823M18.8513 36.4496L26.8449 48.2349M26.8449 48.2349L27.2961 48.114M26.8449 48.2349L16.0713 51.7019M27.2961 48.114L37.1157 62.0213M27.2961 48.114L31.2342 45.1244M23.2582 33.0443L31.2342 45.1244M31.2342 45.1244L41.2101 58.8932M31.2342 45.1244L40.9565 33.0411" stroke="#22D7FF" stroke-width="0.9"/>
<path id="Vector 121" d="M47.4842 50.5391C49.6371 50.9939 52.4187 53.4337 46.3216 59.5551C46.4118 59.5309 40.2873 65.9111 34.7215 66.4353C34.4685 66.2129 31.3633 66.1745 32.8761 63.1578" stroke="#22D7FF" stroke-width="0.9"/>
<path id="Vector 122" d="M48.8994 51.1268C50.7367 52.5688 52.4238 54.5346 47.7802 60.518C47.7802 60.518 40.5553 68.3536 34.812 66.4107" stroke="#22D7FF" stroke-width="0.9"/>
<path id="Vector 123" d="M47.2307 61.1493L47.2967 61.2325C48.4956 62.7435 49.5375 64.7112 48.5948 66.394C47.9743 67.5015 46.7595 68.428 44.5435 68.446C44.3076 68.4319 42.6413 66.2799 41.8376 65.2057" stroke="#40D8BD" stroke-width="0.9"/>
<circle id="Ellipse 1081" cx="27.9595" cy="59.2519" r="1.7921" transform="rotate(75 27.9595 59.2519)" stroke="#40D8BD" stroke-width="0.9"/>
</g>
</g>
</svg>
