<svg width="82" height="82" viewBox="0 0 82 82" fill="none" xmlns="http://www.w3.org/2000/svg">
<g id="Group 2056">
<path id="Vector 158" d="M55.8662 13.5102L58.6271 16.2711M68.733 26.3771L65.347 22.9911M58.6271 16.2711L50.8653 24.0329L48.469 21.6367L25.2357 39.6607L21.8497 37.004L24.1418 22.7306L21.9539 20.5427L12.3167 30.1798C10.4761 32.1594 7.26375 39.2127 9.13908 51.5899C9.01406 51.5482 23.2562 65.7417 30.3929 72.8437C35.168 73.7293 46.1353 74.3127 51.8029 69.5619C51.7613 69.6035 58.2103 63.1545 61.4401 59.9247L59.4085 57.8931L45.1872 60.3415L41.8012 56.2262L60.294 33.4617L57.5852 30.7529L65.347 22.9911M58.6271 16.2711L65.347 22.9911" stroke="#22D7FF"/>
<path id="Vector 159" d="M25.1836 39.7129L41.9053 56.4346" stroke="#40D8BD"/>
<path id="Vector 160" d="M21.8494 37.0041L17.4995 46.501M45.239 60.3937L34.9995 64.501M50.9171 24.0851L57.5329 30.7009" stroke="#40D8BD"/>
<circle id="Ellipse 2543" cx="57.8457" cy="24.0329" r="1.00239" transform="rotate(45 57.8457 24.0329)" stroke="#40D8BD" stroke-width="0.5"/>
</g>
</svg>
