<svg width="45" height="67" viewBox="0 0 45 67" fill="none" xmlns="http://www.w3.org/2000/svg">
<g id="Group 1772">
<g id="Group 1735">
<g id="Group 1734">
<path id="Vector 112" d="M1 59.5L20.0988 5.85145L14.6935 49.8913M22.6213 7.4529L23.5222 54.0951M22.6213 4.25L44.0625 58.4991M25.8645 16.6612L33.0716 54.0951" stroke="#40D8BD" stroke-dasharray="1 1"/>
<path id="Vector 111" d="M27.8679 15.357L36.0929 33.9775H7.08789L15.2274 15.357M27.8679 15.357L23.2018 4.79342V1.03351C26.611 0.794785 32.317 3.32527 27.8679 15.357ZM15.2274 15.357L20.1581 4.07725V1.03351C16.2741 0.675418 9.85052 3.03879 15.2274 15.357Z" stroke="#22D7FF"/>
<path id="Vector 113" d="M4.81254 61.2446C4.5453 61.3142 4.38504 61.5872 4.4546 61.8545L5.58807 66.2094C5.65762 66.4766 5.93065 66.6369 6.19789 66.5673C6.46513 66.4977 6.62538 66.2247 6.55582 65.9575L5.5483 62.0865L9.41933 61.0789C9.68657 61.0094 9.84682 60.7363 9.77727 60.4691C9.70771 60.2019 9.43469 60.0416 9.16745 60.1112L4.81254 61.2446ZM39.437 61.8675C39.5138 61.6023 39.361 61.325 39.0958 61.2482L34.7732 59.997C34.508 59.9202 34.2307 60.073 34.1539 60.3382C34.0771 60.6035 34.2299 60.8808 34.4952 60.9575L38.3374 62.0698L37.2252 65.912C37.1484 66.1773 37.3012 66.4546 37.5665 66.5313C37.8317 66.6081 38.109 66.4553 38.1858 66.1901L39.437 61.8675ZM4.68538 62.1597C10.2722 65.4389 24.9572 70.0135 39.198 62.1664L38.7154 61.2906C24.8823 68.9129 10.5861 64.4637 5.19158 61.2973L4.68538 62.1597Z" fill="#22D7FF"/>
</g>
</g>
<circle id="Ellipse 962" cx="21.0312" cy="3" r="2.5" fill="#515B6A" stroke="#22D7FF"/>
</g>
</svg>
