<svg width="61" height="61" viewBox="0 0 61 61" fill="none" xmlns="http://www.w3.org/2000/svg">
<g id="Group 1491">
<path id="Vector 44" d="M24.7995 48.4815L37.2506 36.0304M37.2506 36.0304L24.8085 22.8306M37.2506 36.0304L38.4161 37.196L45.4095 30.2026L30.2572 15.0503L23.5 21.5001L24.8085 22.8306M24.8085 22.8306L11.9873 35.6518" stroke="black"/>
<path id="Vector 45" d="M12.297 35.9438L25.0098 48.6566L26.1655 49.8123L19.2313 56.7466L4.20703 41.7224L11.1413 34.7881L12.297 35.9438Z" stroke="black"/>
<path id="Vector 46" d="M33.8145 18.4943L36.1041 16.1653L37.4855 17.5705M41.8281 26.6461L44.1177 24.317L42.6219 22.7954M42.6219 22.7954L48.1245 17.3298L42.9729 12.0894L37.4855 17.5705M42.6219 22.7954L37.4855 17.5705" stroke="black"/>
<path id="Vector 47" d="M42.9431 12.0896C42.5319 11.6372 41.9068 10.6092 42.6963 9.62233C42.9787 9.26938 44.7187 7.86354 45.5 7" stroke="black"/>
<path id="Vector 48" d="M48.1246 17.3942C48.573 17.8097 49.3661 18.0813 50.5953 17.7876C51.2085 17.641 53.1287 15.2739 53.9996 14.5008" stroke="black"/>
<path id="Ellipse 184" d="M59.7139 7.64847C59.7139 11.5965 56.5135 14.7969 52.5655 14.7969C48.6175 14.7969 45.417 11.5965 45.417 7.64847C45.417 3.70048 48.6175 0.5 52.5655 0.5C56.5135 0.5 59.7139 3.70048 59.7139 7.64847Z" stroke="#40D8BD"/>
<circle id="Ellipse 185" cx="52.5659" cy="7.89498" r="1.96725" stroke="#40D8BD"/>
<circle id="Ellipse 186" cx="6.92164" cy="53.7859" r="2.4607" stroke="#40D8BD"/>
<path id="Ellipse 187" d="M15.6801 53.1694C15.0633 53.9096 10.9542 58.5268 10.1189 59.0627C9.28365 59.5986 8.32705 59.916 7.33706 59.9856C6.34708 60.0553 5.35546 59.875 4.45334 59.4614C3.55122 59.0477 2.76754 58.414 2.17431 57.6183C1.58109 56.8227 1.19735 55.8908 1.05836 54.9081C0.91937 53.9255 1.02959 52.9236 1.37889 51.9947C1.7282 51.0658 6.74642 45.7985 7.49843 45.1509" stroke="#40D8BD"/>
</g>
</svg>
