<svg width="45" height="62" viewBox="0 0 45 62" fill="none" xmlns="http://www.w3.org/2000/svg">
<g id="Group 1492">
<g id="Group 1489">
<path id="Vector 42" d="M6.83468 62.0001V38.0789H34.6615V62.0001M12.693 62.0001V45.4017M10.252 37.5907V30.2678H30.2678V34.1734M34.6615 27.3387V22.4568M37.5906 30.2678L42.4725 25.386M37.5906 33.197H44.9134M27.8268 27.3387C28.1523 24.0841 30.2678 16.6962 36.126 13.1812M23.9213 26.8505C24.084 22.6196 25.5811 12.693 30.2678 6.83478M20.504 26.3623V5.8584M16.5985 26.3623C16.7612 22.945 15.915 14.2552 11.2284 6.83478M12.693 26.8505C13.0184 24.735 12.0095 19.0395 5.37012 13.1812" stroke="black"/>
<circle id="Ellipse 179" cx="38.0785" cy="11.7167" r="2.42913" stroke="#40D8BD"/>
<circle id="Ellipse 180" cx="31.2446" cy="4.88177" r="2.42913" stroke="#40D8BD"/>
<circle id="Ellipse 181" cx="20.5043" cy="2.92913" r="2.42913" stroke="#40D8BD"/>
<circle id="Ellipse 182" cx="9.7641" cy="4.88177" r="2.42913" stroke="#40D8BD"/>
<circle id="Ellipse 183" cx="2.92913" cy="11.7167" r="2.42913" stroke="#40D8BD"/>
</g>
</g>
</svg>
