<svg width="98" height="86" viewBox="0 0 98 86" fill="none" xmlns="http://www.w3.org/2000/svg">
<g id="Group 1508">
<g id="Group 1506">
<path id="Vector 65" d="M18.0393 48.6311C26.4778 47.8293 46.3465 40.4538 58.5412 17.3854C58.6263 17.2244 58.7708 17.0867 58.9206 16.9831C60.4473 15.9277 68.5506 9.35022 79.4646 7.70139" stroke="black"/>
<path id="Vector 66" d="M32.2341 69.1008C35.9436 61.479 49.817 45.4575 75.6967 42.1248C75.8773 42.1016 76.057 42.0145 76.2064 41.9105C77.7301 40.8508 86.7312 35.568 92.1019 25.9249" stroke="black"/>
<path id="Vector 67" d="M12.0567 66.7333L18.9337 56.7332C19.0671 56.5391 19.0666 56.2828 18.9324 56.0892L10.912 44.5225C10.7336 44.2653 10.7976 43.9123 11.0547 43.734L13.0113 42.3772C13.2685 42.1989 13.6216 42.2628 13.7999 42.52L36.5168 75.2812C36.6951 75.5384 36.6312 75.8914 36.374 76.0697L33.31 78.1944C33.4872 78.0715 33.5313 77.8282 33.4084 77.651L25.5924 66.3792C25.473 66.2069 25.2682 66.1147 25.0601 66.1394L12.5903 67.6171C12.1064 67.6744 11.7806 67.1348 12.0567 66.7333Z" stroke="black"/>
<path id="Vector 68" d="M26.5552 46.5283L31.4502 53.5877M37.124 61.7702L32.5627 55.1921M31.4502 53.5877L33.5516 52.1306C33.8088 51.9523 33.8727 51.5992 33.6944 51.342L33.4502 50.9898C33.2718 50.7327 33.3357 50.3796 33.5929 50.2013L58.3321 33.0469C58.5892 32.8686 58.9423 32.9325 59.1206 33.1897L61.5899 36.7507C61.7682 37.0079 61.7043 37.3609 61.4471 37.5393L36.7079 54.6936C36.4508 54.8719 36.0977 54.808 35.9194 54.5508L35.4527 53.8778C35.2743 53.6206 34.9213 53.5567 34.6641 53.735L32.5627 55.1921M31.4502 53.5877L32.5627 55.1921" stroke="black"/>
<path id="Vector 70" d="M70.3606 40.8624L71.0336 40.3957C71.2908 40.2173 71.3547 39.8643 71.1764 39.6071L59.6959 23.0504C59.5175 22.7932 59.1645 22.7293 58.9073 22.9077L58.2342 23.3744C57.977 23.5527 57.9131 23.9058 58.0915 24.1629L69.572 40.7196C69.7503 40.9768 70.1034 41.0407 70.3606 40.8624Z" stroke="black"/>
<path id="Vector 71" d="M68.0889 22.48C71.239 21.1938 78.1544 18.9099 81.8816 19.4868C82.2145 19.5384 82.3891 19.8902 82.2603 20.2015C79.7825 26.1897 76.258 30.6101 74.7639 32.1064" stroke="#40D8BD"/>
<path id="Vector 72" d="M69.4209 18.2305L81.5312 14.1096M81.5312 14.1096L80.1129 16.5185M81.5312 14.1096L79.2956 13.2839" stroke="#40D8BD"/>
<path id="Vector 73" d="M79.167 32.9731L87.5944 23.3492M87.5944 23.3492L87.5706 26.1445M87.5944 23.3492L85.2454 23.752" stroke="#40D8BD"/>
<path id="Vector 75" d="M18.0093 73.5984L23.1434 70.0384M23.1434 70.0384L21.5132 69.7432M23.1434 70.0384L22.8483 71.6685" stroke="#40D8BD"/>
<path id="Vector 76" d="M8.66458 60.1218L13.7987 56.5618M13.7987 56.5618L12.1685 56.2667M13.7987 56.5618L13.5035 58.1919" stroke="#40D8BD"/>
</g>
<path id="Vector 69" d="M63.9016 16.5841L78.4903 37.6233C78.5445 37.7015 78.5251 37.8088 78.4469 37.863L77.3554 38.6199C77.0982 38.7982 76.7451 38.7343 76.5668 38.4771L62.2028 17.7621C62.0244 17.5049 62.0884 17.1518 62.3456 16.9735L63.113 16.4413C63.3702 16.263 63.7232 16.3269 63.9016 16.5841Z" stroke="black" stroke-width="0.6"/>
</g>
</svg>
