<svg width="80" height="80" viewBox="0 0 80 80" fill="none" xmlns="http://www.w3.org/2000/svg">
<g id="Group 1505">
<g id="Group 1504">
<g id="Group 1503">
<g id="Group 1498">
<path id="Vector 49" d="M68.9653 18.4074L67.1747 29.3618L57.6949 24.5166" stroke="black"/>
<path id="Ellipse 188" d="M24.4643 15.1793C28.081 12.9156 32.1488 11.4696 36.3828 10.9426C40.6169 10.4156 44.915 10.8202 48.9763 12.1282C53.0376 13.4362 56.764 15.6159 59.8947 18.5148C63.0254 21.4137 65.4847 24.9618 67.1006 28.9107" stroke="black"/>
</g>
<g id="Group 1499">
<path id="Vector 49_2" d="M44.2177 75.8815L35.6263 68.8536L44.5622 63.0665" stroke="black"/>
<path id="Ellipse 188_2" d="M69.2637 38.9567C69.415 43.1998 68.6418 47.425 66.9977 51.3395C65.3536 55.254 62.8778 58.7641 59.7421 61.6266C56.6064 64.4891 52.8857 66.6354 48.8379 67.9168C44.7902 69.1982 40.5121 69.5841 36.3004 69.0476" stroke="black"/>
</g>
<g id="Group 1500">
<path id="Vector 49_3" d="M6.81742 25.7116L17.1995 21.7851L17.7433 32.4174" stroke="black"/>
<path id="Ellipse 188_3" d="M26.2725 65.8645C22.4705 63.8465 19.1601 61.0152 16.577 57.572C13.994 54.1289 12.2018 50.1586 11.328 45.9439C10.4543 41.7292 10.5205 37.3737 11.5219 33.1874C12.5233 29.0012 14.4353 25.0872 17.1217 21.7242" stroke="black"/>
</g>
<g id="Group 1501">
<path id="Ellipse 189" d="M25.2347 51.3561C22.4407 47.516 21.1605 42.7806 21.6389 38.0557C22.1172 33.3309 24.3206 28.9482 27.8276 25.746C31.3346 22.5438 35.8991 20.7469 40.6478 20.6989C45.3966 20.6509 49.9964 22.3553 53.5674 25.4859" stroke="black"/>
<path id="Vector 50" d="M53.7983 25.1487L50.0064 28.9406L50.0064 35.6818L40.7373 44.9509M25.0005 51.0005L26.4124 49.6907L25.675 40.4216L28.8465 36.9237" stroke="black"/>
<circle id="Ellipse 190" cx="30.8361" cy="34.6281" r="2.97591" transform="rotate(-180 30.8361 34.6281)" stroke="#40D8BD"/>
<circle id="Ellipse 191" cx="38.631" cy="47.4787" r="2.97591" transform="rotate(-180 38.631 47.4787)" stroke="#40D8BD"/>
</g>
<g id="Group 1502">
<path id="Ellipse 189_2" d="M57.0005 29C59.7435 32.8264 60.3732 37.3808 59.8661 42.0614C59.3589 46.742 57.1441 51.0714 53.6451 54.2214C50.1462 57.3714 45.6088 59.121 40.9008 59.1355C36.1928 59.15 31.6447 57.4284 28.1265 54.2999" stroke="black"/>
<path id="Vector 50_2" d="M27.8872 54.8516L31.6791 51.0597L31.6791 44.3185L40.9482 35.0494M57.5005 29.5L55.0005 31.5L56.0105 39.5786L52.6671 42.9221" stroke="black"/>
<circle id="Ellipse 190_2" cx="50.8485" cy="45.3719" r="2.97591" stroke="#40D8BD"/>
<circle id="Ellipse 191_2" cx="43.0545" cy="32.5213" r="2.97591" stroke="#40D8BD"/>
</g>
</g>
</g>
</g>
</svg>
