<svg width="19" height="18" viewBox="0 0 19 18" fill="none" xmlns="http://www.w3.org/2000/svg">
<path id="Vector" d="M10.4254 0.00110732C11.0821 -0.0014128 11.7389 0.00518768 12.3954 0.0209067L12.57 0.0272065C12.7716 0.0344062 12.9705 0.0434059 13.2108 0.0542055C14.1684 0.099204 14.8217 0.250399 15.395 0.472691C15.989 0.701284 16.4894 1.01087 16.9898 1.51126C17.4473 1.96089 17.8014 2.50477 18.0274 3.1051C18.2497 3.67838 18.4009 4.33266 18.4459 5.29023C18.4567 5.52962 18.4657 5.72941 18.4729 5.93101L18.4783 6.1056C18.4943 6.76185 18.5012 7.41829 18.499 8.07473L18.4999 8.74611V9.92507C18.5021 10.5818 18.4952 11.2386 18.4792 11.8951L18.4738 12.0697C18.4666 12.2713 18.4576 12.4702 18.4468 12.7105C18.4018 13.668 18.2488 14.3214 18.0274 14.8947C17.8021 15.4957 17.4479 16.04 16.9898 16.4894C16.5397 16.9469 15.9956 17.301 15.395 17.5271C14.8217 17.7494 14.1684 17.9006 13.2108 17.9456C12.9705 17.9564 12.7716 17.9654 12.57 17.9726L12.3954 17.978C11.7389 17.994 11.0821 18.0009 10.4254 17.9987L9.754 17.9996H8.57594C7.9192 18.0018 7.26246 17.9949 6.60591 17.9789L6.43132 17.9735C6.21767 17.9658 6.00408 17.9568 5.79054 17.9465C4.83297 17.9015 4.17959 17.7485 3.60541 17.5271C3.00485 17.3015 2.46087 16.9474 2.01157 16.4894C1.55352 16.0397 1.1991 15.4955 0.973003 14.8947C0.750711 14.3214 0.599516 13.668 0.554517 12.7105C0.544494 12.4969 0.535495 12.2833 0.527518 12.0697L0.523019 11.8951C0.506426 11.2386 0.498926 10.5818 0.500519 9.92507V8.07473C0.498007 7.41829 0.504608 6.76185 0.520319 6.1056L0.526618 5.93101C0.533818 5.72941 0.542818 5.52962 0.553617 5.29023C0.598616 4.33176 0.749811 3.67928 0.972103 3.1051C1.19833 2.50448 1.55345 1.96074 2.01247 1.51216C2.46146 1.05385 3.0051 0.699099 3.60541 0.472691C4.17959 0.250399 4.83207 0.099204 5.79054 0.0542055L6.43132 0.0272065L6.60591 0.0227067C7.26215 0.00612283 7.91859 -0.00137772 8.57504 0.000207414L10.4254 0.00110732ZM9.50021 4.50095C8.90399 4.49252 8.31203 4.60267 7.75875 4.825C7.20547 5.04734 6.70189 5.37742 6.27728 5.79606C5.85268 6.2147 5.51551 6.71356 5.28538 7.26365C5.05524 7.81373 4.93673 8.40407 4.93673 9.00035C4.93673 9.59663 5.05524 10.187 5.28538 10.7371C5.51551 11.2871 5.85268 11.786 6.27728 12.2046C6.70189 12.6233 7.20547 12.9534 7.75875 13.1757C8.31203 13.398 8.90399 13.5082 9.50021 13.4997C10.6936 13.4997 11.8382 13.0257 12.6821 12.1818C13.526 11.3379 14.0001 10.1933 14.0001 8.9999C14.0001 7.80647 13.526 6.66191 12.6821 5.81803C11.8382 4.97414 10.6936 4.50095 9.50021 4.50095ZM9.50021 6.30089C9.85886 6.29428 10.2152 6.35921 10.5485 6.49187C10.8818 6.62454 11.1853 6.82228 11.4412 7.07356C11.6972 7.32483 11.9006 7.6246 12.0394 7.95534C12.1783 8.28609 12.2498 8.64119 12.2499 8.99989C12.2499 9.3586 12.1785 9.71372 12.0398 10.0445C11.901 10.3753 11.6978 10.6751 11.4419 10.9265C11.186 11.1779 10.8826 11.3757 10.5493 11.5085C10.2161 11.6413 9.85976 11.7063 9.50111 11.6998C8.78505 11.6998 8.09832 11.4154 7.59199 10.909C7.08566 10.4027 6.80121 9.71596 6.80121 8.9999C6.80121 8.28384 7.08566 7.59711 7.59199 7.09078C8.09832 6.58445 8.78505 6.29999 9.50111 6.29999L9.50021 6.30089ZM14.2251 3.151C13.9347 3.16262 13.6601 3.28613 13.4588 3.49566C13.2575 3.70519 13.1451 3.98449 13.1451 4.27506C13.1451 4.56563 13.2575 4.84493 13.4588 5.05446C13.6601 5.26399 13.9347 5.3875 14.2251 5.39912C14.5234 5.39912 14.8096 5.2806 15.0205 5.06963C15.2315 4.85866 15.35 4.57252 15.35 4.27416C15.35 3.9758 15.2315 3.68967 15.0205 3.47869C14.8096 3.26772 14.5234 3.1492 14.2251 3.1492V3.151Z" fill="black"/>
</svg>
