<svg width="19" height="18" viewBox="0 0 19 18" fill="none" xmlns="http://www.w3.org/2000/svg">
<path fill-rule="evenodd" clip-rule="evenodd" d="M0.5 1.50382C0.5 1.10498 0.658438 0.722481 0.940458 0.44046C1.22248 0.15844 1.60498 2.0048e-06 2.00382 2.0048e-06H16.9945C17.1922 -0.00032081 17.388 0.0383444 17.5707 0.113784C17.7533 0.189223 17.9194 0.299955 18.0592 0.439641C18.199 0.579326 18.31 0.745221 18.3856 0.927828C18.4612 1.11044 18.5001 1.30617 18.5 1.50382V16.4945C18.5002 16.6922 18.4614 16.888 18.3859 17.0707C18.3104 17.2534 18.1996 17.4194 18.0598 17.5593C17.9201 17.6991 17.7541 17.81 17.5715 17.8856C17.3888 17.9612 17.1931 18.0001 16.9954 18H2.00382C1.80627 18 1.61065 17.9611 1.42814 17.8855C1.24564 17.8098 1.07982 17.699 0.940169 17.5593C0.800516 17.4195 0.689762 17.2536 0.614237 17.0711C0.538711 16.8886 0.499893 16.6929 0.5 16.4954V1.50382ZM7.62473 6.86291H10.0621V8.08691C10.4139 7.38327 11.3139 6.75 12.6664 6.75C15.2592 6.75 15.8736 8.15155 15.8736 10.7231V15.4865H13.2497V11.3089C13.2497 9.84437 12.8979 9.018 12.0045 9.018C10.7649 9.018 10.2495 9.909 10.2495 11.3089V15.4865H7.62473V6.86291ZM3.12473 15.3745H5.74945V6.75H3.12473V15.3745ZM6.125 3.93709C6.12995 4.16182 6.08996 4.38528 6.00738 4.59435C5.9248 4.80342 5.80129 4.99389 5.6441 5.15457C5.48691 5.31526 5.29921 5.44293 5.09201 5.5301C4.88481 5.61726 4.66229 5.66216 4.4375 5.66216C4.21271 5.66216 3.99019 5.61726 3.78299 5.5301C3.57579 5.44293 3.38809 5.31526 3.2309 5.15457C3.07371 4.99389 2.9502 4.80342 2.86762 4.59435C2.78504 4.38528 2.74505 4.16182 2.75 3.93709C2.75971 3.49597 2.94177 3.07619 3.25718 2.76765C3.57259 2.45911 3.99627 2.28634 4.4375 2.28634C4.87873 2.28634 5.30241 2.45911 5.61782 2.76765C5.93323 3.07619 6.11529 3.49597 6.125 3.93709Z" fill="black"/>
</svg>
