<svg width="28" height="18" viewBox="0 0 28 18" fill="none" xmlns="http://www.w3.org/2000/svg">
<path id="Vector" d="M26.9346 2.8242C26.7818 2.27917 26.484 1.78573 26.073 1.39634C25.6504 0.994965 25.1324 0.707855 24.568 0.562105C22.4555 0.00557517 13.9921 0.00557529 13.9921 0.00557529C10.4639 -0.0345481 6.93644 0.141925 3.4298 0.533997C2.86534 0.690515 2.34833 0.984041 1.92475 1.38847C1.50856 1.78872 1.2071 2.28229 1.04962 2.82308C0.671326 4.86002 0.487525 6.92829 0.500694 8.99999C0.487196 11.0698 0.670546 13.1374 1.04962 15.1769C1.20372 15.7155 1.50406 16.2068 1.92138 16.6037C2.3387 17.0005 2.85838 17.2872 3.4298 17.439C5.57039 17.9944 13.9921 17.9944 13.9921 17.9944C17.5249 18.0346 21.0568 17.8581 24.568 17.466C25.1324 17.3202 25.6504 17.0331 26.073 16.6318C26.4839 16.2424 26.7813 15.7489 26.9335 15.2039C27.3217 13.1677 27.5104 11.0986 27.4971 9.02585C27.5263 6.94432 27.3378 4.86544 26.9346 2.82308V2.8242ZM11.3015 12.8496V5.15151L18.343 9.00112L11.3015 12.8496Z" fill="black"/>
</svg>
