<svg width="27" height="18" viewBox="0 0 27 18" fill="none" xmlns="http://www.w3.org/2000/svg">
<path d="M26.4346 2.8242C26.2818 2.27917 25.984 1.78573 25.573 1.39634C25.1504 0.994965 24.6324 0.707855 24.068 0.562105C21.9555 0.00557517 13.4921 0.00557529 13.4921 0.00557529C9.96385 -0.0345481 6.43644 0.141925 2.9298 0.533997C2.36534 0.690515 1.84833 0.984041 1.42475 1.38847C1.00856 1.78872 0.707099 2.28229 0.54962 2.82308C0.171326 4.86002 -0.0124755 6.92829 0.000694238 8.99999C-0.0128039 11.0698 0.170546 13.1374 0.54962 15.1769C0.703725 15.7155 1.00406 16.2068 1.42138 16.6037C1.8387 17.0005 2.35838 17.2872 2.9298 17.439C5.07039 17.9944 13.4921 17.9944 13.4921 17.9944C17.0249 18.0346 20.5568 17.8581 24.068 17.466C24.6324 17.3202 25.1504 17.0331 25.573 16.6318C25.9839 16.2424 26.2813 15.7489 26.4335 15.2039C26.8217 13.1677 27.0104 11.0986 26.9971 9.02585C27.0263 6.94432 26.8378 4.86544 26.4346 2.82308V2.8242ZM10.8015 12.8496V5.15151L17.843 9.00112L10.8015 12.8496Z" fill="black"/>
</svg>
